<?xml version="1.0" encoding="utf-8" standalone="no"?>
<!DOCTYPE svg PUBLIC "-//W3C//DTD SVG 1.1//EN"
  "http://www.w3.org/Graphics/SVG/1.1/DTD/svg11.dtd">
<svg xmlns:xlink="http://www.w3.org/1999/xlink" width="720pt" height="313.159301pt" viewBox="0 0 720 313.159301" xmlns="http://www.w3.org/2000/svg" version="1.1">
 <metadata>
  <rdf:RDF xmlns:dc="http://purl.org/dc/elements/1.1/" xmlns:cc="http://creativecommons.org/ns#" xmlns:rdf="http://www.w3.org/1999/02/22-rdf-syntax-ns#">
   <cc:Work>
    <dc:type rdf:resource="http://purl.org/dc/dcmitype/StillImage"/>
    <dc:date>2025-08-09T23:24:44.874672</dc:date>
    <dc:format>image/svg+xml</dc:format>
    <dc:creator>
     <cc:Agent>
      <dc:title>Matplotlib v3.10.5, https://matplotlib.org/</dc:title>
     </cc:Agent>
    </dc:creator>
   </cc:Work>
  </rdf:RDF>
 </metadata>
 <defs>
  <style type="text/css">*{stroke-linejoin: round; stroke-linecap: butt}</style>
 </defs>
 <g id="figure_1">
  <g id="patch_1">
   <path d="M 0 313.159301 
L 720 313.159301 
L 720 0 
L 0 0 
z
" style="fill: #ffffff"/>
  </g>
  <g id="axes_1">
   <g id="PatchCollection_1">
    <path d="M 135.310012 176.341465 
L 135.412177 175.211483 
L 135.551048 174.09835 
L 135.801872 172.388508 
L 136.029449 171.371523 
L 136.31392 170.392205 
L 137.026016 168.057898 
L 137.714864 165.793967 
L 138.469171 163.956258 
L 138.915761 163.06714 
L 139.383761 162.19289 
L 140.815905 159.925986 
L 142.471956 157.438041 
L 142.902027 156.954329 
L 143.428146 156.46467 
L 144.092523 155.930406 
L 144.712242 155.475439 
L 145.583397 154.909456 
L 146.499822 154.385105 
L 146.937235 154.17695 
L 147.350177 153.996549 
L 147.578977 153.938067 
L 147.817566 153.914278 
L 148.128343 153.914278 
L 148.426273 153.946988 
L 148.745615 154.012408 
L 149.040486 154.089723 
L 149.383687 154.196774 
L 149.752581 154.355368 
L 150.135547 154.519909 
L 150.507501 154.698328 
L 151.38722 155.209794 
L 152.250422 155.779741 
L 152.974752 156.330856 
L 153.711319 156.94739 
L 154.075319 157.312157 
L 154.477861 157.794878 
L 154.67485 158.098189 
L 154.825956 158.418351 
L 155.006427 159.011096 
L 155.090851 159.319363 
L 155.167933 159.621683 
L 155.27071 160.250112 
L 155.271933 161.062907 
L 155.24318 161.519856 
L 155.079839 163.064166 
L 154.910991 164.60352 
L 154.668732 167.005229 
L 154.38732 169.773688 
L 154.22459 171.34476 
L 154.142002 172.131783 
L 154.014754 173.030814 
L 153.800025 174.100333 
L 153.680118 174.665324 
L 153.538801 175.224368 
L 153.364447 175.91227 
L 153.131976 176.600172 
L 152.864023 177.32574 
L 152.557528 178.017607 
L 152.215551 178.689649 
L 151.834421 179.364665 
L 151.486326 179.911815 
L 151.036678 180.521411 
L 150.369241 181.336188 
L 149.914088 181.843689 
L 149.43691 182.338305 
L 148.061661 183.669504 
L 147.321424 184.353441 
L 146.491258 184.931318 
L 145.933939 185.222735 
L 145.358267 185.484415 
L 145.016902 185.614264 
L 144.647395 185.739157 
L 143.923676 185.918566 
L 143.196898 186.025617 
L 142.390591 186.080134 
L 141.812472 186.050398 
L 141.141977 185.941364 
L 140.378493 185.71735 
L 139.599103 185.304014 
L 138.964702 184.886713 
L 138.355995 184.461483 
L 137.76197 183.999578 
L 137.306204 183.570382 
L 136.886533 183.12731 
L 136.578203 183.476217 
L 136.49745 183.393946 
L 136.432603 183.322579 
L 136.717074 182.994488 
L 136.353685 182.524653 
L 136.051473 181.980477 
L 135.584695 180.815801 
L 135.431754 179.754212 
L 135.311236 178.382373 
z
M 138.259947 176.8678 
L 138.661266 177.842162 
L 139.027714 177.820355 
L 139.263244 177.539842 
L 139.269973 177.9056 
L 139.746539 178.073115 
L 139.761221 178.580616 
L 140.007151 179.443962 
L 139.54955 178.87798 
L 138.892513 178.791744 
L 138.769548 179.674915 
L 139.369079 180.755337 
L 139.01609 181.531457 
L 139.330538 181.695007 
L 139.585644 181.643464 
L 139.804656 181.273742 
L 139.563621 181.035851 
L 139.61195 180.917896 
L 139.871339 180.80688 
L 140.210869 180.236933 
L 140.740046 179.583723 
L 141.290636 179.598592 
L 140.252469 181.577053 
L 140.148469 181.998318 
L 140.962117 182.591064 
L 141.427059 182.385883 
L 141.66626 182.871577 
L 142.058402 182.774438 
L 142.092661 182.954839 
L 142.474403 183.120372 
L 142.76805 183.025215 
L 142.911204 182.80814 
L 145.347867 182.842832 
L 146.777564 182.105369 
L 146.132763 181.565158 
L 145.919256 180.858423 
L 146.936623 180.733531 
L 147.742319 180.451035 
L 148.211543 180.510508 
L 149.644299 178.577642 
L 150.253006 177.215715 
L 150.510559 176.077803 
L 147.990084 174.344171 
L 145.606644 173.772241 
L 144.948996 173.981387 
L 144.575819 175.042976 
L 144.220383 175.126238 
L 144.367206 175.757641 
L 144.058876 175.83892 
L 143.830688 175.55246 
L 143.905935 175.048924 
L 144.154924 174.639553 
L 144.141465 173.956607 
L 144.562971 173.66519 
L 144.317042 173.462983 
L 144.790548 172.706687 
L 144.438171 172.526286 
L 144.035017 173.388642 
L 143.298451 173.284564 
L 143.594546 172.494567 
L 143.940806 172.271545 
L 143.579252 172.086188 
L 142.517838 172.086188 
L 142.339202 172.781028 
L 141.879766 172.438068 
L 141.566542 172.086188 
L 140.796329 172.086188 
L 140.01388 172.56197 
L 139.756939 173.233021 
L 139.489597 173.932818 
L 138.857031 174.390758 
L 138.803196 174.714885 
L 139.475526 174.714885 
L 139.095008 175.210491 
L 138.609266 175.508846 
L 138.647807 176.136284 
z
" clip-path="url(#pc077ef8bd4)" style="fill: #0096ff; stroke: #7980ff; stroke-width: 0.3"/>
    <path d="M 32.727273 93.328361 
L 33.547039 92.819869 
L 33.931228 92.18351 
L 34.131887 91.399461 
L 34.60417 91.04758 
L 49.551446 86.86367 
L 51.093708 86.106383 
L 52.274416 85.870474 
L 52.617617 85.8675 
L 53.039124 86.028077 
L 53.530984 85.901202 
L 53.928631 85.557251 
L 56.94219 84.538284 
L 58.150428 83.818663 
L 59.244877 83.368652 
L 65.232841 80.294901 
L 68.799437 78.543427 
L 70.63657 77.641423 
L 73.237798 77.205289 
L 75.713003 76.789971 
L 76.443451 76.714639 
L 79.349951 76.414301 
L 81.468496 76.366723 
L 84.259372 76.304277 
L 86.723565 76.248769 
L 89.778724 75.457781 
L 90.13416 75.348747 
L 91.276939 74.99984 
L 92.823483 74.788712 
L 93.958309 74.201914 
L 94.685698 73.83913 
L 95.892713 73.77371 
L 99.34919 72.072788 
L 100.952628 71.244134 
L 103.019785 70.017012 
L 105.312072 68.534157 
L 108.686573 66.416926 
L 111.72399 64.601024 
L 114.473878 63.838781 
L 116.309176 63.212334 
L 116.894636 63.749572 
L 119.096993 63.143941 
L 120.389042 62.788095 
L 121.564856 62.46496 
L 122.865471 62.31033 
L 124.285379 62.29348 
L 124.793757 62.548222 
L 125.302746 62.539301 
L 125.565194 62.523441 
L 125.975077 62.719701 
L 126.533007 62.588861 
L 126.934937 62.384671 
L 127.443927 62.408461 
L 128.231269 62.671132 
L 128.969671 62.646352 
L 129.72459 62.916953 
L 130.150991 62.933803 
L 131.775229 63.237115 
L 133.072173 63.515646 
L 133.548127 63.827878 
L 134.794905 63.909157 
L 135.795754 63.720827 
L 136.427709 63.818957 
L 137.379616 64.048918 
L 138.060512 64.327449 
L 138.519948 64.36908 
L 138.987337 64.180749 
L 139.463903 63.823913 
L 140.291622 63.499786 
L 140.679482 63.458155 
L 140.859953 63.567189 
L 141.073459 63.579083 
L 141.481507 63.540426 
L 142.33492 63.885368 
L 143.147345 64.056848 
L 143.869229 64.49992 
L 145.993892 64.360159 
L 147.052247 64.171829 
L 148.12712 63.893298 
L 149.46444 63.467076 
L 150.700207 62.800981 
L 151.696162 62.613642 
L 152.76247 62.548222 
L 153.894848 62.137859 
L 154.735415 61.989177 
L 155.453628 61.473747 
L 156.1021 60.817564 
L 156.823983 60.226801 
L 157.319514 59.56467 
L 157.865821 58.331601 
L 158.580363 57.550525 
L 159.326106 57.101506 
L 160.11406 56.781344 
L 160.721544 56.120205 
L 161.549875 55.534398 
L 161.623287 54.993195 
L 161.992793 54.263663 
L 162.140841 53.292274 
L 162.542159 52.295113 
L 162.694489 51.152245 
L 163.007101 49.523682 
L 163.479385 48.281692 
L 163.774256 47.265698 
L 163.743056 46.063357 
L 163.546679 45.624249 
L 163.226113 45.37942 
L 163.095807 45.403209 
L 162.925125 45.454752 
L 162.856607 45.478541 
L 162.766677 45.495392 
L 162.554394 45.536031 
L 162.304182 45.618302 
L 162.005029 45.626232 
L 161.459334 45.810598 
L 160.979097 45.987033 
L 160.384461 46.081199 
L 159.974578 46.228889 
L 159.518812 46.339905 
L 159.275329 46.279441 
L 159.236788 45.625241 
L 159.107094 44.796587 
L 159.252082 44.609247 
L 161.11858 44.457592 
L 162.017264 44.290077 
L 162.46263 44.166175 
L 162.581312 44.149324 
L 162.674912 44.132474 
L 162.82296 44.118597 
L 162.896372 44.117606 
L 163.008937 44.109676 
L 164.171292 42.762617 
L 164.641128 42.273949 
L 165.316517 41.639573 
L 165.471294 41.462146 
L 165.546541 41.417541 
L 165.706212 41.323376 
L 165.88546 41.209386 
L 166.993368 40.554195 
L 168.510547 39.745365 
L 170.640104 38.796774 
L 177.036117 36.37524 
L 184.503943 33.745552 
L 187.711431 32.587815 
L 187.948185 32.49365 
L 188.496327 32.24882 
L 189.097081 31.93857 
L 189.518588 31.666978 
L 189.819577 31.50541 
L 189.863012 31.487569 
L 189.932753 31.458823 
L 190.509649 31.245713 
L 193.862126 30.673783 
L 197.576768 30.094914 
L 198.969759 30.039406 
L 200.841763 30.251526 
L 201.926424 30.542942 
L 203.006802 30.992953 
L 205.484454 31.968307 
L 209.682392 33.661299 
L 210.02131 33.792139 
L 210.095334 33.820884 
L 212.769362 34.54447 
L 215.010872 35.105496 
L 215.021884 34.973665 
L 215.58165 35.105496 
L 215.584097 35.269046 
L 217.662266 35.752758 
L 224.950233 36.031289 
L 229.578854 36.144288 
L 234.11938 36.368302 
L 235.018676 36.284049 
L 235.106158 36.188892 
L 244.81733 36.656745 
L 245.188672 36.708288 
L 245.859167 36.802453 
L 246.666698 36.915451 
L 247.00684 36.96303 
L 247.890842 37.154334 
L 249.12355 37.311937 
L 249.122327 37.459627 
L 262.768377 39.412317 
L 263.058965 39.468816 
L 263.412566 39.48864 
L 268.455964 40.344057 
L 268.538552 40.475889 
L 273.934328 41.606863 
L 275.280824 41.889359 
L 275.797155 42.278905 
L 286.263857 44.322787 
L 286.79487 44.449662 
L 287.313036 44.573564 
L 287.774307 44.683588 
L 288.014731 44.741079 
L 288.334685 44.817402 
L 288.928098 44.959145 
L 289.335534 45.056284 
L 300.371791 47.612623 
L 302.638383 47.169551 
L 302.603512 46.97329 
L 303.174902 46.906879 
L 303.238525 47.272637 
L 303.197537 50.185812 
L 303.160219 52.791711 
L 287.768801 50.052989 
L 287.505742 49.982613 
L 286.737976 49.789327 
L 285.165126 49.39185 
L 284.94489 49.313545 
L 280.27161 48.257903 
L 275.037342 47.201269 
L 274.965153 47.352925 
L 274.448211 47.214155 
L 274.196163 47.303364 
L 272.68449 46.945536 
L 272.639831 47.334092 
L 272.475266 47.419336 
L 271.200346 47.105122 
L 267.804433 46.429114 
L 263.808379 45.82051 
L 263.849367 45.60046 
L 262.550588 45.408165 
L 262.372564 45.382393 
L 261.957175 45.314 
L 256.90093 44.484354 
L 253.495229 43.855925 
L 253.494617 44.018484 
L 252.971558 43.94117 
L 252.986852 43.813303 
L 248.714891 43.070885 
L 248.687973 43.275074 
L 247.061899 42.96879 
L 246.178509 42.796319 
L 245.003919 42.642681 
L 244.166411 42.532656 
L 243.894175 42.493007 
L 242.468761 42.363158 
L 234.603287 41.08945 
L 233.924227 40.962574 
L 232.161117 40.668184 
L 229.858431 40.284585 
L 224.151267 39.821688 
L 221.505991 39.885126 
L 214.307342 39.265618 
L 214.307953 39.380598 
L 213.304046 39.283459 
L 213.334022 39.114953 
L 212.799951 39.086208 
L 210.711382 38.180239 
L 210.653264 38.346763 
L 209.227849 37.729237 
L 209.020461 37.640028 
L 209.054108 37.508197 
L 208.740884 37.360506 
L 208.617307 37.302024 
L 208.435001 37.215789 
L 208.275942 37.140457 
L 207.870953 36.949153 
L 207.820788 37.082966 
L 207.623188 36.965012 
L 207.668458 36.857961 
L 201.768588 34.278825 
L 201.703741 34.410656 
L 201.223505 34.177721 
L 201.293246 34.080582 
L 200.881527 33.83377 
L 200.552397 33.749517 
L 199.0395 33.701939 
L 196.77719 33.537397 
L 196.791872 33.684097 
L 196.202742 33.751499 
L 196.188671 33.603808 
L 195.037328 33.673193 
L 192.917559 34.048863 
L 190.885273 34.305587 
L 190.387295 34.458234 
L 190.212942 34.530593 
L 189.78593 34.707029 
L 189.109928 34.986551 
L 188.572186 35.208582 
L 188.328091 35.309686 
L 183.635847 37.130545 
L 174.704677 40.556177 
L 173.478698 41.012135 
L 172.480296 41.439348 
L 171.243917 42.095531 
L 167.606969 44.467504 
L 167.39591 44.608256 
L 167.247251 44.6935 
L 167.100427 44.776762 
L 166.95605 44.912558 
L 166.857556 45.088994 
L 166.743156 45.425016 
L 166.299013 47.439161 
L 165.996189 48.792166 
L 165.897695 49.333369 
L 165.878119 49.743731 
L 165.962542 50.552561 
L 166.156472 52.266368 
L 166.699108 55.749491 
L 166.796379 56.244106 
L 167.269886 57.786434 
L 167.320663 58.014413 
L 167.301086 58.164086 
L 167.235015 58.278076 
L 167.077791 58.356381 
L 164.787952 59.424909 
L 164.157221 59.722273 
L 162.867619 60.324931 
L 161.750534 60.915694 
L 161.351663 61.127813 
L 159.703565 62.583905 
L 159.263094 63.165747 
L 158.420081 63.441305 
L 157.770385 63.87843 
L 157.15189 64.294739 
L 156.150429 64.938036 
L 153.442142 66.316814 
L 148.763968 68.463781 
L 147.406459 68.464772 
L 145.973092 68.466755 
L 143.915111 68.221925 
L 138.402489 67.441841 
L 132.367418 67.179169 
L 127.61828 66.736097 
L 124.761333 66.520012 
L 120.632525 66.694466 
L 120.423301 66.705369 
L 119.728947 66.742044 
L 118.540286 66.906585 
L 115.709645 68.044498 
L 113.071099 69.209173 
L 112.00112 69.955557 
L 110.702341 70.861526 
L 109.28855 72.313653 
L 105.30779 75.03255 
L 104.730283 75.33487 
L 103.651739 75.712522 
L 103.576492 75.542034 
L 102.295454 75.933563 
L 102.256913 75.865169 
L 101.096393 76.223988 
L 101.129429 76.2904 
L 100.636957 76.440073 
L 100.651028 76.545141 
L 96.844009 77.78614 
L 89.783007 79.494 
L 83.653724 80.027273 
L 81.385908 80.392039 
L 79.628305 80.231463 
L 77.199594 80.217586 
L 76.745664 80.666605 
L 76.680817 80.341488 
L 76.346181 80.471336 
L 75.013755 80.659667 
L 74.865707 80.300848 
L 74.58613 80.3514 
L 74.420342 80.381136 
L 74.07347 80.444574 
L 72.012431 81.141396 
L 70.833558 81.566627 
L 70.366169 81.863991 
L 70.062733 81.978972 
L 69.730544 82.240652 
L 69.390402 82.460701 
L 69.10899 82.643084 
L 56.684637 88.35148 
L 52.527688 89.545892 
L 49.00881 91.109035 
L 44.493366 92.007074 
L 43.793506 92.652354 
L 42.969457 93.266906 
L 42.626257 92.936832 
L 42.626257 92.466997 
L 42.029173 92.558189 
L 41.553219 92.783194 
L 41.016089 93.493894 
L 40.938394 94.004369 
L 40.591523 93.918133 
L 39.951004 94.152059 
L 39.61331 94.775532 
L 38.39039 95.306823 
L 36.503704 96.239554 
L 35.500408 96.854106 
z
" clip-path="url(#pc077ef8bd4)" style="fill: #0096ff; stroke: #7980ff; stroke-width: 0.3"/>
    <path d="M 302.931419 53.913764 
L 303.134525 53.913764 
L 303.160219 52.791711 
L 303.238525 47.272637 
L 311.307718 46.161487 
L 311.325459 46.380545 
L 328.802998 41.309499 
L 328.979187 41.144958 
L 328.716739 40.104184 
L 341.240199 36.339557 
L 341.468999 37.383304 
L 341.601141 37.419979 
L 369.588819 29.352496 
L 369.567407 29.157227 
L 369.45423 29.166147 
L 369.3539 28.541683 
L 369.476865 28.506 
L 369.437712 28.339476 
L 376.738527 26.532494 
L 377.480599 26.34912 
L 377.697775 26.71686 
L 381.322488 25.249865 
L 381.110817 24.826617 
L 381.390394 24.733443 
L 381.384277 24.590708 
L 380.351616 23.501365 
L 377.928411 20.945026 
L 377.788929 20.354263 
L 378.226341 19.926059 
L 381.13957 22.840226 
L 382.723432 24.424184 
L 383.77567 24.163495 
L 384.901931 23.884964 
L 389.803399 22.670728 
L 391.242884 21.484246 
L 391.912156 20.712091 
L 392.355074 20.03311 
L 393.045146 19.471092 
L 393.995219 19.08551 
L 396.252635 18.47195 
L 397.802238 18.12899 
L 399.680971 17.921826 
L 411.160146 17.416308 
L 416.754133 17.480736 
L 422.781251 17.825679 
L 425.708551 18.207296 
L 425.699374 19.626713 
L 426.224269 20.216485 
L 434.297744 21.398011 
L 435.216616 21.069919 
L 435.80697 20.544576 
L 436.17403 19.659423 
L 438.373328 19.753588 
L 439.481236 20.099521 
L 440.231261 20.80923 
L 442.182794 21.597244 
L 445.977578 22.138447 
L 446.262049 21.919389 
L 451.239988 22.961154 
L 452.012649 22.684605 
L 455.368796 23.084064 
L 462.152668 22.995846 
L 462.553375 23.019635 
L 463.4178 23.856219 
L 463.890695 24.07726 
L 472.93076 23.976156 
L 475.088458 22.985934 
L 476.334625 23.192106 
L 476.519378 22.940338 
L 494.523037 23.065231 
L 494.61419 24.195214 
L 495.169673 24.191249 
L 495.153767 24.912852 
L 496.909535 24.931685 
L 497.021489 24.79688 
L 497.016594 24.318124 
L 496.894241 24.16746 
L 496.602429 24.161513 
L 496.596923 23.036486 
L 513.08952 23.043424 
L 514.866088 23.189133 
L 517.70407 23.77494 
L 522.570056 24.78003 
L 536.027682 27.865676 
L 557.911771 33.091351 
L 560.784624 38.122749 
L 559.71281 40.020922 
L 551.130958 39.256697 
L 551.128511 39.133786 
L 549.952697 39.033674 
L 549.906203 39.624437 
L 549.89152 40.456064 
L 562.95211 41.651467 
L 579.088047 43.196769 
L 592.140073 44.347567 
L 592.356026 44.189964 
L 592.401297 44.117606 
L 592.405579 43.938196 
L 592.244073 43.896565 
L 592.266096 43.201725 
L 592.422708 43.182892 
L 592.425767 43.032227 
L 592.474709 42.956895 
L 593.893394 42.586181 
L 594.06897 42.571313 
L 597.667377 42.710083 
L 597.826437 42.591137 
L 598.162908 42.581225 
L 598.175755 42.200599 
L 599.445169 42.236283 
L 599.384604 42.692241 
L 599.864229 42.78145 
L 600.282065 42.692241 
L 600.2631 42.297738 
L 605.539581 42.567348 
L 605.51144 42.959869 
L 605.899911 43.092691 
L 606.329982 43.02628 
L 606.347724 42.819116 
L 606.697042 42.801275 
L 606.804713 43.063946 
L 606.936854 43.078814 
L 606.980901 42.546533 
L 607.327161 42.514814 
L 607.297184 43.109542 
L 607.70462 43.209654 
L 608.183021 43.09963 
L 609.684295 43.178927 
L 610.062366 43.317697 
L 610.445332 43.208663 
L 610.497332 43.128375 
L 610.47959 42.60997 
L 610.251402 42.416684 
L 608.343304 42.333422 
L 608.159162 42.252143 
L 607.894268 42.020199 
L 607.720526 41.967664 
L 607.328384 41.957752 
L 607.141184 41.75951 
L 606.887301 40.223129 
L 606.2841 34.914192 
L 606.532477 34.371999 
L 629.927016 27.397823 
L 645.13001 22.49231 
L 649.813078 21.028288 
L 652.913508 20.089609 
L 655.32203 19.535521 
L 675.198916 16.446901 
L 687.272727 14.234514 
L 680.973986 52.75801 
L 679.3265 50.605095 
L 676.811531 49.03997 
L 672.67844 47.670113 
L 667.439277 46.635287 
L 666.666617 45.873044 
L 666.056686 46.075251 
L 664.808072 45.543961 
L 664.075788 44.865971 
L 662.720115 42.299721 
L 661.964584 42.263046 
L 661.392583 41.9637 
L 660.484723 42.276923 
L 659.087449 43.874758 
L 658.106177 46.283406 
L 657.808247 48.699984 
L 656.127114 50.211584 
L 653.213885 51.375268 
L 650.82861 51.803472 
L 646.256883 50.070831 
L 644.652221 49.927105 
L 638.997669 51.569545 
L 636.380535 51.487275 
L 635.656816 50.720076 
L 634.633943 51.358417 
L 633.12594 50.442536 
L 632.626739 50.885608 
L 632.440151 51.657763 
L 631.263725 52.096871 
L 627.15694 52.630143 
L 622.955944 53.919712 
L 617.277533 55.523494 
L 616.89885 55.510609 
L 616.446755 55.289568 
L 613.573902 57.174855 
L 613.861432 57.641717 
L 613.814326 58.035228 
L 610.179213 62.14678 
L 609.109847 62.95561 
L 607.472149 60.917676 
L 606.279206 59.063116 
L 606.170312 59.135475 
L 606.045511 59.217746 
L 606.838972 60.614365 
L 603.332941 62.250858 
L 602.243998 60.375482 
L 602.093504 60.452797 
L 601.944233 60.529121 
L 603.892707 63.959709 
L 603.945319 64.617874 
L 603.462024 65.209629 
L 602.872282 65.619 
L 600.039194 67.583584 
L 598.651097 68.411247 
L 598.788133 68.672927 
L 597.913919 69.188358 
L 597.026859 69.375697 
L 595.656503 69.368759 
L 594.776784 68.704646 
L 594.299606 67.657925 
L 594.244547 67.273334 
L 594.230477 66.765833 
L 594.307559 66.413953 
L 594.512501 65.933214 
L 594.708878 65.562501 
L 595.057584 65.269101 
L 595.30902 65.053017 
L 595.918339 64.895414 
L 595.888974 64.444412 
L 596.30314 64.399808 
L 596.333116 64.717987 
L 596.366151 65.022289 
L 596.412034 65.133305 
L 596.46954 65.227471 
L 596.555187 65.282978 
L 596.652458 65.315688 
L 596.778482 65.305776 
L 596.862294 65.261172 
L 596.929588 65.207646 
L 596.988317 65.144209 
L 597.01707 65.076806 
L 597.016459 64.976694 
L 596.833541 63.977551 
L 596.728929 63.992419 
L 596.612081 64.008278 
L 596.282951 62.392601 
L 596.358198 62.373768 
L 596.412034 62.325199 
L 596.447516 62.270682 
L 596.465869 62.214183 
L 596.46954 62.156692 
L 596.472599 62.083343 
L 596.45914 62.016931 
L 596.418763 61.966379 
L 596.381446 61.924749 
L 596.326387 61.886091 
L 596.25481 61.86032 
L 596.170998 61.866267 
L 595.345726 61.992151 
L 592.721862 62.452074 
L 591.139224 62.361873 
L 590.048445 62.240945 
L 582.157889 61.845451 
L 578.51727 61.663068 
L 574.778157 61.475729 
L 574.16945 61.603595 
L 573.165542 61.426168 
L 572.038669 61.252706 
L 571.186479 60.931553 
L 569.468641 60.66789 
L 567.949626 60.654013 
L 559.983822 59.224684 
L 554.413694 58.054061 
L 548.923095 56.513716 
L 541.477904 54.346925 
L 537.20166 52.645012 
L 527.530865 50.24925 
L 524.181447 49.223344 
L 518.988166 47.801945 
L 510.895727 45.604425 
L 502.715194 42.636733 
L 501.074438 42.042005 
L 498.460362 42.562392 
L 496.694194 42.105443 
L 489.713333 40.418398 
L 474.460174 36.887697 
L 466.049617 35.496034 
L 453.594675 33.449179 
L 451.73613 32.55907 
L 450.412881 32.6572 
L 449.49462 32.552131 
L 447.685628 32.128883 
L 447.291651 32.105094 
L 445.429436 31.993087 
L 445.403742 32.211154 
L 443.243596 31.884054 
L 422.912169 28.654682 
L 411.544947 29.463511 
L 407.880469 30.021564 
L 407.622304 30.061213 
L 407.539716 29.803497 
L 404.857734 30.229719 
L 404.556133 30.608363 
L 404.178062 30.672791 
L 402.624788 30.936454 
L 400.781538 31.26851 
L 400.715467 30.993944 
L 399.862054 31.148574 
L 399.662618 31.466753 
L 398.880781 31.419175 
L 397.462096 31.583716 
L 396.657624 31.730416 
L 383.576846 35.13325 
L 375.132029 37.353568 
L 361.958263 41.587039 
L 358.187949 44.793613 
L 355.376273 47.309312 
L 355.202532 47.464932 
L 338.400382 52.093897 
L 338.186875 50.829109 
L 327.420408 53.490516 
L 304.664552 59.390217 
L 304.034433 59.553767 
L 303.048266 56.043881 
L 303.03236 54.669069 
L 302.932643 54.669069 
z
" clip-path="url(#pc077ef8bd4)" style="fill: #0096ff; stroke: #7980ff; stroke-width: 0.3"/>
    <path d="M 32.727273 93.328361 
L 33.547039 92.819869 
L 33.931228 92.18351 
L 34.131887 91.399461 
L 34.60417 91.04758 
L 49.551446 86.86367 
L 51.093708 86.106383 
L 52.274416 85.870474 
L 52.617617 85.8675 
L 53.039124 86.028077 
L 53.530984 85.901202 
L 53.928631 85.557251 
L 56.94219 84.538284 
L 58.150428 83.818663 
L 59.244877 83.368652 
L 65.232841 80.294901 
L 68.799437 78.543427 
L 70.63657 77.641423 
L 73.237798 77.205289 
L 75.713003 76.789971 
L 76.443451 76.714639 
L 79.349951 76.414301 
L 81.468496 76.366723 
L 84.259372 76.304277 
L 86.723565 76.248769 
L 89.778724 75.457781 
L 90.13416 75.348747 
L 91.276939 74.99984 
L 92.823483 74.788712 
L 93.958309 74.201914 
L 94.685698 73.83913 
L 95.892713 73.77371 
L 99.34919 72.072788 
L 100.952628 71.244134 
L 103.019785 70.017012 
L 105.312072 68.534157 
L 108.686573 66.416926 
L 111.72399 64.601024 
L 114.473878 63.838781 
L 116.309176 63.212334 
L 116.894636 63.749572 
L 119.096993 63.143941 
L 120.389042 62.788095 
L 121.564856 62.46496 
L 122.865471 62.31033 
L 124.285379 62.29348 
L 124.793757 62.548222 
L 125.302746 62.539301 
L 125.565194 62.523441 
L 125.975077 62.719701 
L 126.533007 62.588861 
L 126.934937 62.384671 
L 127.443927 62.408461 
L 128.231269 62.671132 
L 128.969671 62.646352 
L 129.72459 62.916953 
L 130.150991 62.933803 
L 131.775229 63.237115 
L 133.072173 63.515646 
L 133.548127 63.827878 
L 134.794905 63.909157 
L 135.795754 63.720827 
L 136.427709 63.818957 
L 137.379616 64.048918 
L 138.060512 64.327449 
L 138.519948 64.36908 
L 138.987337 64.180749 
L 139.463903 63.823913 
L 140.291622 63.499786 
L 140.679482 63.458155 
L 140.859953 63.567189 
L 141.073459 63.579083 
L 141.481507 63.540426 
L 142.33492 63.885368 
L 143.147345 64.056848 
L 143.869229 64.49992 
L 145.993892 64.360159 
L 147.052247 64.171829 
L 148.12712 63.893298 
L 149.46444 63.467076 
L 150.700207 62.800981 
L 151.696162 62.613642 
L 152.76247 62.548222 
L 153.894848 62.137859 
L 154.735415 61.989177 
L 155.453628 61.473747 
L 156.1021 60.817564 
L 156.823983 60.226801 
L 157.319514 59.56467 
L 157.865821 58.331601 
L 158.580363 57.550525 
L 159.326106 57.101506 
L 160.11406 56.781344 
L 160.721544 56.120205 
L 161.549875 55.534398 
L 161.623287 54.993195 
L 161.992793 54.263663 
L 162.140841 53.292274 
L 162.542159 52.295113 
L 162.694489 51.152245 
L 163.007101 49.523682 
L 163.479385 48.281692 
L 163.774256 47.265698 
L 163.743056 46.063357 
L 163.546679 45.624249 
L 163.226113 45.37942 
L 163.095807 45.403209 
L 162.925125 45.454752 
L 162.856607 45.478541 
L 162.766677 45.495392 
L 162.554394 45.536031 
L 162.304182 45.618302 
L 162.005029 45.626232 
L 161.459334 45.810598 
L 160.979097 45.987033 
L 160.384461 46.081199 
L 159.974578 46.228889 
L 159.518812 46.339905 
L 159.275329 46.279441 
L 159.236788 45.625241 
L 159.107094 44.796587 
L 159.252082 44.609247 
L 161.11858 44.457592 
L 162.017264 44.290077 
L 162.46263 44.166175 
L 162.581312 44.149324 
L 162.674912 44.132474 
L 162.82296 44.118597 
L 162.896372 44.117606 
L 163.008937 44.109676 
L 164.171292 42.762617 
L 164.641128 42.273949 
L 165.316517 41.639573 
L 165.471294 41.462146 
L 165.546541 41.417541 
L 165.706212 41.323376 
L 165.88546 41.209386 
L 166.993368 40.554195 
L 168.510547 39.745365 
L 170.640104 38.796774 
L 177.036117 36.37524 
L 184.503943 33.745552 
L 187.711431 32.587815 
L 187.948185 32.49365 
L 188.496327 32.24882 
L 189.097081 31.93857 
L 189.518588 31.666978 
L 189.819577 31.50541 
L 189.863012 31.487569 
L 189.932753 31.458823 
L 190.509649 31.245713 
L 193.862126 30.673783 
L 197.576768 30.094914 
L 198.969759 30.039406 
L 200.841763 30.251526 
L 201.926424 30.542942 
L 203.006802 30.992953 
L 205.484454 31.968307 
L 209.682392 33.661299 
L 210.02131 33.792139 
L 210.095334 33.820884 
L 212.769362 34.54447 
L 215.010872 35.105496 
L 215.021884 34.973665 
L 215.58165 35.105496 
L 215.584097 35.269046 
L 217.662266 35.752758 
L 224.950233 36.031289 
L 229.578854 36.144288 
L 234.11938 36.368302 
L 235.018676 36.284049 
L 235.106158 36.188892 
L 244.81733 36.656745 
L 245.188672 36.708288 
L 245.859167 36.802453 
L 246.666698 36.915451 
L 247.00684 36.96303 
L 247.890842 37.154334 
L 249.12355 37.311937 
L 249.122327 37.459627 
L 262.768377 39.412317 
L 263.058965 39.468816 
L 263.412566 39.48864 
L 268.455964 40.344057 
L 268.538552 40.475889 
L 273.934328 41.606863 
L 275.280824 41.889359 
L 275.797155 42.278905 
L 286.263857 44.322787 
L 286.79487 44.449662 
L 287.313036 44.573564 
L 287.774307 44.683588 
L 288.014731 44.741079 
L 288.334685 44.817402 
L 288.928098 44.959145 
L 289.335534 45.056284 
L 300.371791 47.612623 
L 302.638383 47.169551 
L 302.603512 46.97329 
L 303.174902 46.906879 
L 303.238525 47.272637 
L 303.197537 50.185812 
L 303.160219 52.791711 
L 287.768801 50.052989 
L 287.505742 49.982613 
L 286.737976 49.789327 
L 285.165126 49.39185 
L 284.94489 49.313545 
L 280.27161 48.257903 
L 275.037342 47.201269 
L 274.965153 47.352925 
L 274.448211 47.214155 
L 274.196163 47.303364 
L 272.68449 46.945536 
L 272.639831 47.334092 
L 272.475266 47.419336 
L 271.200346 47.105122 
L 267.804433 46.429114 
L 263.808379 45.82051 
L 263.849367 45.60046 
L 262.550588 45.408165 
L 262.372564 45.382393 
L 261.957175 45.314 
L 256.90093 44.484354 
L 253.495229 43.855925 
L 253.494617 44.018484 
L 252.971558 43.94117 
L 252.986852 43.813303 
L 248.714891 43.070885 
L 248.687973 43.275074 
L 247.061899 42.96879 
L 246.178509 42.796319 
L 245.003919 42.642681 
L 244.166411 42.532656 
L 243.894175 42.493007 
L 242.468761 42.363158 
L 234.603287 41.08945 
L 233.924227 40.962574 
L 232.161117 40.668184 
L 229.858431 40.284585 
L 224.151267 39.821688 
L 221.505991 39.885126 
L 214.307342 39.265618 
L 214.307953 39.380598 
L 213.304046 39.283459 
L 213.334022 39.114953 
L 212.799951 39.086208 
L 210.711382 38.180239 
L 210.653264 38.346763 
L 209.227849 37.729237 
L 209.020461 37.640028 
L 209.054108 37.508197 
L 208.740884 37.360506 
L 208.617307 37.302024 
L 208.435001 37.215789 
L 208.275942 37.140457 
L 207.870953 36.949153 
L 207.820788 37.082966 
L 207.623188 36.965012 
L 207.668458 36.857961 
L 201.768588 34.278825 
L 201.703741 34.410656 
L 201.223505 34.177721 
L 201.293246 34.080582 
L 200.881527 33.83377 
L 200.552397 33.749517 
L 199.0395 33.701939 
L 196.77719 33.537397 
L 196.791872 33.684097 
L 196.202742 33.751499 
L 196.188671 33.603808 
L 195.037328 33.673193 
L 192.917559 34.048863 
L 190.885273 34.305587 
L 190.387295 34.458234 
L 190.212942 34.530593 
L 189.78593 34.707029 
L 189.109928 34.986551 
L 188.572186 35.208582 
L 188.328091 35.309686 
L 183.635847 37.130545 
L 174.704677 40.556177 
L 173.478698 41.012135 
L 172.480296 41.439348 
L 171.243917 42.095531 
L 167.606969 44.467504 
L 167.39591 44.608256 
L 167.247251 44.6935 
L 167.100427 44.776762 
L 166.95605 44.912558 
L 166.857556 45.088994 
L 166.743156 45.425016 
L 166.299013 47.439161 
L 165.996189 48.792166 
L 165.897695 49.333369 
L 165.878119 49.743731 
L 165.962542 50.552561 
L 166.156472 52.266368 
L 166.699108 55.749491 
L 166.796379 56.244106 
L 167.269886 57.786434 
L 167.320663 58.014413 
L 167.301086 58.164086 
L 167.235015 58.278076 
L 167.077791 58.356381 
L 164.787952 59.424909 
L 164.157221 59.722273 
L 162.867619 60.324931 
L 161.750534 60.915694 
L 161.351663 61.127813 
L 159.703565 62.583905 
L 159.263094 63.165747 
L 158.420081 63.441305 
L 157.770385 63.87843 
L 157.15189 64.294739 
L 156.150429 64.938036 
L 153.442142 66.316814 
L 148.763968 68.463781 
L 147.406459 68.464772 
L 145.973092 68.466755 
L 143.915111 68.221925 
L 138.402489 67.441841 
L 132.367418 67.179169 
L 127.61828 66.736097 
L 124.761333 66.520012 
L 120.632525 66.694466 
L 120.423301 66.705369 
L 119.728947 66.742044 
L 118.540286 66.906585 
L 115.709645 68.044498 
L 113.071099 69.209173 
L 112.00112 69.955557 
L 110.702341 70.861526 
L 109.28855 72.313653 
L 105.30779 75.03255 
L 104.730283 75.33487 
L 103.651739 75.712522 
L 103.576492 75.542034 
L 102.295454 75.933563 
L 102.256913 75.865169 
L 101.096393 76.223988 
L 101.129429 76.2904 
L 100.636957 76.440073 
L 100.651028 76.545141 
L 96.844009 77.78614 
L 89.783007 79.494 
L 83.653724 80.027273 
L 81.385908 80.392039 
L 79.628305 80.231463 
L 77.199594 80.217586 
L 76.745664 80.666605 
L 76.680817 80.341488 
L 76.346181 80.471336 
L 75.013755 80.659667 
L 74.865707 80.300848 
L 74.58613 80.3514 
L 74.420342 80.381136 
L 74.07347 80.444574 
L 72.012431 81.141396 
L 70.833558 81.566627 
L 70.366169 81.863991 
L 70.062733 81.978972 
L 69.730544 82.240652 
L 69.390402 82.460701 
L 69.10899 82.643084 
L 56.684637 88.35148 
L 52.527688 89.545892 
L 49.00881 91.109035 
L 44.493366 92.007074 
L 43.793506 92.652354 
L 42.969457 93.266906 
L 42.626257 92.936832 
L 42.626257 92.466997 
L 42.029173 92.558189 
L 41.553219 92.783194 
L 41.016089 93.493894 
L 40.938394 94.004369 
L 40.591523 93.918133 
L 39.951004 94.152059 
L 39.61331 94.775532 
L 38.39039 95.306823 
L 36.503704 96.239554 
L 35.500408 96.854106 
z
" clip-path="url(#pc077ef8bd4)" style="fill: #0096ff; stroke: #7980ff; stroke-width: 0.3"/>
    <path d="M 129.455413 93.30259 
L 130.440356 92.007074 
L 130.680168 92.138906 
L 130.936498 92.280649 
L 132.412689 93.093444 
L 132.527089 93.102365 
L 132.846431 93.127145 
L 133.253255 93.158864 
L 133.526103 93.290695 
L 133.550574 93.385852 
L 133.546291 93.527595 
L 133.686386 93.635637 
L 134.230857 93.724847 
L 135.417071 93.878485 
L 137.130628 93.984544 
L 138.437971 93.823968 
L 139.851151 93.730794 
L 140.067104 93.781346 
L 140.667858 93.5722 
L 140.800611 93.39279 
L 142.842686 92.802027 
L 144.834595 92.329219 
L 146.49921 91.737464 
L 148.640391 90.658033 
L 149.476675 88.978918 
L 149.972205 87.72206 
L 150.271971 86.216407 
L 150.298277 85.418481 
L 157.311561 82.112785 
L 157.494479 82.024567 
L 157.564832 81.989875 
L 157.93495 81.811457 
L 158.283045 81.673678 
L 158.384598 81.633038 
L 158.471469 81.598346 
L 158.695987 81.509137 
L 161.182815 80.27012 
L 166.960944 77.846604 
L 167.611863 77.546267 
L 168.182641 77.351989 
L 171.568153 75.983124 
L 171.717424 76.029711 
L 172.646696 75.65305 
L 172.692579 75.507341 
L 173.13305 75.40029 
L 173.638981 75.253591 
L 174.121052 75.121759 
L 174.353523 75.062287 
L 174.594559 74.970104 
L 175.386184 75.241696 
L 175.899456 75.213942 
L 176.057291 75.09797 
L 176.675787 75.102926 
L 177.232493 75.286301 
L 178.112825 75.848319 
L 178.189907 76.912881 
L 178.541672 77.310358 
L 179.209721 77.678098 
L 180.063134 78.141986 
L 180.922665 77.905086 
L 185.674251 78.345184 
L 189.995765 78.48891 
L 190.005553 78.128109 
L 192.48137 78.159828 
L 192.600664 78.15388 
L 193.189795 78.124144 
L 193.262595 78.120179 
L 194.150267 78.119188 
L 195.118693 78.272826 
L 196.872014 79.042998 
L 197.512533 79.907336 
L 197.842886 80.963969 
L 198.024581 81.762887 
L 198.095546 82.030515 
L 198.107169 83.80776 
L 198.108393 83.975275 
L 198.357381 85.640513 
L 198.366558 85.70395 
L 198.698135 86.486017 
L 199.034606 87.328549 
L 199.728349 88.550714 
L 200.368256 89.172205 
L 201.569152 90.079165 
L 202.923602 90.455826 
L 203.177485 90.526202 
L 204.07984 90.776979 
L 204.53744 90.922687 
L 207.972506 89.461639 
L 209.229685 88.921428 
L 209.288414 88.899621 
L 209.528838 88.812395 
L 209.811474 88.701379 
L 210.101451 88.599284 
L 210.203004 88.516022 
L 210.345546 88.461505 
L 216.00438 86.911248 
L 216.46504 86.812127 
L 216.555581 86.991536 
L 218.412903 86.621814 
L 218.960433 86.458263 
L 219.118269 86.421589 
L 219.284057 86.37401 
L 219.467587 86.30859 
L 219.627258 86.25903 
L 219.761235 86.21839 
L 220.214553 86.107374 
L 220.880766 85.944815 
L 221.797803 85.739634 
L 222.011921 85.718818 
L 222.264581 85.707915 
L 222.487263 85.696021 
L 223.099029 85.669258 
L 223.1859 85.670249 
L 224.35682 85.691065 
L 224.872539 85.722783 
L 225.864211 85.778291 
L 227.226002 85.841729 
L 227.462755 85.852632 
L 228.44464 85.866509 
L 229.496265 86.039972 
L 229.68163 86.187662 
L 230.346008 86.172794 
L 230.457961 86.076646 
L 231.226951 86.337335 
L 232.021023 86.911248 
L 232.651754 87.004422 
L 233.281872 87.072816 
L 233.351002 86.763557 
L 233.508838 86.713005 
L 233.601826 86.744724 
L 233.730909 86.889441 
L 236.92555 88.314806 
L 236.880891 88.484303 
L 239.788614 89.744135 
L 239.876097 89.643031 
L 242.744056 90.917731 
L 244.192717 91.56202 
L 244.300388 91.419285 
L 244.880342 91.56202 
L 244.861377 91.776122 
L 250.506141 93.318449 
L 250.523882 93.153908 
L 251.031036 93.318449 
L 252.216027 92.364902 
L 252.465627 91.707728 
L 255.183091 78.663364 
L 255.379468 78.270843 
L 255.600316 78.007181 
L 255.632127 77.969515 
L 262.05934 72.527755 
L 261.919857 72.36024 
L 262.34014 72.04206 
L 262.442917 72.203628 
L 265.231346 69.663149 
L 265.443017 69.52537 
L 266.123301 68.983177 
L 266.21323 68.890994 
L 266.404101 68.734382 
L 266.782173 68.45486 
L 267.15902 68.239767 
L 267.625186 68.023683 
L 267.905375 67.900772 
L 267.860104 67.772906 
L 267.954928 67.71938 
L 268.008763 67.840308 
L 268.492058 67.610347 
L 269.483731 67.108793 
L 271.169758 66.262297 
L 271.443829 66.129474 
L 271.712394 65.998634 
L 274.798753 64.438465 
L 275.547554 63.936911 
L 275.64666 63.890324 
L 275.92012 63.720827 
L 276.199085 63.53547 
L 276.649956 63.232159 
L 277.119181 62.917944 
L 277.259887 62.822788 
L 277.293534 62.705824 
L 277.354099 62.613642 
L 277.681394 62.38368 
L 277.716876 62.441171 
L 277.75297 62.498661 
L 277.910194 62.379715 
L 278.238101 62.885234 
L 281.45293 60.743223 
L 282.20112 60.510287 
L 282.284932 60.483525 
L 282.372415 60.461718 
L 285.161455 59.719299 
L 285.031149 59.163229 
L 285.691244 58.982828 
L 286.028327 58.896593 
L 287.483107 58.539756 
L 287.635436 58.510019 
L 287.739437 58.69835 
L 288.118732 58.614097 
L 288.146261 58.725113 
L 289.102451 58.540747 
L 303.048266 56.043881 
L 304.034433 59.553767 
L 299.570989 60.653022 
L 290.479536 62.983364 
L 289.430358 63.347139 
L 287.558966 63.995393 
L 287.427436 64.059821 
L 287.223718 64.523709 
L 286.696988 64.796293 
L 279.169208 67.880948 
L 279.089679 67.91564 
L 278.574572 68.118839 
L 278.055794 68.338888 
L 277.95363 68.380519 
L 277.699747 68.563894 
L 270.607545 71.613856 
L 270.24232 71.811108 
L 269.55286 72.179839 
L 268.672529 72.630841 
L 268.352576 72.794391 
L 268.095634 72.925231 
L 267.926175 73.011467 
L 267.677186 73.138342 
L 267.604386 73.204753 
L 267.439209 73.353435 
L 267.497939 73.532845 
L 266.974879 73.926356 
L 266.915538 73.779657 
L 264.825745 75.734329 
L 263.104236 77.344059 
L 257.181119 82.883949 
L 256.4886 83.72648 
L 256.295282 84.382663 
L 254.888832 92.233071 
L 255.004456 92.282631 
L 254.90535 92.662266 
L 254.773208 92.659292 
L 254.676549 93.153908 
L 254.574996 93.387834 
L 254.436737 93.635637 
L 254.122289 94.087631 
L 253.70323 94.660552 
L 253.258476 95.114527 
L 252.82351 95.515969 
L 252.22398 95.831174 
L 251.793297 95.949129 
L 251.440308 95.976883 
L 250.515929 95.90155 
L 248.416349 95.498127 
L 246.585334 94.999547 
L 246.50091 94.976749 
L 243.950458 94.127279 
L 234.624699 90.014736 
L 234.661405 89.870019 
L 234.208698 89.678715 
L 234.131004 89.798652 
L 233.026766 89.284212 
L 232.940507 89.271326 
L 232.738013 89.240599 
L 232.287753 89.173196 
L 231.790387 89.093899 
L 231.666811 89.075066 
L 231.422716 89.0374 
L 229.613724 88.887727 
L 224.553809 88.654792 
L 222.643264 88.579459 
L 219.674976 88.690475 
L 219.305469 88.704352 
L 219.191681 88.708317 
L 215.895486 89.086961 
L 211.21303 89.989956 
L 210.729735 90.292276 
L 210.437922 90.41816 
L 210.152228 90.540079 
L 209.935051 90.608473 
L 209.877545 90.788873 
L 209.72705 90.921696 
L 208.754343 91.208157 
L 205.634337 92.304438 
L 202.16073 92.956656 
L 201.856071 92.729669 
L 201.570988 92.51854 
L 201.369105 92.388691 
L 201.18374 92.260825 
L 199.884961 91.396487 
L 199.752819 91.162561 
L 198.370228 88.706335 
L 198.130416 88.257315 
L 198.087593 88.121519 
L 197.493568 87.250243 
L 196.681143 86.058805 
L 196.320201 80.75185 
L 195.338317 79.784426 
L 193.607631 79.947976 
L 193.433278 79.962844 
L 192.590876 80.035203 
L 192.284993 80.185867 
L 188.857269 80.573431 
L 182.244691 80.473319 
L 178.221719 80.059983 
L 177.305294 79.736848 
L 176.585857 79.306661 
L 175.627832 78.408622 
L 176.099503 78.190555 
L 175.938609 77.91698 
L 175.722043 77.649353 
L 175.434514 77.457057 
L 175.162278 77.383708 
L 174.964066 77.412453 
L 174.814795 77.435251 
L 174.415312 77.493732 
L 173.98157 77.55717 
L 173.905099 77.572038 
L 173.513569 77.64737 
L 173.446886 77.404523 
L 173.265803 77.306393 
L 172.90425 77.437233 
L 172.821661 77.175553 
L 172.15239 77.355954 
L 172.228248 77.488776 
L 169.515067 78.357079 
L 169.025042 78.646513 
L 168.925324 78.705986 
L 168.605983 78.958745 
L 167.958734 79.310626 
L 159.943378 82.763021 
L 159.704177 83.041552 
L 159.831425 83.33396 
L 159.494342 83.481651 
L 159.223329 83.604561 
L 159.152364 83.650157 
L 158.855046 83.817672 
L 158.542434 83.912828 
L 158.455563 83.939591 
L 158.18761 84.021862 
L 156.383512 84.777166 
L 156.222618 84.449075 
L 152.694564 85.972569 
L 152.41621 86.231276 
L 152.378892 86.845828 
L 152.362987 87.177884 
L 152.138468 89.182117 
L 149.512157 92.070512 
L 149.17691 92.91899 
L 148.765191 93.336291 
L 147.709283 93.5722 
L 141.463154 94.965845 
L 138.025029 95.3207 
L 133.657021 95.305831 
L 132.91862 94.908355 
L 132.854996 94.873662 
L 132.561348 94.71606 
L 132.271371 94.559448 
L 132.198571 94.520791 
L 131.10351 93.931019 
L 130.006002 93.512727 
L 129.722143 93.404685 
z
" clip-path="url(#pc077ef8bd4)" style="fill: #0096ff; stroke: #7980ff; stroke-width: 0.3"/>
    <path d="M 332.394064 297.059324 
L 332.406911 295.843105 
L 332.758065 295.346508 
L 334.545033 294.641755 
L 335.595435 294.748806 
L 337.327956 294.33547 
L 340.79361 294.651667 
L 341.643353 295.109608 
L 341.825659 295.78958 
L 341.605423 296.740153 
L 340.371491 297.561869 
L 337.403203 298.700773 
L 335.803436 298.924787 
L 334.102115 298.830622 
L 333.017454 298.151641 
z
" clip-path="url(#pc077ef8bd4)" style="fill: #0096ff; stroke: #7980ff; stroke-width: 0.3"/>
    <path d="M 96.890503 107.844677 
L 97.005515 107.787186 
L 97.30528 107.673197 
L 97.729234 107.516585 
L 99.410978 106.887165 
L 100.57211 106.276578 
L 104.622 103.732134 
L 104.99946 103.352499 
L 108.194101 101.234277 
L 109.194338 100.932948 
L 111.444413 99.671134 
L 113.495053 98.525291 
L 115.102773 97.326915 
L 116.596094 96.400131 
L 118.041085 95.558591 
L 119.200381 94.992608 
L 119.519111 94.842935 
L 121.258973 94.018246 
L 121.890928 93.729803 
L 125.107593 92.236044 
L 128.011645 91.629422 
L 130.013343 91.694842 
L 130.440356 92.007074 
L 129.455413 93.30259 
L 128.274093 93.187609 
L 126.403925 93.614822 
L 124.762557 94.090604 
L 121.678033 95.38612 
L 117.313083 97.436939 
L 115.754304 98.618465 
L 114.982867 100.423465 
L 112.91571 101.062797 
L 105.35979 104.710461 
L 103.637057 105.903882 
L 101.884959 107.20138 
L 101.457335 107.932895 
L 98.485988 108.881486 
L 98.445 108.725865 
L 98.31347 108.816066 
L 97.937234 109.039089 
L 97.671116 109.154069 
L 97.537751 109.21156 
z
" clip-path="url(#pc077ef8bd4)" style="fill: #0096ff; stroke: #7980ff; stroke-width: 0.3"/>
    <path d="M 316.59521 267.92658 
L 323.251223 269.136851 
L 323.380917 269.733562 
L 323.323411 269.998216 
L 323.109905 270.690082 
L 322.947175 271.127207 
L 322.745904 271.531622 
L 322.047268 271.923151 
L 321.034183 271.994519 
L 320.065146 271.929099 
L 318.94745 271.646603 
L 318.267778 271.411685 
L 317.592389 271.003306 
L 317.156811 270.522567 
L 316.935964 270.103284 
L 316.759775 269.158658 
z
" clip-path="url(#pc077ef8bd4)" style="fill: #0096ff; stroke: #7980ff; stroke-width: 0.3"/>
    <path d="M 316.170033 264.094551 
L 316.275868 262.314332 
L 316.634363 262.129966 
L 317.685377 262.06752 
L 320.05597 262.352989 
L 322.473669 263.083513 
L 323.535694 263.592005 
L 323.833012 263.821967 
L 324.056307 264.565377 
L 323.903977 265.936224 
L 323.242047 265.786551 
L 316.278315 264.317573 
z
" clip-path="url(#pc077ef8bd4)" style="fill: #0096ff; stroke: #7980ff; stroke-width: 0.3"/>
    <path d="M 316.325421 264.895451 
L 323.792024 266.410024 
L 323.517953 268.687832 
L 323.265294 268.812725 
L 316.551775 267.593533 
L 316.490598 267.26445 
z
" clip-path="url(#pc077ef8bd4)" style="fill: #0096ff; stroke: #7980ff; stroke-width: 0.3"/>
    <path d="M 440.559168 102.72407 
L 440.559168 102.597195 
L 440.776345 102.572414 
L 440.776345 102.72407 
z
" clip-path="url(#pc077ef8bd4)" style="fill: #0096ff; stroke: #7980ff; stroke-width: 0.3"/>
    <path d="M 134.62667 52.581574 
L 134.684176 52.504259 
L 135.127094 52.343683 
L 135.196836 52.401173 
L 135.484366 53.233792 
L 135.463566 53.291283 
L 135.147894 53.442938 
L 135.012082 53.475648 
L 134.955188 53.446903 
z
" clip-path="url(#pc077ef8bd4)" style="fill: #0096ff; stroke: #7980ff; stroke-width: 0.3"/>
    <path d="M 133.900504 52.897771 
L 133.966574 52.819465 
L 134.385022 52.643029 
L 134.444364 52.65195 
L 134.495752 52.688625 
L 134.811423 53.565849 
L 134.794905 53.60748 
L 134.364222 53.767065 
L 134.257775 53.746249 
L 133.904786 52.959226 
z
" clip-path="url(#pc077ef8bd4)" style="fill: #0096ff; stroke: #7980ff; stroke-width: 0.3"/>
   </g>
  </g>
 </g>
 <defs>
  <clipPath id="pc077ef8bd4">
   <rect x="0" y="0" width="720" height="313.159301"/>
  </clipPath>
 </defs>
</svg>
