<?xml version="1.0" encoding="utf-8" standalone="no"?>
<!DOCTYPE svg PUBLIC "-//W3C//DTD SVG 1.1//EN"
  "http://www.w3.org/Graphics/SVG/1.1/DTD/svg11.dtd">
<svg xmlns:xlink="http://www.w3.org/1999/xlink" width="720pt" height="177.351176pt" viewBox="0 0 720 177.351176" xmlns="http://www.w3.org/2000/svg" version="1.1">
 <metadata>
  <rdf:RDF xmlns:dc="http://purl.org/dc/elements/1.1/" xmlns:cc="http://creativecommons.org/ns#" xmlns:rdf="http://www.w3.org/1999/02/22-rdf-syntax-ns#">
   <cc:Work>
    <dc:type rdf:resource="http://purl.org/dc/dcmitype/StillImage"/>
    <dc:date>2025-08-09T16:01:06.114521</dc:date>
    <dc:format>image/svg+xml</dc:format>
    <dc:creator>
     <cc:Agent>
      <dc:title>Matplotlib v3.10.5, https://matplotlib.org/</dc:title>
     </cc:Agent>
    </dc:creator>
   </cc:Work>
  </rdf:RDF>
 </metadata>
 <defs>
  <style type="text/css">*{stroke-linejoin: round; stroke-linecap: butt}</style>
 </defs>
 <g id="figure_1">
  <g id="patch_1">
   <path d="M 0 177.351176 
L 720 177.351176 
L 720 -0 
L 0 -0 
z
" style="fill: #ffffff"/>
  </g>
  <g id="axes_1">
   <g id="PatchCollection_1">
    <path d="M 32.727273 160.7819 
L 34.70501 159.554874 
L 35.63189 158.019298 
L 36.115993 156.127334 
L 37.255406 155.278222 
L 73.316642 145.182167 
L 77.037445 143.354783 
L 79.885977 142.785519 
L 80.71397 142.778344 
L 81.730881 143.165826 
L 82.917523 142.859667 
L 83.876874 142.029691 
L 91.147272 139.570855 
L 94.062221 137.834362 
L 96.702648 136.748456 
L 111.148986 129.331287 
L 119.753619 125.104865 
L 124.185817 122.928269 
L 130.461443 121.875849 
L 136.433029 120.873658 
L 138.195282 120.691876 
L 145.207394 119.967142 
L 150.318517 119.852332 
L 157.051679 119.701645 
L 162.996698 119.567701 
L 170.36746 117.658994 
L 171.224971 117.395889 
L 173.981996 116.553953 
L 177.713131 116.044486 
L 180.450968 114.628503 
L 182.205841 113.753081 
L 185.117838 113.595218 
L 193.456805 109.49078 
L 197.3252 107.491182 
L 202.312346 104.530055 
L 207.84263 100.951827 
L 215.983824 95.842807 
L 223.311783 91.460913 
L 229.946059 89.62157 
L 234.373829 88.109912 
L 235.786288 89.406302 
L 241.099612 87.944874 
L 244.216762 87.086195 
L 247.053487 86.306447 
L 250.1913 85.933316 
L 253.616918 85.892655 
L 254.843411 86.507364 
L 256.071379 86.485837 
L 256.70455 86.447567 
L 257.693419 86.921156 
L 259.039461 86.60543 
L 260.009143 86.112706 
L 261.237111 86.170111 
L 263.136624 86.803955 
L 264.918064 86.744158 
L 266.739353 87.397137 
L 267.768072 87.437799 
L 271.686648 88.169709 
L 274.815606 88.841822 
L 275.963874 89.595259 
L 278.971806 89.791392 
L 281.386417 89.336938 
L 282.911046 89.573733 
L 285.207582 90.128645 
L 286.850285 90.800759 
L 287.958704 90.901217 
L 289.086309 90.446763 
L 290.236053 89.585692 
L 292.232978 88.803553 
L 293.168713 88.703094 
L 293.604111 88.966199 
L 294.119208 88.994902 
L 295.103649 88.901619 
L 297.162562 89.733987 
L 299.122588 90.14778 
L 300.864178 91.216943 
L 305.99006 90.87969 
L 308.543407 90.425236 
L 311.136604 89.753122 
L 314.362973 88.724621 
L 317.344338 87.117289 
L 319.747142 86.665227 
L 322.319676 86.507364 
L 325.05161 85.517132 
L 327.079529 85.158353 
L 328.812263 83.914584 
L 330.376742 82.33117 
L 332.118331 80.905619 
L 333.313829 79.307855 
L 334.631829 76.332376 
L 336.355707 74.447588 
L 338.154858 73.364074 
L 340.055847 72.591502 
L 341.521439 70.996129 
L 343.519839 69.582538 
L 343.69695 68.27658 
L 344.588408 66.516169 
L 344.945581 64.172142 
L 345.913787 61.765928 
L 346.281292 59.008109 
L 347.035489 55.078277 
L 348.174902 52.081273 
L 348.886297 49.629612 
L 348.811025 46.728282 
L 348.337253 45.668687 
L 347.56387 45.077896 
L 347.249498 45.135301 
L 346.837715 45.259678 
L 346.672412 45.317083 
L 346.455451 45.357744 
L 345.943306 45.455811 
L 345.339653 45.654335 
L 344.617926 45.67347 
L 343.301403 46.118357 
L 342.142803 46.544109 
L 340.708205 46.771336 
L 339.719337 47.127723 
L 338.619774 47.395612 
L 338.032356 47.249708 
L 337.939373 45.671078 
L 337.626477 43.671481 
L 337.976271 43.219418 
L 342.479313 42.853463 
L 344.647445 42.449238 
L 345.721917 42.150255 
L 346.008246 42.109594 
L 346.234063 42.068932 
L 346.591236 42.035446 
L 346.768347 42.033054 
L 347.039917 42.013919 
L 349.844171 38.763377 
L 350.97768 37.584188 
L 352.6071 36.053395 
L 352.980508 35.625252 
L 353.162047 35.517618 
L 353.547263 35.290391 
L 353.979709 35.015327 
L 356.652606 33.434305 
L 360.312896 31.482544 
L 365.450585 29.193531 
L 380.881364 23.350208 
L 398.897961 17.004595 
L 406.636227 14.210898 
L 407.207409 13.983671 
L 408.529837 13.392881 
L 409.979194 12.644228 
L 410.996105 11.988857 
L 411.722259 11.598983 
L 411.82705 11.55593 
L 411.995305 11.486566 
L 413.387101 10.972315 
L 421.475161 9.59221 
L 430.436968 8.195361 
L 433.797645 8.061417 
L 438.313971 8.573276 
L 440.930783 9.276484 
L 443.537264 10.36239 
L 449.514753 12.715983 
L 459.64254 16.801286 
L 460.460201 17.117012 
L 460.638788 17.186376 
L 467.090049 18.932437 
L 472.497832 20.286231 
L 472.524399 19.968113 
L 473.874869 20.286231 
L 473.880772 20.680889 
L 478.894484 21.848118 
L 496.477159 22.520232 
L 507.643996 22.792904 
L 518.598299 23.333465 
L 520.767907 23.130157 
L 520.978964 22.900538 
L 544.407771 24.029498 
L 545.303657 24.153875 
L 546.921269 24.381102 
L 548.869488 24.653774 
L 549.690101 24.768583 
L 551.82281 25.230213 
L 554.796796 25.610519 
L 554.793844 25.966907 
L 587.715791 30.678878 
L 588.416855 30.815214 
L 589.269939 30.863052 
L 601.437451 32.92723 
L 601.636701 33.245348 
L 614.654345 35.974464 
L 617.902852 36.656145 
L 619.148532 37.596147 
L 644.400105 42.52817 
L 645.681206 42.834328 
L 646.931313 43.133311 
L 648.04416 43.398808 
L 648.624198 43.537536 
L 649.396105 43.72171 
L 650.827751 44.063746 
L 651.810716 44.298149 
L 678.436374 50.466765 
L 683.90467 49.397602 
L 683.820542 48.924013 
L 685.199055 48.763758 
L 685.352551 49.646356 
L 685.253664 56.676042 
L 685.163633 62.964251 
L 648.030876 56.355533 
L 647.396229 56.18571 
L 645.543945 55.719297 
L 641.749346 54.76016 
L 641.218014 54.571202 
L 629.943435 52.023868 
L 617.315435 49.474141 
L 617.141276 49.840096 
L 615.894121 49.505236 
L 615.28604 49.720503 
L 611.639033 48.857041 
L 611.531291 49.794651 
L 611.134268 50.000351 
L 608.058443 49.242131 
L 599.865593 47.61088 
L 590.224861 46.142276 
L 590.323748 45.611282 
L 587.190363 45.14726 
L 586.760869 45.085072 
L 585.758717 44.920033 
L 573.56021 42.918044 
L 565.343745 41.401602 
L 565.342269 41.793868 
L 564.080354 41.607302 
L 564.117252 41.298752 
L 553.810879 39.507246 
L 553.745939 39.99997 
L 549.822934 39.260884 
L 547.691701 38.8447 
L 544.857928 38.473961 
L 542.837389 38.208464 
L 542.180603 38.11279 
L 538.741702 37.799456 
L 519.765755 34.725911 
L 518.12748 34.419753 
L 513.873868 33.709369 
L 508.318493 32.783718 
L 494.549604 31.666718 
L 488.167711 31.819797 
L 470.80052 30.324882 
L 470.801996 30.602339 
L 468.380006 30.367936 
L 468.452326 29.961319 
L 467.163845 29.891955 
L 462.125043 27.705792 
L 461.98483 28.107625 
L 458.545928 26.617494 
L 458.04559 26.402226 
L 458.126766 26.084108 
L 457.371093 25.727721 
L 457.072957 25.586601 
L 456.633132 25.378509 
L 456.249392 25.196727 
L 455.27233 24.735097 
L 455.151305 25.057999 
L 454.674581 24.773367 
L 454.7838 24.515046 
L 440.549995 18.291417 
L 440.393547 18.609535 
L 439.234947 18.047447 
L 439.403202 17.813044 
L 438.409906 17.21747 
L 437.615859 17.014162 
L 433.9659 16.899353 
L 428.507936 16.502303 
L 428.543358 16.856299 
L 427.122044 17.018946 
L 427.088097 16.662558 
L 424.31041 16.829989 
L 419.196335 17.736505 
L 414.293318 18.355997 
L 413.091916 18.724344 
L 412.671278 18.898951 
L 411.641083 19.324702 
L 410.010188 19.999208 
L 408.712851 20.534985 
L 408.123958 20.778955 
L 396.803626 25.172808 
L 375.25662 33.439089 
L 372.29887 34.539346 
L 369.890163 35.570239 
L 366.907321 37.153653 
L 358.132957 42.877382 
L 357.623763 43.217027 
L 357.265114 43.422727 
L 356.910892 43.623643 
L 356.562574 43.951329 
L 356.324951 44.37708 
L 356.048953 45.187922 
L 354.977433 50.048189 
L 354.246851 53.313082 
L 354.009227 54.61904 
L 353.961997 55.609271 
L 354.165675 57.561032 
L 354.633543 61.696564 
L 355.942687 70.101572 
L 356.177358 71.295112 
L 357.319723 75.016851 
L 357.442225 75.56698 
L 357.394995 75.928151 
L 357.235596 76.203216 
L 356.856283 76.392173 
L 351.331902 78.970602 
L 349.810225 79.688161 
L 346.698978 81.142414 
L 344.003942 82.567964 
L 343.04164 83.079823 
L 339.065503 86.593471 
L 338.002838 87.997495 
L 335.969015 88.662433 
L 334.401585 89.717244 
L 332.909426 90.721827 
L 330.49334 92.274146 
L 323.959427 95.601229 
L 312.673041 100.782005 
L 309.397967 100.784397 
L 305.939878 100.78918 
L 300.974872 100.19839 
L 287.675326 98.315994 
L 273.115342 97.68215 
L 261.657749 96.612987 
L 254.765187 96.091561 
L 244.80418 96.512529 
L 244.299414 96.538839 
L 242.624241 96.627338 
L 239.756522 97.024387 
L 232.927424 99.770247 
L 226.561767 102.580686 
L 223.980377 104.381759 
L 220.846991 106.567923 
L 217.436132 110.072003 
L 207.832299 116.632884 
L 206.439027 117.362403 
L 203.836974 118.273702 
L 203.655436 117.862302 
L 200.564852 118.807088 
L 200.471869 118.642049 
L 197.672042 119.507904 
L 197.751742 119.668159 
L 196.563624 120.02933 
L 196.59757 120.282868 
L 187.412899 123.277481 
L 170.377791 127.398662 
L 155.590515 128.685484 
L 150.119267 129.56569 
L 145.878939 129.178208 
L 140.019523 129.144722 
L 138.924388 130.228236 
L 138.76794 129.443705 
L 137.96061 129.757039 
L 134.746049 130.211493 
L 134.388875 129.345639 
L 133.714378 129.467624 
L 133.314403 129.539379 
L 132.477555 129.692459 
L 127.505169 131.373939 
L 124.661064 132.400048 
L 123.533459 133.117607 
L 122.801401 133.395063 
L 121.999975 134.026515 
L 121.179361 134.557509 
L 120.500436 134.997612 
L 90.525908 148.772354 
L 80.497009 151.654549 
L 72.007498 155.426518 
L 61.113707 157.593546 
L 59.425251 159.150649 
L 57.437182 160.633605 
L 56.609189 159.837114 
L 56.609189 158.703371 
L 55.168688 158.923422 
L 54.020419 159.466375 
L 52.724559 161.181341 
L 52.537116 162.413151 
L 51.700268 162.205059 
L 50.154976 162.769539 
L 49.340266 164.274021 
L 46.389896 165.55606 
L 41.838148 167.806803 
L 39.417633 169.289759 
z
" clip-path="url(#pd3bdb97bab)" style="stroke: #000000; stroke-width: 0.3"/>
    <path d="M 32.727273 160.7819 
L 34.70501 159.554874 
L 35.63189 158.019298 
L 36.115993 156.127334 
L 37.255406 155.278222 
L 73.316642 145.182167 
L 77.037445 143.354783 
L 79.885977 142.785519 
L 80.71397 142.778344 
L 81.730881 143.165826 
L 82.917523 142.859667 
L 83.876874 142.029691 
L 91.147272 139.570855 
L 94.062221 137.834362 
L 96.702648 136.748456 
L 111.148986 129.331287 
L 119.753619 125.104865 
L 124.185817 122.928269 
L 130.461443 121.875849 
L 136.433029 120.873658 
L 138.195282 120.691876 
L 145.207394 119.967142 
L 150.318517 119.852332 
L 157.051679 119.701645 
L 162.996698 119.567701 
L 170.36746 117.658994 
L 171.224971 117.395889 
L 173.981996 116.553953 
L 177.713131 116.044486 
L 180.450968 114.628503 
L 182.205841 113.753081 
L 185.117838 113.595218 
L 193.456805 109.49078 
L 197.3252 107.491182 
L 202.312346 104.530055 
L 207.84263 100.951827 
L 215.983824 95.842807 
L 223.311783 91.460913 
L 229.946059 89.62157 
L 234.373829 88.109912 
L 235.786288 89.406302 
L 241.099612 87.944874 
L 244.216762 87.086195 
L 247.053487 86.306447 
L 250.1913 85.933316 
L 253.616918 85.892655 
L 254.843411 86.507364 
L 256.071379 86.485837 
L 256.70455 86.447567 
L 257.693419 86.921156 
L 259.039461 86.60543 
L 260.009143 86.112706 
L 261.237111 86.170111 
L 263.136624 86.803955 
L 264.918064 86.744158 
L 266.739353 87.397137 
L 267.768072 87.437799 
L 271.686648 88.169709 
L 274.815606 88.841822 
L 275.963874 89.595259 
L 278.971806 89.791392 
L 281.386417 89.336938 
L 282.911046 89.573733 
L 285.207582 90.128645 
L 286.850285 90.800759 
L 287.958704 90.901217 
L 289.086309 90.446763 
L 290.236053 89.585692 
L 292.232978 88.803553 
L 293.168713 88.703094 
L 293.604111 88.966199 
L 294.119208 88.994902 
L 295.103649 88.901619 
L 297.162562 89.733987 
L 299.122588 90.14778 
L 300.864178 91.216943 
L 305.99006 90.87969 
L 308.543407 90.425236 
L 311.136604 89.753122 
L 314.362973 88.724621 
L 317.344338 87.117289 
L 319.747142 86.665227 
L 322.319676 86.507364 
L 325.05161 85.517132 
L 327.079529 85.158353 
L 328.812263 83.914584 
L 330.376742 82.33117 
L 332.118331 80.905619 
L 333.313829 79.307855 
L 334.631829 76.332376 
L 336.355707 74.447588 
L 338.154858 73.364074 
L 340.055847 72.591502 
L 341.521439 70.996129 
L 343.519839 69.582538 
L 343.69695 68.27658 
L 344.588408 66.516169 
L 344.945581 64.172142 
L 345.913787 61.765928 
L 346.281292 59.008109 
L 347.035489 55.078277 
L 348.174902 52.081273 
L 348.886297 49.629612 
L 348.811025 46.728282 
L 348.337253 45.668687 
L 347.56387 45.077896 
L 347.249498 45.135301 
L 346.837715 45.259678 
L 346.672412 45.317083 
L 346.455451 45.357744 
L 345.943306 45.455811 
L 345.339653 45.654335 
L 344.617926 45.67347 
L 343.301403 46.118357 
L 342.142803 46.544109 
L 340.708205 46.771336 
L 339.719337 47.127723 
L 338.619774 47.395612 
L 338.032356 47.249708 
L 337.939373 45.671078 
L 337.626477 43.671481 
L 337.976271 43.219418 
L 342.479313 42.853463 
L 344.647445 42.449238 
L 345.721917 42.150255 
L 346.008246 42.109594 
L 346.234063 42.068932 
L 346.591236 42.035446 
L 346.768347 42.033054 
L 347.039917 42.013919 
L 349.844171 38.763377 
L 350.97768 37.584188 
L 352.6071 36.053395 
L 352.980508 35.625252 
L 353.162047 35.517618 
L 353.547263 35.290391 
L 353.979709 35.015327 
L 356.652606 33.434305 
L 360.312896 31.482544 
L 365.450585 29.193531 
L 380.881364 23.350208 
L 398.897961 17.004595 
L 406.636227 14.210898 
L 407.207409 13.983671 
L 408.529837 13.392881 
L 409.979194 12.644228 
L 410.996105 11.988857 
L 411.722259 11.598983 
L 411.82705 11.55593 
L 411.995305 11.486566 
L 413.387101 10.972315 
L 421.475161 9.59221 
L 430.436968 8.195361 
L 433.797645 8.061417 
L 438.313971 8.573276 
L 440.930783 9.276484 
L 443.537264 10.36239 
L 449.514753 12.715983 
L 459.64254 16.801286 
L 460.460201 17.117012 
L 460.638788 17.186376 
L 467.090049 18.932437 
L 472.497832 20.286231 
L 472.524399 19.968113 
L 473.874869 20.286231 
L 473.880772 20.680889 
L 478.894484 21.848118 
L 496.477159 22.520232 
L 507.643996 22.792904 
L 518.598299 23.333465 
L 520.767907 23.130157 
L 520.978964 22.900538 
L 544.407771 24.029498 
L 545.303657 24.153875 
L 546.921269 24.381102 
L 548.869488 24.653774 
L 549.690101 24.768583 
L 551.82281 25.230213 
L 554.796796 25.610519 
L 554.793844 25.966907 
L 587.715791 30.678878 
L 588.416855 30.815214 
L 589.269939 30.863052 
L 601.437451 32.92723 
L 601.636701 33.245348 
L 614.654345 35.974464 
L 617.902852 36.656145 
L 619.148532 37.596147 
L 644.400105 42.52817 
L 645.681206 42.834328 
L 646.931313 43.133311 
L 648.04416 43.398808 
L 648.624198 43.537536 
L 649.396105 43.72171 
L 650.827751 44.063746 
L 651.810716 44.298149 
L 678.436374 50.466765 
L 683.90467 49.397602 
L 683.820542 48.924013 
L 685.199055 48.763758 
L 685.352551 49.646356 
L 685.253664 56.676042 
L 685.163633 62.964251 
L 648.030876 56.355533 
L 647.396229 56.18571 
L 645.543945 55.719297 
L 641.749346 54.76016 
L 641.218014 54.571202 
L 629.943435 52.023868 
L 617.315435 49.474141 
L 617.141276 49.840096 
L 615.894121 49.505236 
L 615.28604 49.720503 
L 611.639033 48.857041 
L 611.531291 49.794651 
L 611.134268 50.000351 
L 608.058443 49.242131 
L 599.865593 47.61088 
L 590.224861 46.142276 
L 590.323748 45.611282 
L 587.190363 45.14726 
L 586.760869 45.085072 
L 585.758717 44.920033 
L 573.56021 42.918044 
L 565.343745 41.401602 
L 565.342269 41.793868 
L 564.080354 41.607302 
L 564.117252 41.298752 
L 553.810879 39.507246 
L 553.745939 39.99997 
L 549.822934 39.260884 
L 547.691701 38.8447 
L 544.857928 38.473961 
L 542.837389 38.208464 
L 542.180603 38.11279 
L 538.741702 37.799456 
L 519.765755 34.725911 
L 518.12748 34.419753 
L 513.873868 33.709369 
L 508.318493 32.783718 
L 494.549604 31.666718 
L 488.167711 31.819797 
L 470.80052 30.324882 
L 470.801996 30.602339 
L 468.380006 30.367936 
L 468.452326 29.961319 
L 467.163845 29.891955 
L 462.125043 27.705792 
L 461.98483 28.107625 
L 458.545928 26.617494 
L 458.04559 26.402226 
L 458.126766 26.084108 
L 457.371093 25.727721 
L 457.072957 25.586601 
L 456.633132 25.378509 
L 456.249392 25.196727 
L 455.27233 24.735097 
L 455.151305 25.057999 
L 454.674581 24.773367 
L 454.7838 24.515046 
L 440.549995 18.291417 
L 440.393547 18.609535 
L 439.234947 18.047447 
L 439.403202 17.813044 
L 438.409906 17.21747 
L 437.615859 17.014162 
L 433.9659 16.899353 
L 428.507936 16.502303 
L 428.543358 16.856299 
L 427.122044 17.018946 
L 427.088097 16.662558 
L 424.31041 16.829989 
L 419.196335 17.736505 
L 414.293318 18.355997 
L 413.091916 18.724344 
L 412.671278 18.898951 
L 411.641083 19.324702 
L 410.010188 19.999208 
L 408.712851 20.534985 
L 408.123958 20.778955 
L 396.803626 25.172808 
L 375.25662 33.439089 
L 372.29887 34.539346 
L 369.890163 35.570239 
L 366.907321 37.153653 
L 358.132957 42.877382 
L 357.623763 43.217027 
L 357.265114 43.422727 
L 356.910892 43.623643 
L 356.562574 43.951329 
L 356.324951 44.37708 
L 356.048953 45.187922 
L 354.977433 50.048189 
L 354.246851 53.313082 
L 354.009227 54.61904 
L 353.961997 55.609271 
L 354.165675 57.561032 
L 354.633543 61.696564 
L 355.942687 70.101572 
L 356.177358 71.295112 
L 357.319723 75.016851 
L 357.442225 75.56698 
L 357.394995 75.928151 
L 357.235596 76.203216 
L 356.856283 76.392173 
L 351.331902 78.970602 
L 349.810225 79.688161 
L 346.698978 81.142414 
L 344.003942 82.567964 
L 343.04164 83.079823 
L 339.065503 86.593471 
L 338.002838 87.997495 
L 335.969015 88.662433 
L 334.401585 89.717244 
L 332.909426 90.721827 
L 330.49334 92.274146 
L 323.959427 95.601229 
L 312.673041 100.782005 
L 309.397967 100.784397 
L 305.939878 100.78918 
L 300.974872 100.19839 
L 287.675326 98.315994 
L 273.115342 97.68215 
L 261.657749 96.612987 
L 254.765187 96.091561 
L 244.80418 96.512529 
L 244.299414 96.538839 
L 242.624241 96.627338 
L 239.756522 97.024387 
L 232.927424 99.770247 
L 226.561767 102.580686 
L 223.980377 104.381759 
L 220.846991 106.567923 
L 217.436132 110.072003 
L 207.832299 116.632884 
L 206.439027 117.362403 
L 203.836974 118.273702 
L 203.655436 117.862302 
L 200.564852 118.807088 
L 200.471869 118.642049 
L 197.672042 119.507904 
L 197.751742 119.668159 
L 196.563624 120.02933 
L 196.59757 120.282868 
L 187.412899 123.277481 
L 170.377791 127.398662 
L 155.590515 128.685484 
L 150.119267 129.56569 
L 145.878939 129.178208 
L 140.019523 129.144722 
L 138.924388 130.228236 
L 138.76794 129.443705 
L 137.96061 129.757039 
L 134.746049 130.211493 
L 134.388875 129.345639 
L 133.714378 129.467624 
L 133.314403 129.539379 
L 132.477555 129.692459 
L 127.505169 131.373939 
L 124.661064 132.400048 
L 123.533459 133.117607 
L 122.801401 133.395063 
L 121.999975 134.026515 
L 121.179361 134.557509 
L 120.500436 134.997612 
L 90.525908 148.772354 
L 80.497009 151.654549 
L 72.007498 155.426518 
L 61.113707 157.593546 
L 59.425251 159.150649 
L 57.437182 160.633605 
L 56.609189 159.837114 
L 56.609189 158.703371 
L 55.168688 158.923422 
L 54.020419 159.466375 
L 52.724559 161.181341 
L 52.537116 162.413151 
L 51.700268 162.205059 
L 50.154976 162.769539 
L 49.340266 164.274021 
L 46.389896 165.55606 
L 41.838148 167.806803 
L 39.417633 169.289759 
z
" clip-path="url(#pd3bdb97bab)" style="stroke: #000000; stroke-width: 0.3"/>
    <path d="M 266.089947 160.719712 
L 268.466184 157.593546 
L 269.044745 157.911664 
L 269.663157 158.253701 
L 273.224561 160.215029 
L 273.500558 160.236555 
L 274.27099 160.296352 
L 275.252479 160.372892 
L 275.910741 160.691009 
L 275.969778 160.920628 
L 275.959447 161.262665 
L 276.297433 161.523378 
L 277.611005 161.738646 
L 280.47282 162.109384 
L 284.606882 162.365314 
L 287.76093 161.977832 
L 291.170313 161.752997 
L 291.691314 161.874982 
L 293.140671 161.370299 
L 293.460946 160.937371 
L 298.387578 159.511821 
L 303.193185 158.370902 
L 307.209172 156.942959 
L 312.374904 154.33822 
L 314.392491 150.286403 
L 315.587989 147.25352 
L 316.311192 143.62028 
L 316.374657 141.69483 
L 333.294642 133.717965 
L 333.735943 133.505089 
L 333.905675 133.421374 
L 334.798608 132.990838 
L 335.638409 132.658369 
L 335.883412 132.560303 
L 336.092993 132.476588 
L 336.634657 132.26132 
L 342.634285 129.271491 
L 356.574382 123.423385 
L 358.144764 122.69865 
L 359.521801 122.229845 
L 367.689561 118.926681 
L 368.049686 119.039099 
L 370.291614 118.130191 
L 370.402308 117.778587 
L 371.464973 117.520266 
L 372.685561 117.16627 
L 373.848589 116.848152 
L 374.40944 116.70464 
L 374.990954 116.482197 
L 376.900799 117.137567 
L 378.139098 117.070595 
L 378.519887 116.790747 
L 380.012045 116.802706 
L 381.355135 117.245201 
L 383.478989 118.601388 
L 383.664956 121.170249 
L 384.513611 122.129386 
L 386.12532 123.016768 
L 388.184233 124.13616 
L 390.257905 123.564505 
L 401.721402 124.626492 
L 412.147325 124.973312 
L 412.17094 124.102674 
L 418.144002 124.179213 
L 418.431807 124.164862 
L 419.853121 124.093106 
L 420.028756 124.083539 
L 422.170321 124.081147 
L 424.506707 124.451886 
L 428.736704 126.310364 
L 430.281996 128.396069 
L 431.078994 130.945795 
L 431.517344 132.873637 
L 431.688551 133.51944 
L 431.716593 137.808052 
L 431.719545 138.212276 
L 432.320246 142.230607 
L 432.342385 142.383686 
L 433.142335 144.270867 
L 433.954093 146.303951 
L 435.62779 149.253118 
L 437.171606 150.752817 
L 440.068844 152.941372 
L 443.336538 153.85028 
L 443.949046 154.020102 
L 446.126033 154.625244 
L 447.230024 154.976848 
L 455.517334 151.451241 
L 458.550356 150.147675 
L 458.692045 150.095054 
L 459.272083 149.88457 
L 459.953959 149.616682 
L 460.653547 149.37032 
L 460.89855 149.169403 
L 461.242441 149.037851 
L 474.894732 145.296976 
L 476.006102 145.05779 
L 476.224539 145.490717 
L 480.705442 144.598552 
L 482.026394 144.203894 
L 482.407182 144.115396 
L 482.807157 144.000586 
L 483.249934 143.842723 
L 483.63515 143.72313 
L 483.958377 143.625064 
L 485.052037 143.357175 
L 486.659317 142.964909 
L 488.871726 142.469793 
L 489.388299 142.419564 
L 489.997856 142.393254 
L 490.535092 142.364551 
L 492.011015 142.299971 
L 492.220596 142.302363 
L 495.045514 142.352592 
L 496.289717 142.429132 
L 498.682189 142.563076 
L 501.967594 142.716155 
L 502.538777 142.742466 
L 504.907634 142.775952 
L 507.444746 143.194528 
L 507.891951 143.550916 
L 509.494804 143.515038 
L 509.764898 143.283027 
L 511.620133 143.912087 
L 513.535882 145.296976 
L 515.057559 145.521811 
L 516.57776 145.68685 
L 516.744539 144.940588 
L 517.125328 144.818603 
L 517.349668 144.895143 
L 517.661088 145.244355 
L 525.36836 148.683855 
L 525.260617 149.092863 
L 532.275681 152.132922 
L 532.486738 151.888952 
L 539.405867 154.964888 
L 542.900854 156.5196 
L 543.160616 156.175171 
L 544.559792 156.5196 
L 544.514038 157.036242 
L 558.132383 160.757982 
L 558.175185 160.360932 
L 559.398725 160.757982 
L 562.257589 158.457009 
L 562.859766 156.871203 
L 569.415817 125.39428 
L 569.889589 124.447102 
L 570.422397 123.810866 
L 570.499145 123.719976 
L 586.005196 110.588645 
L 585.668686 110.18442 
L 586.682645 109.416632 
L 586.9306 109.806506 
L 593.657859 103.67616 
L 594.168528 103.343691 
L 595.809755 102.035341 
L 596.026716 101.812898 
L 596.487204 101.434984 
L 597.399325 100.760478 
L 598.308493 100.241444 
L 599.433147 99.720017 
L 600.10912 99.423426 
L 599.999902 99.114876 
L 600.22867 98.985715 
L 600.358551 99.277523 
L 601.52453 98.72261 
L 603.917002 97.512327 
L 607.984647 95.469676 
L 608.645861 95.149166 
L 609.293791 94.83344 
L 616.739825 91.068647 
L 618.546355 89.858364 
L 618.785454 89.745947 
L 619.445192 89.336938 
L 620.118213 88.88966 
L 621.205969 88.157749 
L 622.338002 87.399529 
L 622.677464 87.16991 
L 622.75864 86.88767 
L 622.904757 86.665227 
L 623.694376 86.110314 
L 623.779979 86.249042 
L 623.867059 86.38777 
L 624.246371 86.100747 
L 625.037466 87.320597 
L 632.793443 82.15178 
L 634.598498 81.589692 
L 634.800699 81.525112 
L 635.011756 81.472491 
L 641.740491 79.680985 
L 641.426119 78.33915 
L 643.018641 77.903831 
L 643.831874 77.695739 
L 647.34162 76.834668 
L 647.709125 76.762912 
L 647.960032 77.217366 
L 648.875104 77.014057 
L 648.941521 77.281946 
L 651.248389 76.83706 
L 684.893539 70.811955 
L 687.272727 79.281544 
L 676.50439 81.934121 
L 654.570693 87.557392 
L 652.039484 88.435206 
L 647.524635 89.999484 
L 647.207311 90.154955 
L 646.715829 91.274348 
L 645.445059 91.93211 
L 627.283821 99.375589 
L 627.091951 99.459304 
L 625.849224 99.949636 
L 624.597641 100.48063 
L 624.351162 100.581088 
L 623.738653 101.023583 
L 606.628274 108.383347 
L 605.747147 108.859328 
L 604.083782 109.749101 
L 601.959928 110.837399 
L 601.18802 111.232056 
L 600.568132 111.547782 
L 600.159301 111.755875 
L 599.558601 112.062033 
L 599.382966 112.222288 
L 598.984466 112.581067 
L 599.126155 113.013995 
L 597.86424 113.963565 
L 597.721076 113.609569 
L 592.679322 118.326323 
L 588.526073 122.21071 
L 574.236183 135.578835 
L 572.565438 137.611919 
L 572.099046 139.195332 
L 568.705898 158.138891 
L 568.984848 158.258484 
L 568.745748 159.174568 
L 568.426949 159.167392 
L 568.193753 160.360932 
L 567.948749 160.925412 
L 567.615191 161.523378 
L 566.856566 162.614068 
L 565.845559 163.996565 
L 564.772562 165.092038 
L 563.723181 166.060743 
L 562.276776 166.821356 
L 561.237726 167.105987 
L 560.386118 167.172959 
L 558.155998 166.991178 
L 553.090629 166.017689 
L 548.67319 164.814582 
L 548.469513 164.759569 
L 542.316388 162.709742 
L 519.817412 152.785901 
L 519.905967 152.436689 
L 518.813784 151.975059 
L 518.626342 152.264474 
L 515.9623 151.023097 
L 515.754195 150.992003 
L 515.265664 150.917855 
L 514.179385 150.755209 
L 512.979459 150.563859 
L 512.681322 150.518414 
L 512.092429 150.427523 
L 507.728123 150.066352 
L 495.520761 149.504264 
L 490.911452 149.322482 
L 483.750272 149.590371 
L 482.858814 149.623857 
L 482.584293 149.633425 
L 474.632017 150.547116 
L 463.3353 152.726104 
L 462.16932 153.455622 
L 461.465305 153.759389 
L 460.776049 154.053588 
L 460.252096 154.218627 
L 460.113359 154.653946 
L 459.750282 154.974456 
L 457.403564 155.665704 
L 449.876355 158.311105 
L 441.496062 159.884951 
L 440.761052 159.337215 
L 440.073271 158.827748 
L 439.586217 158.514414 
L 439.139012 158.205863 
L 436.005627 156.120158 
L 435.686827 155.555679 
L 432.35124 149.628641 
L 431.772678 148.545127 
L 431.669364 148.217441 
L 430.236242 146.114993 
L 428.276216 143.239973 
L 427.405421 130.433936 
L 425.036564 128.099478 
L 420.861177 128.494135 
L 420.440539 128.530013 
L 418.408192 128.704619 
L 417.67023 129.068182 
L 409.400632 130.003401 
L 393.447376 129.761823 
L 383.741704 128.764416 
L 381.53077 127.984668 
L 379.795084 126.946599 
L 377.483788 124.779571 
L 378.621725 124.253361 
L 378.233557 123.593207 
L 377.711081 122.947404 
L 377.017397 122.483382 
L 376.360611 122.306384 
L 375.882412 122.375748 
L 375.522286 122.430761 
L 374.558508 122.571881 
L 373.512079 122.72496 
L 373.327588 122.760838 
L 372.382997 122.94262 
L 372.222122 122.356613 
L 371.785248 122.119819 
L 370.912978 122.435545 
L 370.713728 121.804093 
L 369.099068 122.239412 
L 369.282082 122.559922 
L 362.736362 124.655194 
L 361.554147 125.353618 
L 361.313572 125.49713 
L 360.54314 126.107055 
L 358.981613 126.956167 
L 339.644065 135.287027 
L 339.066979 135.959141 
L 339.373971 136.664741 
L 338.560737 137.021128 
L 337.906903 137.31772 
L 337.735696 137.427745 
L 337.018397 137.83197 
L 336.2642 138.061589 
L 336.054619 138.126169 
L 335.408165 138.324694 
L 331.055667 140.147294 
L 330.667499 139.355587 
L 322.155848 143.031881 
L 321.484303 143.656158 
L 321.394272 145.139113 
L 321.355898 145.940387 
L 320.814234 150.776735 
L 314.478095 157.746626 
L 313.669289 159.794061 
L 312.675993 160.801035 
L 310.128549 161.370299 
L 295.059371 164.733259 
L 286.764682 165.589546 
L 276.226589 165.553668 
L 274.445149 164.594531 
L 274.291653 164.510815 
L 273.58321 164.130509 
L 272.883622 163.752595 
L 272.707987 163.659312 
L 270.066084 162.236153 
L 267.418278 161.226787 
L 266.733449 160.966074 
z
" clip-path="url(#pd3bdb97bab)" style="stroke: #000000; stroke-width: 0.3"/>
   </g>
  </g>
 </g>
 <defs>
  <clipPath id="pd3bdb97bab">
   <rect x="0" y="0" width="720" height="177.351176"/>
  </clipPath>
 </defs>
</svg>
