<?xml version="1.0" encoding="utf-8" standalone="no"?>
<!DOCTYPE svg PUBLIC "-//W3C//DTD SVG 1.1//EN"
  "http://www.w3.org/Graphics/SVG/1.1/DTD/svg11.dtd">
<svg xmlns:xlink="http://www.w3.org/1999/xlink" width="720pt" height="367.404238pt" viewBox="0 0 720 367.404238" xmlns="http://www.w3.org/2000/svg" version="1.1">
 <metadata>
  <rdf:RDF xmlns:dc="http://purl.org/dc/elements/1.1/" xmlns:cc="http://creativecommons.org/ns#" xmlns:rdf="http://www.w3.org/1999/02/22-rdf-syntax-ns#">
   <cc:Work>
    <dc:type rdf:resource="http://purl.org/dc/dcmitype/StillImage"/>
    <dc:date>2025-08-09T17:31:31.814750</dc:date>
    <dc:format>image/svg+xml</dc:format>
    <dc:creator>
     <cc:Agent>
      <dc:title>Matplotlib v3.10.5, https://matplotlib.org/</dc:title>
     </cc:Agent>
    </dc:creator>
   </cc:Work>
  </rdf:RDF>
 </metadata>
 <defs>
  <style type="text/css">*{stroke-linejoin: round; stroke-linecap: butt}</style>
 </defs>
 <g id="figure_1">
  <g id="patch_1">
   <path d="M 0 367.404238 
L 720 367.404238 
L 720 -0 
L 0 -0 
z
" style="fill: #ffffff"/>
  </g>
  <g id="axes_1">
   <g id="PatchCollection_1">
    <path d="M 326.158874 329.858508 
L 326.377534 327.439789 
L 326.674753 325.057139 
L 327.211581 321.397235 
L 327.698655 319.220388 
L 328.307496 317.124165 
L 329.831565 312.127601 
L 331.305878 307.281677 
L 332.920291 303.348076 
L 333.876107 301.444927 
L 334.87775 299.573602 
L 337.942908 294.721313 
L 341.487283 289.395888 
L 342.407747 288.360506 
L 343.533777 287.312395 
L 344.955717 286.168808 
L 346.282076 285.194955 
L 348.146572 283.983474 
L 350.107958 282.861104 
L 351.044134 282.41555 
L 351.927937 282.029404 
L 352.417629 281.904225 
L 352.928271 281.853304 
L 353.593414 281.853304 
L 354.231061 281.92332 
L 354.914535 282.063351 
L 355.545635 282.228842 
L 356.280173 282.457984 
L 357.069704 282.797453 
L 357.889349 283.149653 
L 358.685426 283.531556 
L 360.568252 284.626344 
L 362.415727 285.846312 
L 363.965982 287.025968 
L 365.542424 288.345655 
L 366.321479 289.126434 
L 367.183023 290.159694 
L 367.60463 290.808929 
L 367.928036 291.494233 
L 368.31429 292.762999 
L 368.494979 293.422843 
L 368.659955 294.069956 
L 368.879924 295.415103 
L 368.882543 297.154883 
L 368.821004 298.132979 
L 368.471411 301.438562 
L 368.110034 304.733536 
L 367.591536 309.874374 
L 366.989241 315.800235 
L 366.640958 319.163103 
L 366.464197 320.847719 
L 366.191855 322.772086 
L 365.732278 325.061382 
L 365.475648 326.270741 
L 365.173191 327.467371 
L 364.80003 328.939819 
L 364.302482 330.412267 
L 363.728992 331.965339 
L 363.073014 333.446274 
L 362.341095 334.884775 
L 361.525378 336.329641 
L 360.780365 337.500811 
L 359.818002 338.805646 
L 358.389515 340.549669 
L 357.415369 341.635971 
L 356.394086 342.694691 
L 353.450696 345.544111 
L 351.866398 347.008073 
L 350.089628 348.245014 
L 348.896822 348.868789 
L 347.664736 349.428913 
L 346.934125 349.706854 
L 346.143286 349.974186 
L 344.59434 350.358211 
L 343.038848 350.587352 
L 341.313141 350.704045 
L 340.075818 350.640394 
L 338.640784 350.407009 
L 337.006732 349.927509 
L 335.338636 349.042767 
L 333.980854 348.149538 
L 332.678063 347.239336 
L 331.406697 346.250632 
L 330.431241 345.331943 
L 329.533036 344.383551 
L 328.87313 345.130383 
L 328.700297 344.954284 
L 328.561508 344.801522 
L 329.170349 344.099245 
L 328.392603 343.093567 
L 327.745791 341.928763 
L 326.746767 339.435786 
L 326.419432 337.163463 
L 326.161493 334.227053 
z
M 332.472498 330.985121 
L 333.331423 333.070736 
L 334.115716 333.024059 
L 334.61981 332.423623 
L 334.634213 333.206524 
L 335.654187 333.565088 
L 335.685611 334.65139 
L 336.211964 336.499376 
L 335.23258 335.287895 
L 333.826352 335.103309 
L 333.563175 336.993728 
L 334.846326 339.306363 
L 334.090838 340.967641 
L 334.763837 341.317719 
L 335.309831 341.207391 
L 335.778574 340.416003 
L 335.262695 339.906799 
L 335.366132 339.654319 
L 335.921291 339.41669 
L 336.647973 338.196723 
L 337.78055 336.798533 
L 338.958953 336.830359 
L 336.737008 341.065238 
L 336.514421 341.966954 
L 338.255839 343.23572 
L 339.250936 342.796532 
L 339.762886 343.836156 
L 340.602171 343.628232 
L 340.675494 344.014378 
L 341.492521 344.368699 
L 342.121002 344.165017 
L 342.427387 343.700369 
L 347.642477 343.774628 
L 350.702398 342.196095 
L 349.322356 341.039778 
L 348.865398 339.527018 
L 351.042825 339.259686 
L 352.767222 338.655006 
L 353.771484 338.782307 
L 356.837951 334.645025 
L 358.140741 331.729832 
L 358.691972 329.29414 
L 353.297504 325.583316 
L 348.196326 324.359105 
L 346.788789 324.80678 
L 345.990093 327.079103 
L 345.229369 327.257324 
L 345.543609 328.608836 
L 344.883704 328.782814 
L 344.395321 328.169648 
L 344.556369 327.091833 
L 345.08927 326.215578 
L 345.060464 324.753738 
L 345.962597 324.129963 
L 345.436244 323.69714 
L 346.449671 322.078296 
L 345.695493 321.692149 
L 344.832639 323.538014 
L 343.256198 323.315237 
L 343.889917 321.624255 
L 344.631002 321.146877 
L 343.857183 320.750122 
L 341.585484 320.750122 
L 341.203157 322.237422 
L 340.219845 321.503319 
L 339.549464 320.750122 
L 337.901009 320.750122 
L 336.226367 321.76853 
L 335.676445 323.204909 
L 335.104265 324.702818 
L 333.750411 325.683035 
L 333.635189 326.376826 
L 335.07415 326.376826 
L 334.259743 327.437667 
L 333.220129 328.076294 
L 333.302617 329.419319 
z
" clip-path="url(#p2c702c51ee)" style="fill: #0096ff; stroke: #7980ff; stroke-width: 0.3"/>
    <path d="M 106.605307 152.169663 
L 108.359819 151.08124 
L 109.182083 149.719119 
L 109.611545 148.040868 
L 110.622353 147.28767 
L 142.613386 138.332046 
L 145.914225 136.71108 
L 148.441245 136.206119 
L 149.175783 136.199754 
L 150.077916 136.543467 
L 151.130623 136.271891 
L 151.981693 135.535667 
L 158.431487 133.354577 
L 161.017428 131.814235 
L 163.359832 130.850991 
L 176.175623 124.271651 
L 183.809058 120.522637 
L 187.740997 118.591905 
L 193.308298 117.658365 
L 198.605876 116.76938 
L 200.169225 116.608132 
L 206.389885 115.965262 
L 210.924119 115.863421 
L 216.897315 115.729755 
L 222.171325 115.610941 
L 228.710154 113.917837 
L 229.470879 113.684452 
L 231.91672 112.93762 
L 235.226724 112.485701 
L 237.655545 111.229665 
L 239.212346 110.453129 
L 241.795668 110.313098 
L 249.193423 106.672289 
L 252.625195 104.898562 
L 257.049445 102.271918 
L 261.955531 99.09788 
L 269.177835 94.565965 
L 275.678693 90.679042 
L 281.564163 89.047467 
L 285.492174 87.706563 
L 286.74521 88.856516 
L 291.458823 87.560167 
L 294.224143 86.798483 
L 296.740689 86.106814 
L 299.52434 85.775832 
L 302.563311 85.739763 
L 303.65137 86.285036 
L 304.740739 86.265941 
L 305.302444 86.231994 
L 306.1797 86.652087 
L 307.373815 86.372025 
L 308.23405 85.934958 
L 309.323418 85.985878 
L 311.008535 86.548124 
L 312.588905 86.495082 
L 314.204627 87.074302 
L 315.117235 87.11037 
L 318.593525 87.759606 
L 321.369319 88.355799 
L 322.387983 89.024129 
L 325.056412 89.198107 
L 327.198488 88.794987 
L 328.551033 89.005034 
L 330.588362 89.497264 
L 332.045654 90.093457 
L 333.028966 90.182568 
L 334.029299 89.779448 
L 335.049273 89.015642 
L 336.820806 88.321852 
L 337.650926 88.232741 
L 338.03718 88.466126 
L 338.494139 88.491586 
L 339.367467 88.408841 
L 341.193992 89.147186 
L 342.932791 89.514238 
L 344.477809 90.46263 
L 349.025137 90.163473 
L 351.29029 89.760353 
L 353.590795 89.16416 
L 356.453006 88.251836 
L 359.097867 86.826065 
L 361.229468 86.425067 
L 363.511642 86.285036 
L 365.935225 85.406659 
L 367.734254 85.088406 
L 369.271416 83.985131 
L 370.659313 82.580577 
L 372.204331 81.316054 
L 373.264894 79.898769 
L 374.434132 77.259396 
L 375.963437 75.587509 
L 377.559519 74.626387 
L 379.245946 73.941083 
L 380.546117 72.52592 
L 382.31896 71.272006 
L 382.47608 70.113567 
L 383.26692 68.552008 
L 383.583779 66.472758 
L 384.442704 64.338345 
L 384.768729 61.892044 
L 385.4378 58.406119 
L 386.448609 55.74765 
L 387.079709 53.572925 
L 387.012933 50.999323 
L 386.592636 50.059417 
L 385.906543 49.535361 
L 385.627654 49.586282 
L 385.262349 49.696609 
L 385.115704 49.74753 
L 384.923231 49.783598 
L 384.468891 49.870587 
L 383.933372 50.046687 
L 383.293106 50.063661 
L 382.125178 50.458294 
L 381.097348 50.835953 
L 379.824672 51.037513 
L 378.947417 51.353644 
L 377.971961 51.591272 
L 377.450844 51.46185 
L 377.368356 50.061539 
L 377.090777 48.287812 
L 377.40109 47.886814 
L 381.395877 47.562196 
L 383.319293 47.203632 
L 384.272491 46.938421 
L 384.526502 46.902353 
L 384.72683 46.866284 
L 385.04369 46.83658 
L 385.20081 46.834459 
L 385.441728 46.817485 
L 387.929469 43.934118 
L 388.93504 42.888128 
L 390.380548 41.530251 
L 390.71181 41.15047 
L 390.872859 41.054994 
L 391.214596 40.853434 
L 391.598231 40.60944 
L 393.969441 39.207008 
L 397.216597 37.475714 
L 401.774399 35.445263 
L 415.463518 30.261991 
L 431.446596 24.633166 
L 438.31145 22.15504 
L 438.818163 21.95348 
L 439.991329 21.429424 
L 441.277098 20.765338 
L 442.179232 20.183996 
L 442.823425 19.838162 
L 442.916388 19.799972 
L 443.065653 19.738443 
L 444.300358 19.282281 
L 451.475525 18.05807 
L 459.425819 16.819007 
L 462.40718 16.700193 
L 466.413751 17.154233 
L 468.735206 17.778008 
L 471.047495 18.741252 
L 476.35031 20.828988 
L 485.334981 24.452823 
L 486.060354 24.732885 
L 486.218784 24.794414 
L 491.941896 26.343243 
L 496.739307 27.544115 
L 496.762875 27.261931 
L 497.960918 27.544115 
L 497.966156 27.894193 
L 502.413974 28.929574 
L 518.012106 29.525767 
L 527.918551 29.767639 
L 537.63645 30.24714 
L 539.561176 30.066797 
L 539.748411 29.863115 
L 560.532827 30.864549 
L 561.327595 30.974877 
L 562.762628 31.176437 
L 564.490953 31.418309 
L 565.218945 31.52015 
L 567.110937 31.929634 
L 569.749251 32.266982 
L 569.746632 32.583113 
L 598.952705 36.762829 
L 599.57464 36.883765 
L 600.331437 36.926198 
L 611.125612 38.757211 
L 611.302372 39.039395 
L 622.850725 41.460235 
L 625.732576 42.064915 
L 626.837656 42.898736 
L 649.239104 47.273647 
L 650.375609 47.545223 
L 651.484617 47.810433 
L 652.471857 48.04594 
L 652.986427 48.168997 
L 653.67121 48.332367 
L 654.941267 48.635768 
L 655.813286 48.843693 
L 679.433726 54.315514 
L 684.28482 53.367121 
L 684.210188 52.947028 
L 685.433109 52.804875 
L 685.56928 53.587776 
L 685.481554 59.823403 
L 685.401685 65.401308 
L 652.460073 59.539098 
L 651.897058 59.388458 
L 650.25384 58.97473 
L 646.887535 58.123935 
L 646.416174 57.956322 
L 636.414148 55.696729 
L 625.21146 53.435015 
L 625.056958 53.759633 
L 623.950568 53.462597 
L 623.411121 53.653548 
L 620.175749 52.887621 
L 620.080168 53.719321 
L 619.727956 53.901785 
L 616.999298 53.229212 
L 609.731168 51.782224 
L 601.178578 50.47951 
L 601.266304 50.008497 
L 598.486581 49.59689 
L 598.105564 49.541726 
L 597.216524 49.39533 
L 586.394853 47.619482 
L 579.105774 46.274334 
L 579.104464 46.62229 
L 577.984981 46.456799 
L 578.017715 46.183102 
L 568.874614 44.593961 
L 568.817003 45.031028 
L 565.336785 44.375428 
L 563.446102 44.006255 
L 560.932175 43.677394 
L 559.139693 43.441887 
L 558.557038 43.35702 
L 555.506282 43.07908 
L 538.672136 40.352717 
L 537.218772 40.081141 
L 533.445262 39.451001 
L 528.516918 38.62991 
L 516.302112 37.639084 
L 510.640539 37.774872 
L 495.233569 36.44882 
L 495.234879 36.694935 
L 493.086257 36.48701 
L 493.150414 36.126324 
L 492.007363 36.064795 
L 487.537286 34.125577 
L 487.412899 34.482019 
L 484.362144 33.160211 
L 483.918278 32.969259 
L 483.990292 32.687075 
L 483.319911 32.370945 
L 483.055425 32.245765 
L 482.665243 32.061179 
L 482.324815 31.899931 
L 481.458034 31.490446 
L 481.350668 31.776873 
L 480.927753 31.524393 
L 481.024644 31.295251 
L 468.397397 25.774632 
L 468.258607 26.056815 
L 467.230778 25.55822 
L 467.380042 25.350295 
L 466.498858 24.821996 
L 465.794435 24.641653 
L 462.556444 24.539812 
L 457.714516 24.187613 
L 457.74594 24.501622 
L 456.485048 24.645896 
L 456.454934 24.329765 
L 453.990761 24.478283 
L 449.453908 25.282401 
L 445.104291 25.831917 
L 444.03849 26.158656 
L 443.665329 26.313539 
L 442.751412 26.691199 
L 441.304594 27.289513 
L 440.153687 27.76477 
L 439.631262 27.981182 
L 429.588646 31.878714 
L 410.473634 39.211251 
L 407.849723 40.187225 
L 405.712885 41.101671 
L 403.066715 42.506225 
L 395.282706 47.583413 
L 394.830985 47.884692 
L 394.512816 48.067157 
L 394.198575 48.245378 
L 393.889571 48.536049 
L 393.678768 48.913708 
L 393.433922 49.632959 
L 392.483343 53.944219 
L 391.835221 56.840317 
L 391.624418 57.998756 
L 391.582519 58.877132 
L 391.763208 60.608426 
L 392.178268 64.276816 
L 393.33965 71.732411 
L 393.547834 72.791131 
L 394.561261 76.09247 
L 394.669936 76.580457 
L 394.628037 76.900831 
L 394.486629 77.144825 
L 394.150129 77.312438 
L 389.249281 79.599612 
L 387.899354 80.236117 
L 385.139272 81.5261 
L 382.748422 82.790624 
L 381.894734 83.244664 
L 378.36738 86.361416 
L 377.424658 87.606844 
L 375.620391 88.196672 
L 374.229875 89.132335 
L 372.906135 90.023442 
L 370.762751 91.400414 
L 364.966315 94.351675 
L 354.953815 98.947241 
L 352.048396 98.949363 
L 348.980619 98.953606 
L 344.576009 98.42955 
L 332.777573 96.759786 
L 319.860963 96.19754 
L 309.696579 95.249147 
L 303.581975 94.78662 
L 294.745259 95.160036 
L 294.297466 95.183375 
L 292.811369 95.261877 
L 290.267327 95.614077 
L 284.209024 98.049769 
L 278.561853 100.542747 
L 276.271823 102.140374 
L 273.4921 104.079593 
L 270.466222 107.187858 
L 261.946366 113.007635 
L 260.710352 113.654749 
L 258.40199 114.46311 
L 258.240942 114.09818 
L 255.49919 114.936245 
L 255.416702 114.789849 
L 252.93289 115.557899 
L 253.003594 115.700051 
L 251.949577 116.020425 
L 251.979692 116.245324 
L 243.831688 118.901671 
L 228.719319 122.557331 
L 215.601071 123.698797 
L 210.747359 124.479576 
L 206.985633 124.135864 
L 201.787565 124.10616 
L 200.816037 125.067283 
L 200.677247 124.37137 
L 199.96104 124.649311 
L 197.109304 125.052431 
L 196.792444 124.284381 
L 196.194077 124.392587 
L 195.839247 124.456238 
L 195.096853 124.592025 
L 190.685696 126.083569 
L 188.162604 126.993771 
L 187.16227 127.630276 
L 186.512839 127.876391 
L 185.801869 128.436515 
L 185.073878 128.907529 
L 184.471582 129.297919 
L 157.880256 141.516692 
L 148.983311 144.07332 
L 141.452004 147.419215 
L 131.787787 149.34146 
L 130.289905 150.722675 
L 128.526228 152.038119 
L 127.79169 151.331599 
L 127.79169 150.325921 
L 126.513777 150.521116 
L 125.495113 151.002738 
L 124.345515 152.523985 
L 124.179229 153.616651 
L 123.436835 153.432065 
L 122.065959 153.932782 
L 121.343205 155.267321 
L 118.72584 156.404543 
L 114.687845 158.401047 
L 112.540532 159.71649 
z
" clip-path="url(#p2c702c51ee)" style="fill: #0096ff; stroke: #7980ff; stroke-width: 0.3"/>
    <path d="M 106.605307 152.169663 
L 108.359819 151.08124 
L 109.182083 149.719119 
L 109.611545 148.040868 
L 110.622353 147.28767 
L 142.613386 138.332046 
L 145.914225 136.71108 
L 148.441245 136.206119 
L 149.175783 136.199754 
L 150.077916 136.543467 
L 151.130623 136.271891 
L 151.981693 135.535667 
L 158.431487 133.354577 
L 161.017428 131.814235 
L 163.359832 130.850991 
L 176.175623 124.271651 
L 183.809058 120.522637 
L 187.740997 118.591905 
L 193.308298 117.658365 
L 198.605876 116.76938 
L 200.169225 116.608132 
L 206.389885 115.965262 
L 210.924119 115.863421 
L 216.897315 115.729755 
L 222.171325 115.610941 
L 228.710154 113.917837 
L 229.470879 113.684452 
L 231.91672 112.93762 
L 235.226724 112.485701 
L 237.655545 111.229665 
L 239.212346 110.453129 
L 241.795668 110.313098 
L 249.193423 106.672289 
L 252.625195 104.898562 
L 257.049445 102.271918 
L 261.955531 99.09788 
L 269.177835 94.565965 
L 275.678693 90.679042 
L 281.564163 89.047467 
L 285.492174 87.706563 
L 286.74521 88.856516 
L 291.458823 87.560167 
L 294.224143 86.798483 
L 296.740689 86.106814 
L 299.52434 85.775832 
L 302.563311 85.739763 
L 303.65137 86.285036 
L 304.740739 86.265941 
L 305.302444 86.231994 
L 306.1797 86.652087 
L 307.373815 86.372025 
L 308.23405 85.934958 
L 309.323418 85.985878 
L 311.008535 86.548124 
L 312.588905 86.495082 
L 314.204627 87.074302 
L 315.117235 87.11037 
L 318.593525 87.759606 
L 321.369319 88.355799 
L 322.387983 89.024129 
L 325.056412 89.198107 
L 327.198488 88.794987 
L 328.551033 89.005034 
L 330.588362 89.497264 
L 332.045654 90.093457 
L 333.028966 90.182568 
L 334.029299 89.779448 
L 335.049273 89.015642 
L 336.820806 88.321852 
L 337.650926 88.232741 
L 338.03718 88.466126 
L 338.494139 88.491586 
L 339.367467 88.408841 
L 341.193992 89.147186 
L 342.932791 89.514238 
L 344.477809 90.46263 
L 349.025137 90.163473 
L 351.29029 89.760353 
L 353.590795 89.16416 
L 356.453006 88.251836 
L 359.097867 86.826065 
L 361.229468 86.425067 
L 363.511642 86.285036 
L 365.935225 85.406659 
L 367.734254 85.088406 
L 369.271416 83.985131 
L 370.659313 82.580577 
L 372.204331 81.316054 
L 373.264894 79.898769 
L 374.434132 77.259396 
L 375.963437 75.587509 
L 377.559519 74.626387 
L 379.245946 73.941083 
L 380.546117 72.52592 
L 382.31896 71.272006 
L 382.47608 70.113567 
L 383.26692 68.552008 
L 383.583779 66.472758 
L 384.442704 64.338345 
L 384.768729 61.892044 
L 385.4378 58.406119 
L 386.448609 55.74765 
L 387.079709 53.572925 
L 387.012933 50.999323 
L 386.592636 50.059417 
L 385.906543 49.535361 
L 385.627654 49.586282 
L 385.262349 49.696609 
L 385.115704 49.74753 
L 384.923231 49.783598 
L 384.468891 49.870587 
L 383.933372 50.046687 
L 383.293106 50.063661 
L 382.125178 50.458294 
L 381.097348 50.835953 
L 379.824672 51.037513 
L 378.947417 51.353644 
L 377.971961 51.591272 
L 377.450844 51.46185 
L 377.368356 50.061539 
L 377.090777 48.287812 
L 377.40109 47.886814 
L 381.395877 47.562196 
L 383.319293 47.203632 
L 384.272491 46.938421 
L 384.526502 46.902353 
L 384.72683 46.866284 
L 385.04369 46.83658 
L 385.20081 46.834459 
L 385.441728 46.817485 
L 387.929469 43.934118 
L 388.93504 42.888128 
L 390.380548 41.530251 
L 390.71181 41.15047 
L 390.872859 41.054994 
L 391.214596 40.853434 
L 391.598231 40.60944 
L 393.969441 39.207008 
L 397.216597 37.475714 
L 401.774399 35.445263 
L 415.463518 30.261991 
L 431.446596 24.633166 
L 438.31145 22.15504 
L 438.818163 21.95348 
L 439.991329 21.429424 
L 441.277098 20.765338 
L 442.179232 20.183996 
L 442.823425 19.838162 
L 442.916388 19.799972 
L 443.065653 19.738443 
L 444.300358 19.282281 
L 451.475525 18.05807 
L 459.425819 16.819007 
L 462.40718 16.700193 
L 466.413751 17.154233 
L 468.735206 17.778008 
L 471.047495 18.741252 
L 476.35031 20.828988 
L 485.334981 24.452823 
L 486.060354 24.732885 
L 486.218784 24.794414 
L 491.941896 26.343243 
L 496.739307 27.544115 
L 496.762875 27.261931 
L 497.960918 27.544115 
L 497.966156 27.894193 
L 502.413974 28.929574 
L 518.012106 29.525767 
L 527.918551 29.767639 
L 537.63645 30.24714 
L 539.561176 30.066797 
L 539.748411 29.863115 
L 560.532827 30.864549 
L 561.327595 30.974877 
L 562.762628 31.176437 
L 564.490953 31.418309 
L 565.218945 31.52015 
L 567.110937 31.929634 
L 569.749251 32.266982 
L 569.746632 32.583113 
L 598.952705 36.762829 
L 599.57464 36.883765 
L 600.331437 36.926198 
L 611.125612 38.757211 
L 611.302372 39.039395 
L 622.850725 41.460235 
L 625.732576 42.064915 
L 626.837656 42.898736 
L 649.239104 47.273647 
L 650.375609 47.545223 
L 651.484617 47.810433 
L 652.471857 48.04594 
L 652.986427 48.168997 
L 653.67121 48.332367 
L 654.941267 48.635768 
L 655.813286 48.843693 
L 679.433726 54.315514 
L 684.28482 53.367121 
L 684.210188 52.947028 
L 685.433109 52.804875 
L 685.56928 53.587776 
L 685.481554 59.823403 
L 685.401685 65.401308 
L 652.460073 59.539098 
L 651.897058 59.388458 
L 650.25384 58.97473 
L 646.887535 58.123935 
L 646.416174 57.956322 
L 636.414148 55.696729 
L 625.21146 53.435015 
L 625.056958 53.759633 
L 623.950568 53.462597 
L 623.411121 53.653548 
L 620.175749 52.887621 
L 620.080168 53.719321 
L 619.727956 53.901785 
L 616.999298 53.229212 
L 609.731168 51.782224 
L 601.178578 50.47951 
L 601.266304 50.008497 
L 598.486581 49.59689 
L 598.105564 49.541726 
L 597.216524 49.39533 
L 586.394853 47.619482 
L 579.105774 46.274334 
L 579.104464 46.62229 
L 577.984981 46.456799 
L 578.017715 46.183102 
L 568.874614 44.593961 
L 568.817003 45.031028 
L 565.336785 44.375428 
L 563.446102 44.006255 
L 560.932175 43.677394 
L 559.139693 43.441887 
L 558.557038 43.35702 
L 555.506282 43.07908 
L 538.672136 40.352717 
L 537.218772 40.081141 
L 533.445262 39.451001 
L 528.516918 38.62991 
L 516.302112 37.639084 
L 510.640539 37.774872 
L 495.233569 36.44882 
L 495.234879 36.694935 
L 493.086257 36.48701 
L 493.150414 36.126324 
L 492.007363 36.064795 
L 487.537286 34.125577 
L 487.412899 34.482019 
L 484.362144 33.160211 
L 483.918278 32.969259 
L 483.990292 32.687075 
L 483.319911 32.370945 
L 483.055425 32.245765 
L 482.665243 32.061179 
L 482.324815 31.899931 
L 481.458034 31.490446 
L 481.350668 31.776873 
L 480.927753 31.524393 
L 481.024644 31.295251 
L 468.397397 25.774632 
L 468.258607 26.056815 
L 467.230778 25.55822 
L 467.380042 25.350295 
L 466.498858 24.821996 
L 465.794435 24.641653 
L 462.556444 24.539812 
L 457.714516 24.187613 
L 457.74594 24.501622 
L 456.485048 24.645896 
L 456.454934 24.329765 
L 453.990761 24.478283 
L 449.453908 25.282401 
L 445.104291 25.831917 
L 444.03849 26.158656 
L 443.665329 26.313539 
L 442.751412 26.691199 
L 441.304594 27.289513 
L 440.153687 27.76477 
L 439.631262 27.981182 
L 429.588646 31.878714 
L 410.473634 39.211251 
L 407.849723 40.187225 
L 405.712885 41.101671 
L 403.066715 42.506225 
L 395.282706 47.583413 
L 394.830985 47.884692 
L 394.512816 48.067157 
L 394.198575 48.245378 
L 393.889571 48.536049 
L 393.678768 48.913708 
L 393.433922 49.632959 
L 392.483343 53.944219 
L 391.835221 56.840317 
L 391.624418 57.998756 
L 391.582519 58.877132 
L 391.763208 60.608426 
L 392.178268 64.276816 
L 393.33965 71.732411 
L 393.547834 72.791131 
L 394.561261 76.09247 
L 394.669936 76.580457 
L 394.628037 76.900831 
L 394.486629 77.144825 
L 394.150129 77.312438 
L 389.249281 79.599612 
L 387.899354 80.236117 
L 385.139272 81.5261 
L 382.748422 82.790624 
L 381.894734 83.244664 
L 378.36738 86.361416 
L 377.424658 87.606844 
L 375.620391 88.196672 
L 374.229875 89.132335 
L 372.906135 90.023442 
L 370.762751 91.400414 
L 364.966315 94.351675 
L 354.953815 98.947241 
L 352.048396 98.949363 
L 348.980619 98.953606 
L 344.576009 98.42955 
L 332.777573 96.759786 
L 319.860963 96.19754 
L 309.696579 95.249147 
L 303.581975 94.78662 
L 294.745259 95.160036 
L 294.297466 95.183375 
L 292.811369 95.261877 
L 290.267327 95.614077 
L 284.209024 98.049769 
L 278.561853 100.542747 
L 276.271823 102.140374 
L 273.4921 104.079593 
L 270.466222 107.187858 
L 261.946366 113.007635 
L 260.710352 113.654749 
L 258.40199 114.46311 
L 258.240942 114.09818 
L 255.49919 114.936245 
L 255.416702 114.789849 
L 252.93289 115.557899 
L 253.003594 115.700051 
L 251.949577 116.020425 
L 251.979692 116.245324 
L 243.831688 118.901671 
L 228.719319 122.557331 
L 215.601071 123.698797 
L 210.747359 124.479576 
L 206.985633 124.135864 
L 201.787565 124.10616 
L 200.816037 125.067283 
L 200.677247 124.37137 
L 199.96104 124.649311 
L 197.109304 125.052431 
L 196.792444 124.284381 
L 196.194077 124.392587 
L 195.839247 124.456238 
L 195.096853 124.592025 
L 190.685696 126.083569 
L 188.162604 126.993771 
L 187.16227 127.630276 
L 186.512839 127.876391 
L 185.801869 128.436515 
L 185.073878 128.907529 
L 184.471582 129.297919 
L 157.880256 141.516692 
L 148.983311 144.07332 
L 141.452004 147.419215 
L 131.787787 149.34146 
L 130.289905 150.722675 
L 128.526228 152.038119 
L 127.79169 151.331599 
L 127.79169 150.325921 
L 126.513777 150.521116 
L 125.495113 151.002738 
L 124.345515 152.523985 
L 124.179229 153.616651 
L 123.436835 153.432065 
L 122.065959 153.932782 
L 121.343205 155.267321 
L 118.72584 156.404543 
L 114.687845 158.401047 
L 112.540532 159.71649 
z
" clip-path="url(#p2c702c51ee)" style="fill: #0096ff; stroke: #7980ff; stroke-width: 0.3"/>
    <path d="M 313.628519 152.1145 
L 315.736551 149.34146 
L 316.249811 149.623644 
L 316.798424 149.927044 
L 319.957854 151.666824 
L 320.2027 151.68592 
L 320.886174 151.738962 
L 321.756883 151.806856 
L 322.340847 152.089039 
L 322.393221 152.292721 
L 322.384055 152.596122 
L 322.683894 152.827385 
L 323.849204 153.018337 
L 326.388008 153.347198 
L 330.055461 153.574218 
L 332.853515 153.230505 
L 335.878083 153.031067 
L 336.340279 153.139273 
L 337.626048 152.691597 
L 337.910174 152.307573 
L 342.280742 151.04305 
L 346.543943 150.031007 
L 350.106649 148.764362 
L 354.689329 146.453849 
L 356.479193 142.859718 
L 357.539756 140.169423 
L 358.181331 136.946587 
L 358.237632 135.238632 
L 373.247872 128.162818 
L 373.639364 127.973988 
L 373.789938 127.89973 
L 374.582087 127.517827 
L 375.3271 127.222913 
L 375.54445 127.135924 
L 375.730375 127.061665 
L 376.210902 126.870713 
L 381.533357 124.218609 
L 393.900046 119.031094 
L 395.293181 118.388224 
L 396.514792 117.972374 
L 403.760663 115.04233 
L 404.080142 115.142049 
L 406.069025 114.335809 
L 406.167225 114.023922 
L 407.109948 113.79478 
L 408.192769 113.480771 
L 409.224527 113.198587 
L 409.722075 113.071286 
L 410.237954 112.873969 
L 411.932236 113.45531 
L 413.03077 113.395903 
L 413.368579 113.147666 
L 414.692319 113.158275 
L 415.883815 113.550786 
L 417.767951 114.753781 
L 417.932928 117.032468 
L 418.685797 117.883263 
L 420.115593 118.670408 
L 421.942118 119.663355 
L 423.781736 119.156273 
L 433.951357 120.098301 
L 443.200514 120.405945 
L 443.221464 119.633652 
L 448.520351 119.701546 
L 448.775672 119.688816 
L 450.036563 119.625165 
L 450.192374 119.616678 
L 452.092222 119.614557 
L 454.164903 119.943418 
L 457.917463 121.591965 
L 459.288339 123.442073 
L 459.995381 125.703787 
L 460.384254 127.413864 
L 460.536137 127.986719 
L 460.561015 131.790897 
L 460.563633 132.149461 
L 461.096533 135.713889 
L 461.116173 135.849676 
L 461.825834 137.523684 
L 462.54597 139.327115 
L 464.030758 141.943151 
L 465.400324 143.273446 
L 467.970553 145.214786 
L 470.869425 146.021026 
L 471.4128 146.171665 
L 473.344072 146.708451 
L 474.323456 147.020338 
L 481.675384 143.892977 
L 484.366072 142.73666 
L 484.491768 142.689983 
L 485.006338 142.503275 
L 485.611251 142.265646 
L 486.231877 142.047113 
L 486.449227 141.868892 
L 486.754303 141.752199 
L 498.86567 138.433887 
L 499.851601 138.221718 
L 500.045383 138.605743 
L 504.02053 137.814355 
L 505.192387 137.464277 
L 505.530196 137.385775 
L 505.885026 137.283934 
L 506.277828 137.143903 
L 506.619564 137.037819 
L 506.906309 136.95083 
L 507.876528 136.713201 
L 509.302396 136.365245 
L 511.265092 135.926057 
L 511.72336 135.881502 
L 512.264117 135.858163 
L 512.740715 135.832703 
L 514.050052 135.775418 
L 514.235978 135.777539 
L 516.742049 135.822095 
L 517.84582 135.889988 
L 519.968256 136.008803 
L 522.88284 136.14459 
L 523.389554 136.167929 
L 525.49104 136.197632 
L 527.74179 136.568927 
L 528.138519 136.885058 
L 529.560459 136.853233 
L 529.800068 136.647429 
L 531.445905 137.205432 
L 533.145424 138.433887 
L 534.495351 138.633325 
L 535.843968 138.779721 
L 535.991923 138.117756 
L 536.329732 138.00955 
L 536.528751 138.077444 
L 536.805021 138.38721 
L 543.642379 141.43819 
L 543.546798 141.800998 
L 549.770077 144.497657 
L 549.957312 144.281245 
L 556.095484 147.00973 
L 559.195994 148.388824 
L 559.426438 148.083302 
L 560.667689 148.388824 
L 560.6271 148.847108 
L 572.708353 152.148447 
L 572.746324 151.796247 
L 573.831764 152.148447 
L 576.36795 150.107387 
L 576.902159 148.700711 
L 582.718235 120.779361 
L 583.138532 119.939174 
L 583.611203 119.374807 
L 583.679288 119.294183 
L 597.435183 107.646142 
L 597.136654 107.287578 
L 598.036169 106.606517 
L 598.256138 106.952352 
L 604.224096 101.514478 
L 604.677127 101.219564 
L 606.133109 100.059003 
L 606.325582 99.861686 
L 606.734095 99.52646 
L 607.543265 98.928146 
L 608.349817 98.467741 
L 609.347532 98.005214 
L 609.947208 97.742125 
L 609.850317 97.468428 
L 610.053265 97.353857 
L 610.168486 97.612702 
L 611.202863 97.120472 
L 613.325298 96.0469 
L 616.933831 94.234983 
L 617.520414 93.950677 
L 618.095213 93.670615 
L 624.700818 90.331086 
L 626.303447 89.257514 
L 626.515559 89.157795 
L 627.100833 88.794987 
L 627.697891 88.398232 
L 628.662872 87.748997 
L 629.667134 87.076424 
L 629.968281 86.872742 
L 630.040295 86.622383 
L 630.169919 86.425067 
L 630.870415 85.932836 
L 630.946356 86.055894 
L 631.023607 86.178952 
L 631.360107 85.92435 
L 632.061911 87.006408 
L 638.942478 82.421451 
L 640.543797 81.922855 
L 640.723176 81.86557 
L 640.910411 81.818893 
L 646.879679 80.229752 
L 646.60079 79.039488 
L 648.013565 78.653341 
L 648.735009 78.468755 
L 651.848613 77.704949 
L 652.174638 77.641298 
L 652.397225 78.044418 
L 653.209014 77.864075 
L 653.267934 78.101704 
L 655.314428 77.707071 
L 685.162076 72.362551 
L 687.272727 79.875431 
L 677.719804 82.228378 
L 658.261746 87.216455 
L 656.016233 87.995112 
L 652.010971 89.382693 
L 651.729463 89.520603 
L 651.293454 90.51355 
L 650.166115 91.097013 
L 634.054722 97.699691 
L 633.884508 97.77395 
L 632.782047 98.208895 
L 631.671729 98.679909 
L 631.45307 98.76902 
L 630.909695 99.161531 
L 615.73055 105.68995 
L 614.948876 106.112165 
L 613.473253 106.901431 
L 611.589117 107.866797 
L 610.904334 108.216875 
L 610.354412 108.496937 
L 609.991726 108.681523 
L 609.458826 108.953099 
L 609.303014 109.095252 
L 608.949493 109.413504 
L 609.07519 109.797529 
L 607.955707 110.639837 
L 607.828701 110.325828 
L 603.356005 114.509787 
L 599.671531 117.955401 
L 586.99453 129.813488 
L 585.51236 131.616918 
L 585.098609 133.021473 
L 582.088444 149.825204 
L 582.335908 149.931288 
L 582.123796 150.743892 
L 581.840979 150.737527 
L 581.634104 151.796247 
L 581.416754 152.296964 
L 581.120843 152.827385 
L 580.447844 153.794873 
L 579.550948 155.021206 
L 578.59906 155.992936 
L 577.668122 156.852218 
L 576.384971 157.526913 
L 575.463198 157.779394 
L 574.707711 157.838801 
L 572.729302 157.677553 
L 568.235657 156.814028 
L 564.316812 155.746821 
L 564.136123 155.698023 
L 558.677497 153.87974 
L 538.717963 145.076877 
L 538.796523 144.767111 
L 537.827613 144.357626 
L 537.661328 144.61435 
L 535.297974 143.513196 
L 535.113358 143.485614 
L 534.679967 143.419842 
L 533.716295 143.275568 
L 532.651804 143.105833 
L 532.387318 143.065521 
L 531.864892 142.984897 
L 527.993183 142.664523 
L 517.163656 142.165927 
L 513.074596 142.004679 
L 506.721693 142.242308 
L 505.930853 142.272011 
L 505.687316 142.280498 
L 498.632608 143.090981 
L 488.610942 145.023834 
L 487.576566 145.670948 
L 486.952012 145.940402 
L 486.340552 146.201369 
L 485.875737 146.347765 
L 485.75266 146.733911 
L 485.430563 147.018217 
L 483.348717 147.631383 
L 476.671098 149.977965 
L 469.236682 151.374032 
L 468.584632 150.888167 
L 467.974481 150.436248 
L 467.5424 150.158308 
L 467.145671 149.884611 
L 464.365948 148.034503 
L 464.083131 147.533786 
L 461.124029 142.276255 
L 460.610769 141.315132 
L 460.519116 141.024462 
L 459.247749 139.159502 
L 457.50895 136.609239 
L 456.736441 125.249747 
L 454.634955 123.178984 
L 450.93084 123.529062 
L 450.557679 123.560887 
L 448.754722 123.71577 
L 448.100054 124.038266 
L 440.763838 124.867844 
L 426.611214 124.653554 
L 418.001013 123.768812 
L 416.039626 123.077144 
L 414.499846 122.156333 
L 412.449424 120.234088 
L 413.458923 119.767318 
L 413.114567 119.181733 
L 412.651062 118.608879 
L 412.035674 118.197272 
L 411.453019 118.040268 
L 411.028793 118.101797 
L 410.709315 118.150595 
L 409.854318 118.275775 
L 408.925998 118.411562 
L 408.762331 118.443388 
L 407.924355 118.604636 
L 407.781637 118.084823 
L 407.394074 117.874777 
L 406.620256 118.154839 
L 406.443495 117.594714 
L 405.01108 117.980861 
L 405.173438 118.265166 
L 399.366528 120.123761 
L 398.317749 120.743292 
L 398.104327 120.870593 
L 397.420853 121.411622 
L 396.035575 122.16482 
L 378.88064 129.554642 
L 378.36869 130.150835 
L 378.641032 130.776732 
L 377.919587 131.092863 
L 377.339551 131.355951 
L 377.187668 131.453549 
L 376.55133 131.812113 
L 375.882259 132.015795 
L 375.696333 132.07308 
L 375.122843 132.24918 
L 371.261608 133.865903 
L 370.917252 133.163626 
L 363.366306 136.424653 
L 362.770557 136.978412 
L 362.690688 138.293855 
L 362.656645 139.004619 
L 362.176118 143.294663 
L 356.555134 149.477247 
L 355.837617 151.293408 
L 354.956434 152.186637 
L 352.696518 152.691597 
L 339.328186 155.674684 
L 331.969712 156.434247 
L 322.621045 156.402421 
L 321.040676 155.551626 
L 320.904505 155.477367 
L 320.276023 155.14002 
L 319.655397 154.804794 
L 319.499586 154.722048 
L 317.155873 153.459647 
L 314.806922 152.564296 
L 314.199389 152.333033 
z
" clip-path="url(#p2c702c51ee)" style="fill: #0096ff; stroke: #7980ff; stroke-width: 0.3"/>
    <path d="M 243.931197 183.241714 
L 244.177353 183.118656 
L 244.818928 182.874662 
L 245.726298 182.539436 
L 249.325666 181.192168 
L 251.810788 179.885211 
L 260.478599 174.43885 
L 261.28646 173.626245 
L 268.123818 169.092208 
L 270.264584 168.447217 
L 275.080326 165.746314 
L 279.469224 163.293648 
L 282.910162 160.728533 
L 286.106253 158.74476 
L 289.198908 156.943451 
L 291.680101 155.731969 
L 292.362266 155.411595 
L 296.086021 153.646355 
L 297.438566 153.028945 
L 304.32306 149.831569 
L 310.538483 148.533098 
L 314.822634 148.67313 
L 315.736551 149.34146 
L 313.628519 152.1145 
L 311.100189 151.868384 
L 307.097545 152.78283 
L 303.584594 153.801238 
L 296.982916 156.574278 
L 287.640796 160.96404 
L 284.304606 163.493087 
L 282.653532 167.356672 
L 278.229282 168.725157 
L 262.05766 176.532951 
L 258.370566 179.087458 
L 254.620625 181.864741 
L 253.705398 183.430543 
L 247.345948 185.460994 
L 247.258223 185.12789 
L 246.976715 185.320963 
L 246.171473 185.798342 
L 245.601911 186.044457 
L 245.316476 186.167515 
z
" clip-path="url(#p2c702c51ee)" style="fill: #0096ff; stroke: #7980ff; stroke-width: 0.3"/>
    <path d="M 32.727273 174.680722 
L 33.041514 173.460754 
L 33.905676 172.170771 
L 36.131549 169.949368 
L 39.524041 167.044784 
L 41.962027 165.453522 
L 45.526043 164.155052 
L 47.127362 164.63243 
L 48.61215 164.40541 
L 52.980098 164.870059 
L 53.636076 164.742758 
L 56.845261 165.780261 
L 64.428942 166.940822 
L 67.319958 168.039854 
L 67.491481 168.105626 
L 83.042477 173.577447 
L 85.395356 174.727399 
L 91.29392 177.772014 
L 94.958754 179.490578 
L 95.532244 180.776318 
L 97.794778 181.264305 
L 100.175153 182.361215 
L 102.29497 183.381745 
L 104.722481 184.567766 
L 106.932642 185.649824 
L 108.865223 186.292694 
L 126.720653 191.104671 
L 137.501734 196.962639 
L 137.624812 197.028411 
L 137.74658 197.1154 
L 138.711561 197.800703 
L 139.772124 198.556023 
L 139.901749 198.649377 
L 154.599057 208.525812 
L 159.468482 210.583845 
L 168.852501 208.080258 
L 169.871165 207.806561 
L 171.210617 207.418293 
L 173.012264 206.900603 
L 177.672195 205.578794 
L 183.301035 203.887813 
L 191.371789 201.568813 
L 207.441283 196.489503 
L 208.268784 196.222171 
L 209.290067 196.001516 
L 209.445878 195.948474 
L 214.447545 192.982361 
L 215.962448 192.114593 
L 219.79095 190.393908 
L 227.200488 186.144176 
L 235.839494 183.371136 
L 242.091579 182.63279 
L 242.947885 182.704928 
L 243.931197 183.241714 
L 245.316476 186.167515 
L 245.03235 186.360588 
L 244.058203 186.460307 
L 236.999567 186.214192 
L 228.922266 188.849322 
L 223.724198 191.728446 
L 220.283261 194.227789 
L 217.376532 196.68682 
L 216.562125 196.969004 
L 212.247859 198.957021 
L 210.325752 200.017862 
L 210.008893 200.149407 
L 209.324109 200.435834 
L 208.529342 200.768938 
L 206.033745 201.795833 
L 192.470323 205.769745 
L 187.902046 206.62054 
L 177.542571 209.533611 
L 170.740565 211.436761 
L 169.924848 211.833516 
L 164.478006 213.117134 
L 157.914299 215.043623 
L 156.369281 215.353388 
L 155.997429 214.441065 
L 155.570585 213.286869 
L 152.176784 211.349772 
L 136.99633 203.047626 
L 136.81826 202.950029 
L 135.450003 202.186223 
L 134.249341 201.545474 
L 134.077818 201.45212 
L 133.410056 200.925943 
L 132.586483 199.338924 
L 126.932765 195.545354 
L 123.579553 194.043203 
L 113.640375 191.091941 
L 109.688796 189.714969 
L 107.248192 189.583425 
L 105.492371 188.80901 
L 104.423952 188.552287 
L 101.699221 187.896686 
L 100.067787 186.557904 
L 99.777114 186.320276 
L 94.417998 183.899435 
L 91.551859 182.603087 
L 83.011053 180.362589 
L 74.214927 179.728206 
L 42.426842 178.476413 
L 38.45955 177.895072 
L 35.101101 176.641157 
L 33.181613 175.10718 
z
" clip-path="url(#p2c702c51ee)" style="fill: #0096ff; stroke: #7980ff; stroke-width: 0.3"/>
    <path d="M 239.404819 54.731364 
L 240.196968 54.398259 
L 240.697135 55.189647 
L 240.780932 56.023469 
L 240.155069 56.316261 
L 239.613004 55.77311 
z
" clip-path="url(#p2c702c51ee)" style="fill: #0096ff; stroke: #7980ff; stroke-width: 0.3"/>
    <path d="M 324.696345 64.951511 
L 324.819422 64.78602 
L 325.767382 64.442307 
L 325.916647 64.565365 
L 326.532035 66.347579 
L 326.487518 66.470637 
L 325.8119 66.795254 
L 325.521227 66.86527 
L 325.399459 66.803741 
z
" clip-path="url(#p2c702c51ee)" style="fill: #0096ff; stroke: #7980ff; stroke-width: 0.3"/>
    <path d="M 323.142162 65.628328 
L 323.28357 65.460715 
L 324.179157 65.083056 
L 324.306162 65.102151 
L 324.416147 65.180653 
L 325.091765 67.058343 
L 325.056412 67.147453 
L 324.134639 67.489044 
L 323.906814 67.444489 
L 323.151327 65.759873 
z
" clip-path="url(#p2c702c51ee)" style="fill: #0096ff; stroke: #7980ff; stroke-width: 0.3"/>
   </g>
  </g>
 </g>
 <defs>
  <clipPath id="p2c702c51ee">
   <rect x="0" y="0" width="720" height="367.404238"/>
  </clipPath>
 </defs>
</svg>
