<?xml version="1.0" encoding="utf-8" standalone="no"?>
<!DOCTYPE svg PUBLIC "-//W3C//DTD SVG 1.1//EN"
  "http://www.w3.org/Graphics/SVG/1.1/DTD/svg11.dtd">
<svg xmlns:xlink="http://www.w3.org/1999/xlink" width="720pt" height="269.340562pt" viewBox="0 0 720 269.340562" xmlns="http://www.w3.org/2000/svg" version="1.1">
 <metadata>
  <rdf:RDF xmlns:dc="http://purl.org/dc/elements/1.1/" xmlns:cc="http://creativecommons.org/ns#" xmlns:rdf="http://www.w3.org/1999/02/22-rdf-syntax-ns#">
   <cc:Work>
    <dc:type rdf:resource="http://purl.org/dc/dcmitype/StillImage"/>
    <dc:date>2025-08-09T23:46:46.716420</dc:date>
    <dc:format>image/svg+xml</dc:format>
    <dc:creator>
     <cc:Agent>
      <dc:title>Matplotlib v3.10.5, https://matplotlib.org/</dc:title>
     </cc:Agent>
    </dc:creator>
   </cc:Work>
  </rdf:RDF>
 </metadata>
 <defs>
  <style type="text/css">*{stroke-linejoin: round; stroke-linecap: butt}</style>
 </defs>
 <g id="figure_1">
  <g id="patch_1">
   <path d="M 0 269.340562 
L 720 269.340562 
L 720 -0 
L 0 -0 
z
" style="fill: #ffffff"/>
  </g>
  <g id="axes_1">
   <g id="PatchCollection_1">
    <path d="M 162.960289 166.233698 
L 163.057336 165.160289 
L 163.18925 164.102886 
L 163.427509 162.478648 
L 163.643686 161.51258 
L 163.913906 160.582292 
L 164.59033 158.364854 
L 165.244671 156.214268 
L 165.961192 154.468566 
L 166.385409 153.623962 
L 166.829966 152.793482 
L 168.190367 150.640072 
L 169.763458 148.276688 
L 170.171986 147.817193 
L 170.671749 147.352049 
L 171.302845 146.844534 
L 171.891519 146.412345 
L 172.719034 145.874699 
L 173.589551 145.376599 
L 174.005052 145.178866 
L 174.397308 145.007497 
L 174.614647 144.951943 
L 174.841283 144.929345 
L 175.136492 144.929345 
L 175.419497 144.960417 
L 175.722842 145.022562 
L 176.002942 145.096006 
L 176.32895 145.197697 
L 176.679365 145.348351 
L 177.043146 145.504655 
L 177.396467 145.674141 
L 178.232117 146.16 
L 179.052077 146.701412 
L 179.740123 147.224935 
L 180.439791 147.810602 
L 180.785558 148.157106 
L 181.167935 148.615659 
L 181.355055 148.903785 
L 181.498592 149.207918 
L 181.670022 149.770987 
L 181.750217 150.06382 
L 181.823438 150.351004 
L 181.921066 150.947971 
L 181.922228 151.720072 
L 181.894915 152.154144 
L 181.739756 153.621137 
L 181.579367 155.083422 
L 181.349244 157.364888 
L 181.081929 159.994741 
L 180.927351 161.487157 
L 180.8489 162.234777 
L 180.728027 163.088797 
L 180.524054 164.104769 
L 180.410154 164.641474 
L 180.275916 165.172529 
L 180.110297 165.825991 
L 179.889471 166.479452 
L 179.634941 167.168694 
L 179.3438 167.825922 
L 179.018954 168.464318 
L 178.656916 169.105539 
L 178.326259 169.625295 
L 177.899136 170.204372 
L 177.265134 170.978356 
L 176.832781 171.460449 
L 176.379507 171.930301 
L 175.07315 173.194853 
L 174.369995 173.844548 
L 173.581416 174.393493 
L 173.052015 174.67032 
L 172.505182 174.918899 
L 172.180917 175.042247 
L 171.82992 175.160887 
L 171.142456 175.331314 
L 170.452085 175.433006 
L 169.686169 175.484793 
L 169.137011 175.456545 
L 168.500104 175.352971 
L 167.774866 175.140172 
L 167.03452 174.74753 
L 166.431899 174.351122 
L 165.853684 173.947181 
L 165.289417 173.508401 
L 164.856483 173.100694 
L 164.457835 172.679805 
L 164.16495 173.011243 
L 164.088242 172.933092 
L 164.026644 172.865297 
L 164.296864 172.553632 
L 163.951679 172.107319 
L 163.664606 171.590388 
L 163.221212 170.484023 
L 163.075932 169.475583 
L 162.961451 168.172426 
z
M 165.762449 166.733681 
L 166.143663 167.659261 
L 166.491754 167.638546 
L 166.715485 167.372077 
L 166.721877 167.719523 
L 167.17457 167.878651 
L 167.188517 168.360744 
L 167.422127 169.180866 
L 166.987449 168.64322 
L 166.363326 168.561302 
L 166.246521 169.400256 
L 166.816019 170.426586 
L 166.480713 171.163849 
L 166.779408 171.319211 
L 167.021735 171.270248 
L 167.229776 170.919036 
L 167.000815 170.693055 
L 167.046723 170.581007 
L 167.293118 170.475549 
L 167.61564 169.934136 
L 168.118308 169.31363 
L 168.641316 169.327754 
L 167.655156 171.207162 
L 167.556365 171.607337 
L 168.329255 172.170406 
L 168.770906 171.975497 
L 168.998124 172.436875 
L 169.370621 172.344599 
L 169.403164 172.515968 
L 169.765783 172.673213 
L 170.04472 172.582821 
L 170.180702 172.376613 
L 172.495303 172.409569 
L 173.85338 171.709028 
L 173.240879 171.195863 
L 173.038069 170.524511 
L 174.004471 170.405871 
L 174.769806 170.137519 
L 175.215524 170.194014 
L 176.576507 168.357919 
L 177.154721 167.064178 
L 177.399373 165.983236 
L 175.005159 164.3364 
L 172.741116 163.793104 
L 172.116413 163.991779 
L 171.761929 165.000219 
L 171.424299 165.079312 
L 171.563768 165.679103 
L 171.270883 165.756313 
L 171.054125 165.484195 
L 171.125603 165.005868 
L 171.362119 164.616993 
L 171.349334 163.968239 
L 171.749726 163.691413 
L 171.516116 163.499329 
L 171.965902 162.780898 
L 171.631177 162.609529 
L 171.24822 163.42871 
L 170.548551 163.329843 
L 170.829813 162.579398 
L 171.158727 162.367541 
L 170.815285 162.191464 
L 169.807042 162.191464 
L 169.637355 162.851517 
L 169.200934 162.525728 
L 168.903401 162.191464 
L 168.171771 162.191464 
L 167.428519 162.643426 
L 167.184449 163.280881 
L 166.930499 163.945641 
L 166.329621 164.380655 
L 166.278483 164.688554 
L 166.917134 164.688554 
L 166.555677 165.159347 
L 166.094268 165.442765 
L 166.130879 166.03879 
z
" clip-path="url(#p68f0b1c6ad)" style="fill: #0096ff; stroke: #7980ff; stroke-width: 0.3"/>
    <path d="M 65.516377 87.376708 
L 66.295077 86.893673 
L 66.66002 86.289174 
L 66.850628 85.544379 
L 67.299252 85.210115 
L 81.497752 81.235675 
L 82.962755 80.516303 
L 84.084317 80.292205 
L 84.410325 80.28938 
L 84.810716 80.441917 
L 85.277937 80.321394 
L 85.655665 79.994663 
L 88.518261 79.026712 
L 89.665972 78.343119 
L 90.705596 77.915639 
L 96.393596 74.995777 
L 99.781525 73.331992 
L 101.526628 72.475148 
L 103.997549 72.060849 
L 106.34876 71.666324 
L 107.042617 71.594764 
L 109.803517 71.309463 
L 111.815935 71.264266 
L 114.467003 71.204946 
L 116.807754 71.152218 
L 119.709866 70.400831 
L 120.047497 70.297256 
L 121.133029 69.965818 
L 122.6021 69.76526 
L 123.680077 69.20784 
L 124.371028 68.863219 
L 125.517578 68.801074 
L 128.800904 67.185311 
L 130.324019 66.398144 
L 132.287623 65.232459 
L 134.465079 63.823844 
L 137.670536 61.812614 
L 140.555796 60.087626 
L 143.167929 59.363545 
L 144.911289 58.768462 
L 145.46742 59.278802 
L 147.559452 58.703493 
L 148.786777 58.365463 
L 149.903689 58.058505 
L 151.13915 57.911618 
L 152.487929 57.895611 
L 152.970839 58.137599 
L 153.454331 58.129124 
L 153.703631 58.114059 
L 154.092982 58.300493 
L 154.622963 58.176204 
L 155.004759 57.982237 
L 155.48825 58.004835 
L 156.236152 58.254355 
L 156.937563 58.230816 
L 157.654665 58.487869 
L 158.059706 58.503876 
L 159.602579 58.792002 
L 160.834553 59.056588 
L 161.286664 59.353188 
L 162.470986 59.430398 
L 163.421698 59.251496 
L 164.021995 59.344713 
L 164.926217 59.563162 
L 165.573003 59.827748 
L 166.009424 59.867294 
L 166.4534 59.688393 
L 166.906092 59.349421 
L 167.692347 59.041522 
L 168.060777 59.001976 
L 168.232208 59.10555 
L 168.435019 59.116849 
L 168.822625 59.080127 
L 169.633288 59.4078 
L 170.405015 59.570694 
L 171.090736 59.991584 
L 173.108965 59.85882 
L 174.114302 59.679919 
L 175.13533 59.415333 
L 176.405658 59.01045 
L 177.57952 58.377703 
L 178.525583 58.199743 
L 179.538475 58.137599 
L 180.614127 57.747782 
L 181.412586 57.606543 
L 182.094821 57.116918 
L 182.710808 56.493587 
L 183.396529 55.932401 
L 183.867236 55.303421 
L 184.386176 54.132086 
L 185.064924 53.390116 
L 185.773309 52.963577 
L 186.521791 52.659444 
L 187.098843 52.031405 
L 187.88568 51.474927 
L 187.955414 50.960821 
L 188.30641 50.267812 
L 188.447041 49.345057 
L 188.828256 48.39782 
L 188.972955 47.31217 
L 189.269907 45.765142 
L 189.718531 44.585333 
L 189.998631 43.620206 
L 189.968994 42.478061 
L 189.782455 42.060938 
L 189.477948 41.828366 
L 189.354169 41.850964 
L 189.192037 41.899926 
L 189.126951 41.922525 
L 189.041527 41.938532 
L 188.839878 41.977137 
L 188.6022 42.055288 
L 188.318033 42.062821 
L 187.799674 42.237956 
L 187.343495 42.405559 
L 186.778646 42.49501 
L 186.389296 42.635306 
L 185.956362 42.740764 
L 185.725076 42.683327 
L 185.688466 42.061879 
L 185.565268 41.274713 
L 185.702994 41.096753 
L 187.47599 40.95269 
L 188.329655 40.793561 
L 188.75271 40.675863 
L 188.865448 40.659856 
L 188.954359 40.643849 
L 189.09499 40.630667 
L 189.164724 40.629725 
L 189.27165 40.622193 
L 190.375778 39.342576 
L 190.822078 38.878373 
L 191.463634 38.275757 
L 191.610657 38.107213 
L 191.682135 38.064842 
L 191.833807 37.975391 
L 192.004076 37.867108 
L 193.056484 37.244719 
L 194.497661 36.476384 
L 196.520539 35.575285 
L 202.596146 33.274987 
L 209.689876 30.776956 
L 212.736687 29.677182 
L 212.96158 29.587732 
L 213.482264 29.35516 
L 214.052923 29.060443 
L 214.453315 28.802448 
L 214.739226 28.648969 
L 214.780485 28.632021 
L 214.846733 28.604714 
L 215.394729 28.402273 
L 218.579265 27.858977 
L 222.107825 27.30909 
L 223.431035 27.256362 
L 225.209261 27.457861 
L 226.239587 27.734688 
L 227.265844 28.162168 
L 229.619379 29.08869 
L 233.607024 30.696921 
L 233.928964 30.821211 
L 233.999279 30.848517 
L 236.539354 31.535876 
L 238.668577 32.068814 
L 238.679037 31.943583 
L 239.210762 32.068814 
L 239.213086 32.224176 
L 241.18715 32.68367 
L 248.110031 32.948256 
L 252.506783 33.055597 
L 256.819854 33.268396 
L 257.6741 33.188361 
L 257.7572 33.097969 
L 266.981896 33.542398 
L 267.334636 33.591361 
L 267.971543 33.680811 
L 268.738621 33.788152 
L 269.061724 33.833349 
L 269.901442 34.015075 
L 271.072398 34.164787 
L 271.071236 34.305084 
L 284.033695 36.160011 
L 284.309727 36.213681 
L 284.645614 36.232513 
L 289.436365 37.045103 
L 289.514817 37.170334 
L 294.640293 38.244685 
L 295.919338 38.513037 
L 296.409803 38.883081 
L 306.352182 40.824634 
L 306.856594 40.945157 
L 307.348802 41.062855 
L 307.786967 41.167372 
L 308.015347 41.221984 
L 308.319272 41.294486 
L 308.882959 41.429133 
L 309.269984 41.521408 
L 319.753386 43.949762 
L 321.906435 43.528872 
L 321.873311 43.342438 
L 322.416077 43.279352 
L 322.476513 43.626797 
L 322.437578 46.394122 
L 322.40213 48.869555 
L 307.781737 46.26795 
L 307.531855 46.201097 
L 306.80255 46.017488 
L 305.308491 45.639911 
L 305.099288 45.565526 
L 300.660113 44.562735 
L 295.688052 43.559003 
L 295.61948 43.703066 
L 295.128434 43.571244 
L 294.889013 43.655987 
L 293.453066 43.316074 
L 293.410644 43.685176 
L 293.254323 43.766152 
L 292.043269 43.467669 
L 288.817473 42.825507 
L 285.021598 42.247372 
L 285.060533 42.03834 
L 283.826816 41.855672 
L 283.65771 41.831191 
L 283.26313 41.766221 
L 278.460175 40.978113 
L 275.225081 40.381146 
L 275.224499 40.535567 
L 274.727642 40.462123 
L 274.74217 40.340658 
L 270.68421 39.635409 
L 270.658641 39.829376 
L 269.114025 39.538426 
L 268.274888 39.374589 
L 267.159138 39.228643 
L 266.363585 39.124127 
L 266.104986 39.086464 
L 264.750977 38.963116 
L 257.27952 37.753176 
L 256.634477 37.632653 
L 254.95969 37.353002 
L 252.772355 36.988607 
L 247.351088 36.548886 
L 244.838326 36.609148 
L 238.000289 36.020656 
L 238.00087 36.12988 
L 237.047253 36.037604 
L 237.075728 35.877534 
L 236.56841 35.850228 
L 234.584467 34.989618 
L 234.529261 35.147804 
L 233.175252 34.561195 
L 232.978252 34.476453 
L 233.010214 34.351221 
L 232.71268 34.210925 
L 232.595294 34.155371 
L 232.42212 34.073453 
L 232.271029 34.001893 
L 231.886328 33.820166 
L 231.838676 33.947281 
L 231.650974 33.835232 
L 231.693977 33.73354 
L 226.089658 31.28353 
L 226.028059 31.408761 
L 225.57188 31.187488 
L 225.638128 31.095213 
L 225.247034 30.860758 
L 224.934392 30.780723 
L 223.497282 30.735526 
L 221.348301 30.579223 
L 221.362248 30.718578 
L 220.80263 30.782606 
L 220.789264 30.642309 
L 219.695597 30.70822 
L 217.682016 31.065082 
L 215.751536 31.308953 
L 215.278505 31.453958 
L 215.112886 31.522693 
L 214.707264 31.690296 
L 214.065127 31.955824 
L 213.554322 32.166739 
L 213.322456 32.262781 
L 208.865267 33.992477 
L 200.381499 37.246602 
L 199.216935 37.679732 
L 198.268547 38.085557 
L 197.094104 38.708887 
L 193.639347 40.962106 
L 193.43886 41.095811 
L 193.297648 41.176787 
L 193.15818 41.255881 
L 193.021035 41.384878 
L 192.927475 41.552481 
L 192.818806 41.871679 
L 192.396913 43.784984 
L 192.109258 45.070251 
L 192.015698 45.584357 
L 191.997102 45.974175 
L 192.077297 46.74251 
L 192.261512 48.370514 
L 192.776965 51.679252 
L 192.869363 52.149104 
L 193.31915 53.614213 
L 193.367383 53.830779 
L 193.348787 53.972958 
L 193.286026 54.081241 
L 193.136678 54.155626 
L 190.961547 55.170657 
L 190.362412 55.453133 
L 189.137412 56.025618 
L 188.076287 56.586804 
L 187.697397 56.788304 
L 186.13186 58.171496 
L 185.713454 58.724207 
L 184.912671 58.985969 
L 184.295521 59.401209 
L 183.708009 59.796675 
L 182.756716 60.407765 
L 180.184099 61.717513 
L 175.740276 63.756991 
L 174.450771 63.757933 
L 173.089207 63.759816 
L 171.13432 63.527244 
L 165.897849 62.786215 
L 160.165103 62.536694 
L 155.65387 62.115805 
L 152.94004 61.910539 
L 149.018062 62.076258 
L 148.81932 62.086616 
L 148.159749 62.121454 
L 147.030633 62.277758 
L 144.341791 63.3587 
L 141.835422 64.465065 
L 140.819043 65.17408 
L 139.585326 66.034691 
L 138.242358 67.414116 
L 134.461011 69.99689 
L 133.912434 70.284074 
L 132.88792 70.642819 
L 132.816442 70.480866 
L 131.599577 70.852793 
L 131.562967 70.787823 
L 130.460583 71.128678 
L 130.491963 71.191764 
L 130.024162 71.333944 
L 130.037527 71.433752 
L 126.421219 72.612619 
L 119.713934 74.234974 
L 113.891695 74.741548 
L 111.737484 75.088052 
L 110.067926 74.935515 
L 107.760881 74.922333 
L 107.32969 75.348872 
L 107.268091 75.040031 
L 106.950219 75.163379 
L 105.68454 75.342281 
L 105.543909 75.001426 
L 105.278337 75.049447 
L 105.120854 75.077695 
L 104.791359 75.137956 
L 102.833566 75.799892 
L 101.713748 76.203833 
L 101.269773 76.486309 
L 100.981537 76.595534 
L 100.665989 76.844113 
L 100.342887 77.053145 
L 100.075571 77.226397 
L 88.273609 82.648998 
L 84.3249 83.783611 
L 80.982299 85.268494 
L 76.693054 86.121572 
L 76.028253 86.734545 
L 75.245484 87.318329 
L 74.919476 87.004781 
L 74.919476 86.558468 
L 74.352303 86.645094 
L 73.900192 86.858835 
L 73.389969 87.533953 
L 73.316167 88.01887 
L 72.986672 87.936952 
L 72.378239 88.159167 
L 72.057461 88.751425 
L 70.895803 89.256116 
L 69.103629 90.142149 
L 68.150593 90.725933 
z
" clip-path="url(#p68f0b1c6ad)" style="fill: #0096ff; stroke: #7980ff; stroke-width: 0.3"/>
    <path d="M 116.503828 79.745143 
L 116.596226 78.973983 
L 116.786253 78.265909 
L 117.053568 77.676476 
L 117.253473 77.267827 
L 117.478366 76.939213 
L 117.976386 76.501375 
L 118.406996 76.41569 
L 118.86085 76.468419 
L 119.199062 76.733947 
L 119.369911 77.030547 
L 119.464634 77.377051 
L 119.516934 77.860085 
L 119.558775 78.496598 
L 119.521002 79.178307 
L 119.425118 79.839302 
L 119.262985 80.520069 
L 119.03693 81.167881 
L 118.806806 81.621726 
L 118.465108 81.999303 
L 118.071108 82.284604 
L 117.654446 82.40136 
L 117.270906 82.304377 
L 116.900733 81.987062 
L 116.733952 81.634908 
L 116.578212 81.088788 
L 116.504991 80.444742 
z
M 117.265676 80.911769 
L 117.363304 81.129276 
L 117.540546 81.278047 
L 117.715463 81.333601 
L 117.8282 81.335484 
L 118.001374 81.291229 
L 118.20186 81.133042 
L 118.287285 80.971089 
L 118.312854 80.822319 
L 118.285542 80.640592 
L 118.243701 80.547375 
L 118.072852 80.365649 
L 117.832268 80.282789 
L 117.612024 80.309154 
L 117.393523 80.452275 
L 117.272069 80.676373 
z
" clip-path="url(#p68f0b1c6ad)" style="fill: #0096ff; stroke: #7980ff; stroke-width: 0.3"/>
    <path d="M 322.184791 49.935432 
L 322.377723 49.935432 
L 322.40213 48.869555 
L 322.476513 43.626797 
L 330.141483 42.571278 
L 330.158336 42.779369 
L 346.760347 37.962209 
L 346.92771 37.805905 
L 346.67841 36.817238 
L 358.574513 33.24109 
L 358.791852 34.232581 
L 358.917374 34.26742 
L 385.503024 26.603842 
L 385.482685 26.418349 
L 385.375177 26.426823 
L 385.279874 25.833623 
L 385.396679 25.799726 
L 385.359487 25.641539 
L 392.294571 23.925026 
L 392.999469 23.750832 
L 393.205767 24.100161 
L 396.648902 22.706612 
L 396.447834 22.304554 
L 396.713406 22.216045 
L 396.707595 22.080456 
L 395.726664 21.045652 
L 393.424849 18.617299 
L 393.292354 18.056113 
L 393.707854 17.649347 
L 396.475147 20.417613 
L 397.979666 21.92227 
L 398.979192 21.674632 
L 400.049034 21.410046 
L 404.704965 20.256602 
L 406.07234 19.129522 
L 406.708085 18.396026 
L 407.128816 17.751038 
L 407.784319 17.217158 
L 408.686798 16.850881 
L 410.83113 16.268038 
L 412.303107 15.942249 
L 414.087726 15.745457 
L 424.991858 15.265248 
L 430.305617 15.326451 
L 436.03081 15.654123 
L 438.811468 16.016635 
L 438.802751 17.364987 
L 439.301352 17.925232 
L 446.97039 19.047604 
L 447.843232 18.735939 
L 448.404013 18.236897 
L 448.752684 17.39606 
L 450.84181 17.485511 
L 451.894218 17.814125 
L 452.606671 18.488301 
L 454.460443 19.236863 
L 458.065129 19.75097 
L 458.33535 19.542879 
L 463.063922 20.532487 
L 463.797876 20.269784 
L 466.985899 20.649244 
L 473.429937 20.565443 
L 473.81057 20.588041 
L 474.631693 21.38274 
L 475.080898 21.592714 
L 483.668106 21.496672 
L 485.717715 20.556027 
L 486.901456 20.751877 
L 487.076954 20.512714 
L 504.178729 20.631354 
L 504.265316 21.704763 
L 504.792973 21.700997 
L 504.777864 22.386472 
L 506.445678 22.404362 
L 506.552022 22.276307 
L 506.547374 21.82152 
L 506.43115 21.678399 
L 506.153955 21.672749 
L 506.148725 20.604048 
L 521.815134 20.610639 
L 523.502706 20.749052 
L 526.198521 21.30553 
L 530.820748 22.2603 
L 543.604221 25.191461 
L 564.392039 30.155509 
L 567.120978 34.935006 
L 566.102856 36.738145 
L 557.950907 36.012181 
L 557.948583 35.895425 
L 556.83167 35.800324 
L 556.787505 36.36151 
L 556.773558 37.151502 
L 569.179885 38.287056 
L 584.507501 39.754991 
L 596.905692 40.848174 
L 597.110827 40.698461 
L 597.15383 40.629725 
L 597.157898 40.459298 
L 597.004482 40.419751 
L 597.025403 39.759699 
L 597.174169 39.741809 
L 597.177075 39.598687 
L 597.223565 39.527127 
L 598.571181 39.174973 
L 598.737963 39.160849 
L 602.156109 39.292671 
L 602.307201 39.179681 
L 602.626816 39.170265 
L 602.63902 38.808696 
L 603.844844 38.842593 
L 603.787313 39.275723 
L 604.242911 39.360466 
L 604.639815 39.275723 
L 604.621801 38.900971 
L 609.633959 39.157083 
L 609.607228 39.529951 
L 609.976239 39.656124 
L 610.384766 39.593038 
L 610.401618 39.396246 
L 610.733438 39.379297 
L 610.835715 39.628818 
L 610.961237 39.642942 
L 611.003077 39.137309 
L 611.331991 39.107179 
L 611.303516 39.672131 
L 611.690542 39.767231 
L 612.144978 39.662715 
L 613.571046 39.738042 
L 613.930178 39.869864 
L 614.293959 39.76629 
L 614.343354 39.690021 
L 614.326502 39.197571 
L 614.109744 39.013962 
L 612.297231 38.934868 
L 612.122314 38.857658 
L 611.870689 38.637327 
L 611.705651 38.587423 
L 611.333153 38.578007 
L 611.155331 38.389689 
L 610.914166 36.930229 
L 610.341182 31.887088 
L 610.577117 31.372039 
L 632.799719 24.747032 
L 647.241127 20.087116 
L 651.689599 18.696392 
L 654.634715 17.804709 
L 656.922583 17.278361 
L 675.803747 14.344376 
L 687.272727 12.242753 
L 681.289518 48.837541 
L 679.724562 46.792414 
L 677.335579 45.305648 
L 673.409533 44.004374 
L 668.432823 43.021357 
L 667.698869 42.297276 
L 667.119492 42.48936 
L 665.933427 41.984669 
L 665.237827 41.340624 
L 663.950065 38.902854 
L 663.232382 38.868016 
L 662.689035 38.583656 
L 661.826653 38.881198 
L 660.499376 40.399036 
L 659.567259 42.687093 
L 659.284254 44.982683 
L 657.687337 46.418604 
L 654.920044 47.524027 
L 652.654258 47.930793 
L 648.31155 46.284898 
L 646.787273 46.148368 
L 641.415982 47.708578 
L 638.929952 47.630426 
L 638.242487 46.901638 
L 637.270855 47.50802 
L 635.838394 46.637994 
L 635.364201 47.058883 
L 635.186959 47.792379 
L 634.069466 48.209503 
L 630.168409 48.716077 
L 626.177859 49.941082 
L 620.783905 51.46457 
L 620.424192 51.452329 
L 619.994744 51.242355 
L 617.265805 53.033254 
L 617.538932 53.476742 
L 617.494186 53.850552 
L 614.041172 57.756256 
L 613.025374 58.524591 
L 611.469717 56.588688 
L 610.336533 54.826978 
L 610.233094 54.895714 
L 610.114545 54.973865 
L 610.868258 56.300562 
L 607.53786 57.855122 
L 606.503467 56.073639 
L 606.360511 56.147083 
L 606.218718 56.219585 
L 608.069585 59.478419 
L 608.119561 60.103633 
L 607.660476 60.66576 
L 607.100277 61.054636 
L 604.409111 62.920862 
L 603.09055 63.707087 
L 603.220721 63.955666 
L 602.390301 64.445292 
L 601.547677 64.623252 
L 600.245969 64.61666 
L 599.410318 63.985797 
L 598.957045 62.991481 
L 598.904744 62.626145 
L 598.891378 62.144052 
L 598.964599 61.809789 
L 599.159275 61.353119 
L 599.345814 61.000965 
L 599.677052 60.722256 
L 599.915893 60.51699 
L 600.494688 60.367277 
L 600.466794 59.938855 
L 600.860212 59.896484 
L 600.888687 60.198733 
L 600.920068 60.4878 
L 600.963652 60.593258 
L 601.018277 60.682709 
L 601.099634 60.735438 
L 601.192032 60.76651 
L 601.311742 60.757094 
L 601.391356 60.714723 
L 601.455279 60.663877 
L 601.511066 60.603616 
L 601.538379 60.539588 
L 601.537798 60.444487 
L 601.364043 59.495367 
L 601.264672 59.509491 
L 601.153678 59.524557 
L 600.841035 57.989769 
L 600.912513 57.971879 
L 600.963652 57.925741 
L 600.997357 57.873954 
L 601.01479 57.820284 
L 601.018277 57.765672 
L 601.021182 57.695994 
L 601.008398 57.632908 
L 600.970044 57.584887 
L 600.934596 57.54534 
L 600.882295 57.508618 
L 600.814304 57.484137 
L 600.73469 57.489787 
L 599.95076 57.609368 
L 597.458337 58.046265 
L 595.95498 57.96058 
L 594.918843 57.845707 
L 587.42356 57.470013 
L 583.965316 57.296761 
L 580.413512 57.118801 
L 579.835298 57.240266 
L 578.88168 57.071722 
L 577.811257 56.906944 
L 577.001758 56.60187 
L 575.369973 56.351408 
L 573.927053 56.338225 
L 566.360292 54.980457 
L 561.069196 53.868442 
L 555.853646 52.405215 
L 548.781418 50.346906 
L 544.71939 48.7302 
L 535.533048 46.454384 
L 532.351417 45.479841 
L 527.418291 44.129605 
L 519.731239 42.042106 
L 511.960505 39.222994 
L 510.401941 38.658042 
L 507.918816 39.152375 
L 506.241123 38.718303 
L 499.609965 37.115722 
L 485.120905 33.761788 
L 477.13167 32.439799 
L 465.300652 30.495422 
L 463.53521 29.649876 
L 462.278248 29.743093 
L 461.405987 29.643285 
L 459.687616 29.241227 
L 459.313375 29.218629 
L 457.544446 29.11223 
L 457.520039 29.319379 
L 455.468105 29.008655 
L 436.155169 25.940964 
L 425.357382 26.709299 
L 421.876475 27.239413 
L 421.631242 27.277076 
L 421.552791 27.032264 
L 419.005162 27.437146 
L 418.71867 27.796833 
L 418.359538 27.858036 
L 416.884074 28.108498 
L 415.13316 28.42393 
L 415.070399 28.16311 
L 414.259737 28.309998 
L 414.070292 28.612247 
L 413.327621 28.567051 
L 411.980004 28.723354 
L 411.215832 28.862709 
L 398.790328 32.095178 
L 390.76855 34.204334 
L 378.254716 38.225853 
L 374.673275 41.271888 
L 372.002448 43.661636 
L 371.83741 43.809465 
L 355.876955 48.206678 
L 355.674144 47.005213 
L 345.447017 49.533374 
L 323.831103 55.137702 
L 323.23255 55.293064 
L 322.295785 51.958903 
L 322.280676 50.652922 
L 322.185953 50.652922 
z
" clip-path="url(#p68f0b1c6ad)" style="fill: #0096ff; stroke: #7980ff; stroke-width: 0.3"/>
    <path d="M 47.384276 93.266336 
L 47.813143 92.780477 
L 48.763274 93.229614 
L 49.722703 92.199517 
L 59.776656 90.126142 
L 59.634282 89.209036 
L 59.4983 88.334302 
L 59.211227 87.147902 
L 62.911217 88.395505 
L 64.774868 88.043351 
L 65.516377 87.376708 
L 68.150593 90.725933 
L 66.692563 91.724016 
L 64.830655 92.583685 
L 63.743961 92.697617 
L 62.619494 92.962203 
L 61.976776 93.198542 
L 61.513623 93.699466 
L 60.804657 95.334061 
L 60.256661 96.156067 
L 60.058499 96.401821 
L 59.699367 96.306721 
L 59.151371 97.856574 
L 56.023203 96.146651 
L 55.182323 95.910313 
L 54.473357 95.531795 
L 53.036829 94.983791 
L 51.808342 94.748394 
L 51.099956 94.332213 
L 51.222573 93.85012 
L 51.08078 93.840704 
L 50.958163 94.275717 
L 49.91854 93.925447 
L 49.43621 94.048795 
L 49.115432 94.332213 
L 48.566855 94.17026 
L 48.31 94.507348 
L 48.16472 94.451794 
L 48.080458 94.41978 
L 48.330339 94.18815 
L 48.518622 93.997007 
L 48.408791 93.926388 
L 48.421575 93.664627 
z
M 53.16177 92.810608 
L 53.624922 93.727714 
L 54.125847 93.680634 
L 54.239166 94.171201 
L 54.702318 94.388708 
L 55.070748 94.238054 
L 55.486249 94.426371 
L 55.600148 94.625046 
L 56.044124 94.690957 
L 56.317831 94.398124 
L 57.026797 94.540303 
L 57.452177 94.625046 
L 57.385929 95.078891 
L 58.557467 95.069475 
L 59.247837 94.814305 
L 59.862081 94.493224 
L 60.031768 93.755961 
L 60.400779 93.510207 
L 60.315354 92.489526 
L 59.871379 91.96977 
L 60.117192 91.450014 
L 60.286879 91.053606 
L 57.352806 91.566771 
L 56.896627 91.825707 
L 56.143495 92.001784 
L 55.77739 91.776745 
L 55.400824 91.883144 
L 55.254382 92.204225 
L 55.062031 92.560145 
L 54.889439 92.494234 
L 54.819704 91.950938 
L 54.513454 91.923632 
L 54.311225 92.40855 
L 54.145024 92.602517 
L 53.799839 92.150555 
L 53.415719 92.269195 
z
" clip-path="url(#p68f0b1c6ad)" style="fill: #0096ff; stroke: #7980ff; stroke-width: 0.3"/>
    <path d="M 65.516377 87.376708 
L 66.295077 86.893673 
L 66.66002 86.289174 
L 66.850628 85.544379 
L 67.299252 85.210115 
L 81.497752 81.235675 
L 82.962755 80.516303 
L 84.084317 80.292205 
L 84.410325 80.28938 
L 84.810716 80.441917 
L 85.277937 80.321394 
L 85.655665 79.994663 
L 88.518261 79.026712 
L 89.665972 78.343119 
L 90.705596 77.915639 
L 96.393596 74.995777 
L 99.781525 73.331992 
L 101.526628 72.475148 
L 103.997549 72.060849 
L 106.34876 71.666324 
L 107.042617 71.594764 
L 109.803517 71.309463 
L 111.815935 71.264266 
L 114.467003 71.204946 
L 116.807754 71.152218 
L 119.709866 70.400831 
L 120.047497 70.297256 
L 121.133029 69.965818 
L 122.6021 69.76526 
L 123.680077 69.20784 
L 124.371028 68.863219 
L 125.517578 68.801074 
L 128.800904 67.185311 
L 130.324019 66.398144 
L 132.287623 65.232459 
L 134.465079 63.823844 
L 137.670536 61.812614 
L 140.555796 60.087626 
L 143.167929 59.363545 
L 144.911289 58.768462 
L 145.46742 59.278802 
L 147.559452 58.703493 
L 148.786777 58.365463 
L 149.903689 58.058505 
L 151.13915 57.911618 
L 152.487929 57.895611 
L 152.970839 58.137599 
L 153.454331 58.129124 
L 153.703631 58.114059 
L 154.092982 58.300493 
L 154.622963 58.176204 
L 155.004759 57.982237 
L 155.48825 58.004835 
L 156.236152 58.254355 
L 156.937563 58.230816 
L 157.654665 58.487869 
L 158.059706 58.503876 
L 159.602579 58.792002 
L 160.834553 59.056588 
L 161.286664 59.353188 
L 162.470986 59.430398 
L 163.421698 59.251496 
L 164.021995 59.344713 
L 164.926217 59.563162 
L 165.573003 59.827748 
L 166.009424 59.867294 
L 166.4534 59.688393 
L 166.906092 59.349421 
L 167.692347 59.041522 
L 168.060777 59.001976 
L 168.232208 59.10555 
L 168.435019 59.116849 
L 168.822625 59.080127 
L 169.633288 59.4078 
L 170.405015 59.570694 
L 171.090736 59.991584 
L 173.108965 59.85882 
L 174.114302 59.679919 
L 175.13533 59.415333 
L 176.405658 59.01045 
L 177.57952 58.377703 
L 178.525583 58.199743 
L 179.538475 58.137599 
L 180.614127 57.747782 
L 181.412586 57.606543 
L 182.094821 57.116918 
L 182.710808 56.493587 
L 183.396529 55.932401 
L 183.867236 55.303421 
L 184.386176 54.132086 
L 185.064924 53.390116 
L 185.773309 52.963577 
L 186.521791 52.659444 
L 187.098843 52.031405 
L 187.88568 51.474927 
L 187.955414 50.960821 
L 188.30641 50.267812 
L 188.447041 49.345057 
L 188.828256 48.39782 
L 188.972955 47.31217 
L 189.269907 45.765142 
L 189.718531 44.585333 
L 189.998631 43.620206 
L 189.968994 42.478061 
L 189.782455 42.060938 
L 189.477948 41.828366 
L 189.354169 41.850964 
L 189.192037 41.899926 
L 189.126951 41.922525 
L 189.041527 41.938532 
L 188.839878 41.977137 
L 188.6022 42.055288 
L 188.318033 42.062821 
L 187.799674 42.237956 
L 187.343495 42.405559 
L 186.778646 42.49501 
L 186.389296 42.635306 
L 185.956362 42.740764 
L 185.725076 42.683327 
L 185.688466 42.061879 
L 185.565268 41.274713 
L 185.702994 41.096753 
L 187.47599 40.95269 
L 188.329655 40.793561 
L 188.75271 40.675863 
L 188.865448 40.659856 
L 188.954359 40.643849 
L 189.09499 40.630667 
L 189.164724 40.629725 
L 189.27165 40.622193 
L 190.375778 39.342576 
L 190.822078 38.878373 
L 191.463634 38.275757 
L 191.610657 38.107213 
L 191.682135 38.064842 
L 191.833807 37.975391 
L 192.004076 37.867108 
L 193.056484 37.244719 
L 194.497661 36.476384 
L 196.520539 35.575285 
L 202.596146 33.274987 
L 209.689876 30.776956 
L 212.736687 29.677182 
L 212.96158 29.587732 
L 213.482264 29.35516 
L 214.052923 29.060443 
L 214.453315 28.802448 
L 214.739226 28.648969 
L 214.780485 28.632021 
L 214.846733 28.604714 
L 215.394729 28.402273 
L 218.579265 27.858977 
L 222.107825 27.30909 
L 223.431035 27.256362 
L 225.209261 27.457861 
L 226.239587 27.734688 
L 227.265844 28.162168 
L 229.619379 29.08869 
L 233.607024 30.696921 
L 233.928964 30.821211 
L 233.999279 30.848517 
L 236.539354 31.535876 
L 238.668577 32.068814 
L 238.679037 31.943583 
L 239.210762 32.068814 
L 239.213086 32.224176 
L 241.18715 32.68367 
L 248.110031 32.948256 
L 252.506783 33.055597 
L 256.819854 33.268396 
L 257.6741 33.188361 
L 257.7572 33.097969 
L 266.981896 33.542398 
L 267.334636 33.591361 
L 267.971543 33.680811 
L 268.738621 33.788152 
L 269.061724 33.833349 
L 269.901442 34.015075 
L 271.072398 34.164787 
L 271.071236 34.305084 
L 284.033695 36.160011 
L 284.309727 36.213681 
L 284.645614 36.232513 
L 289.436365 37.045103 
L 289.514817 37.170334 
L 294.640293 38.244685 
L 295.919338 38.513037 
L 296.409803 38.883081 
L 306.352182 40.824634 
L 306.856594 40.945157 
L 307.348802 41.062855 
L 307.786967 41.167372 
L 308.015347 41.221984 
L 308.319272 41.294486 
L 308.882959 41.429133 
L 309.269984 41.521408 
L 319.753386 43.949762 
L 321.906435 43.528872 
L 321.873311 43.342438 
L 322.416077 43.279352 
L 322.476513 43.626797 
L 322.437578 46.394122 
L 322.40213 48.869555 
L 307.781737 46.26795 
L 307.531855 46.201097 
L 306.80255 46.017488 
L 305.308491 45.639911 
L 305.099288 45.565526 
L 300.660113 44.562735 
L 295.688052 43.559003 
L 295.61948 43.703066 
L 295.128434 43.571244 
L 294.889013 43.655987 
L 293.453066 43.316074 
L 293.410644 43.685176 
L 293.254323 43.766152 
L 292.043269 43.467669 
L 288.817473 42.825507 
L 285.021598 42.247372 
L 285.060533 42.03834 
L 283.826816 41.855672 
L 283.65771 41.831191 
L 283.26313 41.766221 
L 278.460175 40.978113 
L 275.225081 40.381146 
L 275.224499 40.535567 
L 274.727642 40.462123 
L 274.74217 40.340658 
L 270.68421 39.635409 
L 270.658641 39.829376 
L 269.114025 39.538426 
L 268.274888 39.374589 
L 267.159138 39.228643 
L 266.363585 39.124127 
L 266.104986 39.086464 
L 264.750977 38.963116 
L 257.27952 37.753176 
L 256.634477 37.632653 
L 254.95969 37.353002 
L 252.772355 36.988607 
L 247.351088 36.548886 
L 244.838326 36.609148 
L 238.000289 36.020656 
L 238.00087 36.12988 
L 237.047253 36.037604 
L 237.075728 35.877534 
L 236.56841 35.850228 
L 234.584467 34.989618 
L 234.529261 35.147804 
L 233.175252 34.561195 
L 232.978252 34.476453 
L 233.010214 34.351221 
L 232.71268 34.210925 
L 232.595294 34.155371 
L 232.42212 34.073453 
L 232.271029 34.001893 
L 231.886328 33.820166 
L 231.838676 33.947281 
L 231.650974 33.835232 
L 231.693977 33.73354 
L 226.089658 31.28353 
L 226.028059 31.408761 
L 225.57188 31.187488 
L 225.638128 31.095213 
L 225.247034 30.860758 
L 224.934392 30.780723 
L 223.497282 30.735526 
L 221.348301 30.579223 
L 221.362248 30.718578 
L 220.80263 30.782606 
L 220.789264 30.642309 
L 219.695597 30.70822 
L 217.682016 31.065082 
L 215.751536 31.308953 
L 215.278505 31.453958 
L 215.112886 31.522693 
L 214.707264 31.690296 
L 214.065127 31.955824 
L 213.554322 32.166739 
L 213.322456 32.262781 
L 208.865267 33.992477 
L 200.381499 37.246602 
L 199.216935 37.679732 
L 198.268547 38.085557 
L 197.094104 38.708887 
L 193.639347 40.962106 
L 193.43886 41.095811 
L 193.297648 41.176787 
L 193.15818 41.255881 
L 193.021035 41.384878 
L 192.927475 41.552481 
L 192.818806 41.871679 
L 192.396913 43.784984 
L 192.109258 45.070251 
L 192.015698 45.584357 
L 191.997102 45.974175 
L 192.077297 46.74251 
L 192.261512 48.370514 
L 192.776965 51.679252 
L 192.869363 52.149104 
L 193.31915 53.614213 
L 193.367383 53.830779 
L 193.348787 53.972958 
L 193.286026 54.081241 
L 193.136678 54.155626 
L 190.961547 55.170657 
L 190.362412 55.453133 
L 189.137412 56.025618 
L 188.076287 56.586804 
L 187.697397 56.788304 
L 186.13186 58.171496 
L 185.713454 58.724207 
L 184.912671 58.985969 
L 184.295521 59.401209 
L 183.708009 59.796675 
L 182.756716 60.407765 
L 180.184099 61.717513 
L 175.740276 63.756991 
L 174.450771 63.757933 
L 173.089207 63.759816 
L 171.13432 63.527244 
L 165.897849 62.786215 
L 160.165103 62.536694 
L 155.65387 62.115805 
L 152.94004 61.910539 
L 149.018062 62.076258 
L 148.81932 62.086616 
L 148.159749 62.121454 
L 147.030633 62.277758 
L 144.341791 63.3587 
L 141.835422 64.465065 
L 140.819043 65.17408 
L 139.585326 66.034691 
L 138.242358 67.414116 
L 134.461011 69.99689 
L 133.912434 70.284074 
L 132.88792 70.642819 
L 132.816442 70.480866 
L 131.599577 70.852793 
L 131.562967 70.787823 
L 130.460583 71.128678 
L 130.491963 71.191764 
L 130.024162 71.333944 
L 130.037527 71.433752 
L 126.421219 72.612619 
L 119.713934 74.234974 
L 113.891695 74.741548 
L 111.737484 75.088052 
L 110.067926 74.935515 
L 107.760881 74.922333 
L 107.32969 75.348872 
L 107.268091 75.040031 
L 106.950219 75.163379 
L 105.68454 75.342281 
L 105.543909 75.001426 
L 105.278337 75.049447 
L 105.120854 75.077695 
L 104.791359 75.137956 
L 102.833566 75.799892 
L 101.713748 76.203833 
L 101.269773 76.486309 
L 100.981537 76.595534 
L 100.665989 76.844113 
L 100.342887 77.053145 
L 100.075571 77.226397 
L 88.273609 82.648998 
L 84.3249 83.783611 
L 80.982299 85.268494 
L 76.693054 86.121572 
L 76.028253 86.734545 
L 75.245484 87.318329 
L 74.919476 87.004781 
L 74.919476 86.558468 
L 74.352303 86.645094 
L 73.900192 86.858835 
L 73.389969 87.533953 
L 73.316167 88.01887 
L 72.986672 87.936952 
L 72.378239 88.159167 
L 72.057461 88.751425 
L 70.895803 89.256116 
L 69.103629 90.142149 
L 68.150593 90.725933 
z
" clip-path="url(#p68f0b1c6ad)" style="fill: #0096ff; stroke: #7980ff; stroke-width: 0.3"/>
    <path d="M 157.398972 87.352226 
L 158.334575 86.121572 
L 158.562374 86.246803 
L 158.805863 86.38145 
L 160.208105 87.153551 
L 160.316775 87.162026 
L 160.620119 87.185565 
L 161.006564 87.215696 
L 161.265744 87.340927 
L 161.288988 87.43132 
L 161.28492 87.565967 
L 161.417997 87.6686 
L 161.935194 87.753342 
L 163.061985 87.899288 
L 164.689701 88.000038 
L 165.931554 87.847501 
L 167.273941 87.758992 
L 167.479076 87.807013 
L 168.049736 87.608338 
L 168.175839 87.437911 
L 170.115617 86.876725 
L 172.007743 86.427588 
L 173.58897 85.86546 
L 175.622889 84.840071 
L 176.41728 83.245023 
L 176.887987 82.05109 
L 177.172736 80.620819 
L 177.197724 79.862841 
L 183.859682 76.722648 
L 184.033436 76.638847 
L 184.100265 76.605891 
L 184.451843 76.436405 
L 184.7825 76.305525 
L 184.878966 76.26692 
L 184.961485 76.233964 
L 185.174756 76.149221 
L 187.537008 74.972237 
L 193.025684 72.670056 
L 193.643996 72.384755 
L 194.18618 72.200204 
L 197.402097 70.899872 
L 197.543891 70.944127 
L 198.426612 70.586324 
L 198.470196 70.44791 
L 198.888602 70.346219 
L 199.369188 70.206864 
L 199.82711 70.081633 
L 200.047936 70.025138 
L 200.276897 69.93757 
L 201.028866 70.195565 
L 201.516426 70.169201 
L 201.666355 70.059035 
L 202.253867 70.063743 
L 202.782686 70.237936 
L 203.618917 70.771816 
L 203.692138 71.783081 
L 204.026282 72.160658 
L 204.660865 72.509986 
L 205.471527 72.950649 
L 206.288 72.72561 
L 210.801558 73.143675 
L 214.906588 73.280205 
L 214.915886 72.937467 
L 217.267678 72.967598 
L 217.380996 72.961948 
L 217.940615 72.933701 
L 218.009768 72.929934 
L 218.852973 72.928993 
L 219.772885 73.074939 
L 221.438375 73.806552 
L 222.046807 74.627616 
L 222.360612 75.631348 
L 222.533205 76.390267 
L 222.600614 76.644496 
L 222.611656 78.332762 
L 222.612818 78.49189 
L 222.849334 80.073757 
L 222.858051 80.134018 
L 223.173017 80.876931 
L 223.492633 81.67728 
L 224.151623 82.838257 
L 224.759475 83.428632 
L 225.900213 84.290185 
L 227.186812 84.647988 
L 227.427977 84.71484 
L 228.285128 84.953062 
L 228.719806 85.091475 
L 231.982794 83.703576 
L 233.176995 83.190411 
L 233.232782 83.169696 
L 233.461162 83.086836 
L 233.72964 82.981378 
L 234.005091 82.884395 
L 234.101556 82.805301 
L 234.236957 82.753514 
L 239.612316 81.280872 
L 240.049899 81.186713 
L 240.135905 81.35714 
L 241.900184 81.005928 
L 242.420287 80.850566 
L 242.570215 80.815728 
L 242.727699 80.770531 
L 242.902035 80.708387 
L 243.053707 80.661307 
L 243.180972 80.622702 
L 243.611582 80.517244 
L 244.244422 80.362824 
L 245.11552 80.167916 
L 245.318912 80.148142 
L 245.558915 80.137785 
L 245.770442 80.126486 
L 246.351562 80.101063 
L 246.434081 80.102004 
L 247.546344 80.121778 
L 248.036228 80.151909 
L 248.978224 80.204637 
L 250.271796 80.264899 
L 250.49669 80.275256 
L 251.429387 80.288439 
L 252.428332 80.453216 
L 252.604411 80.593513 
L 253.235507 80.579389 
L 253.341852 80.488055 
L 254.07232 80.735693 
L 254.826613 81.280872 
L 255.425748 81.369381 
L 256.024301 81.43435 
L 256.089968 81.140575 
L 256.239897 81.092554 
L 256.328227 81.122685 
L 256.450843 81.260157 
L 259.485451 82.614159 
L 259.443029 82.775171 
L 262.205091 83.971928 
L 262.288192 83.875886 
L 265.012481 85.086767 
L 266.388573 85.698799 
L 266.49085 85.56321 
L 267.041752 85.698799 
L 267.023737 85.902182 
L 272.385729 87.367292 
L 272.402582 87.210988 
L 272.88433 87.367292 
L 274.009959 86.461485 
L 274.247056 85.837212 
L 276.82839 73.445924 
L 277.01493 73.073056 
L 277.224714 72.822593 
L 277.254932 72.786813 
L 283.360177 67.617499 
L 283.227681 67.458371 
L 283.626911 67.156121 
L 283.724539 67.3096 
L 286.373283 64.896312 
L 286.57435 64.765431 
L 287.220556 64.250383 
L 287.30598 64.162815 
L 287.48729 64.014045 
L 287.846422 63.748517 
L 288.204391 63.544193 
L 288.647205 63.338927 
L 288.913358 63.22217 
L 288.870355 63.100705 
L 288.960428 63.049859 
L 289.011567 63.164733 
L 289.470652 62.946285 
L 290.412647 62.469842 
L 292.014213 61.665726 
L 292.274555 61.539553 
L 292.529666 61.415264 
L 295.461416 59.933206 
L 296.172706 59.456762 
L 296.266848 59.412508 
L 296.526608 59.251496 
L 296.791599 59.07542 
L 297.219884 58.787294 
L 297.665603 58.488811 
L 297.799261 58.398418 
L 297.831222 58.287311 
L 297.888753 58.199743 
L 298.199652 57.981295 
L 298.233357 58.035907 
L 298.267643 58.090519 
L 298.416991 57.977529 
L 298.728471 58.457738 
L 301.782256 56.422968 
L 302.492965 56.201695 
L 302.572579 56.176272 
L 302.655679 56.155557 
L 305.305004 55.450309 
L 305.181225 54.922078 
L 305.808254 54.750709 
L 306.128451 54.668791 
L 307.510354 54.32982 
L 307.655052 54.301572 
L 307.753843 54.480474 
L 308.114137 54.400439 
L 308.140287 54.505897 
L 309.048578 54.330761 
L 322.295785 51.958903 
L 323.23255 55.293064 
L 318.9927 56.337284 
L 310.356678 58.550955 
L 309.360058 58.896518 
L 307.582412 59.512316 
L 307.457472 59.573519 
L 307.263959 60.014182 
L 306.763615 60.273119 
L 299.612935 63.203338 
L 299.53739 63.236294 
L 299.048087 63.429319 
L 298.555297 63.638351 
L 298.45825 63.677898 
L 298.217086 63.852092 
L 291.480164 66.749356 
L 291.133235 66.936731 
L 290.478313 67.287002 
L 289.642082 67.715424 
L 289.338156 67.870786 
L 289.094086 67.995076 
L 288.933116 68.076994 
L 288.6966 68.197517 
L 288.627447 68.260603 
L 288.470544 68.401841 
L 288.526332 68.572269 
L 288.029474 68.946079 
L 287.973106 68.806724 
L 285.988001 70.663534 
L 284.352729 72.192672 
L 278.726327 77.455203 
L 278.0685 78.255552 
L 277.884866 78.878883 
L 276.548872 86.336254 
L 276.658703 86.383333 
L 276.564562 86.743961 
L 276.43904 86.741136 
L 276.347223 87.210988 
L 276.250757 87.433203 
L 276.119424 87.6686 
L 275.820728 88.097963 
L 275.422661 88.642201 
L 275.000187 89.073448 
L 274.587011 89.454791 
L 274.017514 89.754215 
L 273.608405 89.866264 
L 273.273099 89.892629 
L 272.395027 89.821068 
L 270.400624 89.437842 
L 268.661332 88.964224 
L 268.581138 88.942567 
L 266.158449 88.135627 
L 257.299859 84.228981 
L 257.334726 84.09151 
L 256.904698 83.909783 
L 256.830895 84.023715 
L 255.781974 83.535032 
L 255.700036 83.522791 
L 255.507686 83.493602 
L 255.079981 83.429574 
L 254.607531 83.354247 
L 254.490145 83.336357 
L 254.258278 83.300576 
L 252.539907 83.158397 
L 247.733465 82.937124 
L 245.918628 82.865563 
L 243.099034 82.971021 
L 242.748038 82.984203 
L 242.63995 82.987969 
L 239.508876 83.347656 
L 235.060985 84.205442 
L 234.601901 84.492626 
L 234.324707 84.612207 
L 234.053324 84.728023 
L 233.847026 84.792992 
L 233.792401 84.964361 
L 233.649445 85.090534 
L 232.725465 85.362652 
L 229.761754 86.404048 
L 226.462156 87.023612 
L 226.172758 86.807989 
L 225.901956 86.607431 
L 225.710187 86.484083 
L 225.534107 86.362618 
L 224.30039 85.541554 
L 224.174868 85.319339 
L 222.861537 82.986086 
L 222.633738 82.559547 
L 222.59306 82.43055 
L 222.028793 81.602895 
L 221.257065 80.471107 
L 220.914205 75.429848 
L 219.981507 74.510859 
L 218.33752 74.666221 
L 218.1719 74.680345 
L 217.371698 74.749081 
L 217.081139 74.892202 
L 213.825124 75.260363 
L 207.5438 75.165262 
L 203.722356 74.772621 
L 202.851839 74.465663 
L 202.168442 74.057014 
L 201.258408 73.203936 
L 201.706452 72.996787 
L 201.553617 72.736909 
L 201.347901 72.48268 
L 201.074775 72.300012 
L 200.816176 72.230335 
L 200.627893 72.257641 
L 200.4861 72.279298 
L 200.106629 72.334851 
L 199.694615 72.395113 
L 199.621975 72.409237 
L 199.250058 72.480797 
L 199.186716 72.250108 
L 199.014705 72.156891 
L 198.671263 72.281181 
L 198.592812 72.032602 
L 197.957067 72.203971 
L 198.029126 72.330143 
L 195.451859 73.154974 
L 194.986382 73.429917 
L 194.89166 73.486412 
L 194.588315 73.726517 
L 193.973491 74.060781 
L 186.359659 77.340329 
L 186.132441 77.604915 
L 186.253314 77.882683 
L 185.933117 78.02298 
L 185.675681 78.139737 
L 185.608271 78.18305 
L 185.325847 78.342178 
L 185.028895 78.43257 
L 184.946376 78.457993 
L 184.691845 78.536145 
L 182.978123 79.253634 
L 182.825288 78.941969 
L 179.47397 80.389189 
L 179.209561 80.634943 
L 179.174113 81.218727 
L 179.159003 81.534159 
L 178.945732 83.438048 
L 176.450985 86.181833 
L 176.132531 86.987832 
L 175.741438 87.38424 
L 174.738425 87.608338 
L 168.805192 88.93221 
L 165.539299 89.269298 
L 161.390103 89.255174 
L 160.688692 88.877598 
L 160.628255 88.844642 
L 160.349318 88.69493 
L 160.073867 88.546159 
L 160.004714 88.509437 
L 158.964509 87.949193 
L 157.92198 87.551843 
L 157.652341 87.44921 
z
" clip-path="url(#p68f0b1c6ad)" style="fill: #0096ff; stroke: #7980ff; stroke-width: 0.3"/>
    <path d="M 126.465384 101.166253 
L 126.574635 101.111641 
L 126.859383 101.003358 
L 127.262099 100.854587 
L 128.859598 100.25668 
L 129.962563 99.676662 
L 133.809576 97.259607 
L 134.168127 96.898979 
L 137.202735 94.886807 
L 138.152866 94.600565 
L 140.290224 93.401924 
L 142.238138 92.313449 
L 143.765321 91.175071 
L 145.183834 90.294686 
L 146.556439 89.495279 
L 147.657661 88.957633 
L 147.960424 88.815453 
L 149.613129 88.032052 
L 150.213426 87.75805 
L 153.268954 86.339078 
L 156.02753 85.762827 
L 157.928954 85.824972 
L 158.334575 86.121572 
L 157.398972 87.352226 
L 156.27683 87.243002 
L 154.500347 87.648826 
L 152.941202 88.100788 
L 150.011196 89.331443 
L 145.864906 91.279587 
L 144.384213 92.401959 
L 143.651421 94.116589 
L 141.687817 94.723913 
L 134.510407 98.188954 
L 132.873973 99.322625 
L 131.209646 100.555163 
L 130.803443 101.250054 
L 127.980944 102.151153 
L 127.942009 102.003324 
L 127.817069 102.089008 
L 127.45968 102.300865 
L 127.206893 102.41009 
L 127.080209 102.464702 
z
" clip-path="url(#p68f0b1c6ad)" style="fill: #0096ff; stroke: #7980ff; stroke-width: 0.3"/>
    <path d="M 32.727273 97.366948 
L 32.866741 96.825536 
L 33.250281 96.253051 
L 34.238184 95.267209 
L 35.743866 93.978176 
L 36.825911 93.271985 
L 38.407719 92.695734 
L 39.118428 92.907591 
L 39.777418 92.806841 
L 41.716034 93.013049 
L 42.007175 92.956554 
L 43.4315 93.41699 
L 46.797345 93.932038 
L 48.080458 94.41978 
L 48.156585 94.448969 
L 55.058545 96.877323 
L 56.102817 97.387663 
L 58.720762 98.738841 
L 60.347316 99.501527 
L 60.601846 100.072128 
L 61.606021 100.288694 
L 62.662497 100.775494 
L 63.60333 101.228398 
L 64.680726 101.754745 
L 65.661657 102.234954 
L 66.519389 102.520255 
L 74.44412 104.655775 
L 79.229061 107.255498 
L 79.283686 107.284687 
L 79.33773 107.323292 
L 79.766015 107.627425 
L 80.236722 107.96263 
L 80.294253 108.004059 
L 86.817323 112.387148 
L 88.978508 113.300488 
L 93.143393 112.189415 
L 93.595504 112.06795 
L 94.18999 111.89564 
L 94.989611 111.665892 
L 97.057816 111.079283 
L 99.55605 110.328838 
L 103.138073 109.299683 
L 110.270156 107.045524 
L 110.637424 106.926884 
L 111.090697 106.828959 
L 111.159851 106.805419 
L 113.379728 105.48908 
L 114.052084 105.103971 
L 115.751278 104.340343 
L 119.039835 102.454344 
L 122.874064 101.22369 
L 125.648911 100.896017 
L 126.028963 100.928031 
L 126.465384 101.166253 
L 127.080209 102.464702 
L 126.954106 102.550386 
L 126.521753 102.594641 
L 123.388936 102.485417 
L 119.804008 103.654868 
L 117.496962 104.932602 
L 115.969779 106.041792 
L 114.679693 107.133091 
L 114.318237 107.258322 
L 112.403447 108.14059 
L 111.550363 108.611383 
L 111.409732 108.669762 
L 111.105806 108.796876 
L 110.753067 108.944705 
L 109.645452 109.400433 
L 103.625632 111.164026 
L 101.598105 111.541603 
L 97.000285 112.834402 
L 93.981368 113.679006 
L 93.61933 113.855083 
L 91.201872 114.424743 
L 88.288718 115.279704 
L 87.602997 115.417176 
L 87.437959 115.012293 
L 87.248514 114.50007 
L 85.742251 113.640401 
L 79.004748 109.95597 
L 78.925716 109.912657 
L 78.318446 109.573685 
L 77.785559 109.289326 
L 77.709432 109.247896 
L 77.413061 109.014383 
L 77.047537 108.310075 
L 74.538262 106.626517 
L 73.050014 105.959874 
L 68.638733 104.650126 
L 66.884914 104.039036 
L 65.801706 103.980657 
L 65.022425 103.636978 
L 64.548231 103.523046 
L 63.338921 103.232095 
L 62.614845 102.637954 
L 62.485837 102.532496 
L 60.107313 101.458145 
L 58.835242 100.882835 
L 55.044598 99.888519 
L 51.140635 99.606984 
L 37.032208 99.051448 
L 35.271415 98.793453 
L 33.780843 98.236975 
L 32.928921 97.556207 
z
" clip-path="url(#p68f0b1c6ad)" style="fill: #0096ff; stroke: #7980ff; stroke-width: 0.3"/>
    <path d="M 42.950913 90.689211 
L 44.23635 90.444399 
L 46.20286 90.548915 
L 54.250207 88.670448 
L 59.211227 87.147902 
L 59.4983 88.334302 
L 59.634282 89.209036 
L 43.154305 92.726806 
z
" clip-path="url(#p68f0b1c6ad)" style="fill: #0096ff; stroke: #7980ff; stroke-width: 0.3"/>
    <path d="M 38.893535 92.435856 
L 38.952228 91.959413 
L 38.996393 91.600668 
L 39.200366 90.532908 
L 39.397366 90.530083 
L 40.363768 90.561156 
L 40.485222 90.636483 
L 40.731617 90.675088 
L 40.496263 92.438681 
L 39.701873 92.422674 
L 39.578675 92.418907 
L 39.117266 92.478227 
L 39.019057 92.459396 
z
" clip-path="url(#p68f0b1c6ad)" style="fill: #0096ff; stroke: #7980ff; stroke-width: 0.3"/>
    <path d="M 41.469639 92.631706 
L 41.73986 90.7297 
L 42.383741 90.797494 
L 42.950913 90.689211 
L 43.154305 92.726806 
L 43.056677 92.727748 
L 42.228 92.739989 
z
" clip-path="url(#p68f0b1c6ad)" style="fill: #0096ff; stroke: #7980ff; stroke-width: 0.3"/>
    <path d="M 335.164102 253.233535 
L 341.486685 254.383213 
L 341.609883 254.950049 
L 341.555257 255.201453 
L 341.352447 255.858681 
L 341.197869 256.273921 
L 341.00668 256.658088 
L 340.343041 257.030015 
L 339.380707 257.09781 
L 338.460213 257.035665 
L 337.398507 256.767312 
L 336.752883 256.544156 
L 336.111327 256.156222 
L 335.69757 255.699552 
L 335.487786 255.301261 
L 335.320423 254.403928 
z
" clip-path="url(#p68f0b1c6ad)" style="fill: #0096ff; stroke: #7980ff; stroke-width: 0.3"/>
    <path d="M 334.760224 249.593359 
L 334.860757 247.902268 
L 335.201293 247.727133 
L 336.199657 247.667813 
L 338.451497 247.93899 
L 340.748082 248.63294 
L 341.756906 249.115974 
L 342.03933 249.334423 
L 342.251439 250.040613 
L 342.10674 251.342828 
L 341.477968 251.200649 
L 334.863082 249.805216 
z
" clip-path="url(#p68f0b1c6ad)" style="fill: #0096ff; stroke: #7980ff; stroke-width: 0.3"/>
    <path d="M 124.456453 44.134313 
L 124.80803 43.986484 
L 125.030018 44.337696 
L 125.06721 44.70774 
L 124.789434 44.837679 
L 124.548851 44.596632 
z
" clip-path="url(#p68f0b1c6ad)" style="fill: #0096ff; stroke: #7980ff; stroke-width: 0.3"/>
    <path d="M 334.907828 250.354162 
L 342.000395 251.792907 
L 341.740053 253.956674 
L 341.500051 254.075314 
L 335.122842 252.917162 
L 335.06473 252.604555 
z
" clip-path="url(#p68f0b1c6ad)" style="fill: #0096ff; stroke: #7980ff; stroke-width: 0.3"/>
    <path d="M 162.311178 48.669939 
L 162.365803 48.596495 
L 162.786534 48.443958 
L 162.852782 48.49857 
L 163.125908 49.289503 
L 163.10615 49.344115 
L 162.806292 49.488178 
L 162.677284 49.519251 
L 162.623239 49.491944 
z
" clip-path="url(#p68f0b1c6ad)" style="fill: #0096ff; stroke: #7980ff; stroke-width: 0.3"/>
    <path d="M 161.621389 48.970305 
L 161.68415 48.89592 
L 162.081636 48.728317 
L 162.138004 48.736792 
L 162.186818 48.77163 
L 162.486676 49.604935 
L 162.470986 49.644482 
L 162.061878 49.796077 
L 161.960763 49.776304 
L 161.625457 49.028684 
z
" clip-path="url(#p68f0b1c6ad)" style="fill: #0096ff; stroke: #7980ff; stroke-width: 0.3"/>
    <path d="M 39.019057 92.459396 
L 39.117266 92.478227 
L 39.578675 92.418907 
L 39.701873 92.422674 
L 40.496263 92.438681 
L 40.479992 92.607225 
L 41.45453 92.744696 
L 41.469639 92.631706 
L 42.228 92.739989 
L 42.007175 92.956554 
L 41.716034 93.013049 
L 39.777418 92.806841 
L 39.118428 92.907591 
z
" clip-path="url(#p68f0b1c6ad)" style="fill: #0096ff; stroke: #7980ff; stroke-width: 0.3"/>
   </g>
  </g>
 </g>
 <defs>
  <clipPath id="p68f0b1c6ad">
   <rect x="0" y="-0" width="720" height="269.340562"/>
  </clipPath>
 </defs>
</svg>
